M48
; DRILL file {KiCad (7.0.0)} date Mon Jan 22 21:47:22 2024
; FORMAT={-:-/ absolute / inch / decimal}
; #@! TF.CreationDate,2024-01-22T21:47:22-08:00
; #@! TF.GenerationSoftware,Kicad,Pcbnew,(7.0.0)
; #@! TF.FileFunction,MixedPlating,1,2
FMAT,2
INCH
; #@! TA.AperFunction,Plated,PTH,ViaDrill
T1C0.0150
; #@! TA.AperFunction,Plated,PTH,ComponentDrill
T2C0.0197
; #@! TA.AperFunction,Plated,PTH,ComponentDrill
T3C0.1063
; #@! TA.AperFunction,NonPlated,NPTH,ComponentDrill
T4C0.0550
; #@! TA.AperFunction,NonPlated,NPTH,ComponentDrill
T5C0.1280
%
G90
G05
T1
X4.3947Y-2.9813
X4.4587Y-2.9892
T2
X3.7392Y-2.0866
X3.7392Y-3.7402
X3.7625Y-2.0302
X3.7625Y-2.143
X3.7625Y-3.6838
X3.7625Y-3.7965
X3.8189Y-2.0069
X3.8189Y-2.1663
X3.8189Y-3.6604
X3.8189Y-3.8199
X3.8753Y-2.0302
X3.8753Y-2.143
X3.8753Y-3.6838
X3.8753Y-3.7965
X3.8986Y-2.0866
X3.8986Y-3.7402
X4.7628Y-2.0866
X4.7628Y-3.7402
X4.7861Y-2.0302
X4.7861Y-2.143
X4.7861Y-3.6838
X4.7861Y-3.7965
X4.8425Y-2.0069
X4.8425Y-2.1663
X4.8425Y-3.6604
X4.8425Y-3.8199
X4.8989Y-2.0302
X4.8989Y-2.143
X4.8989Y-3.6838
X4.8989Y-3.7965
X4.9222Y-2.0866
X4.9222Y-3.7402
T3
X3.8189Y-2.0866
X3.8189Y-3.7402
X4.8425Y-2.0866
X4.8425Y-3.7402
T4
X4.124Y-3.8112
X4.5374Y-3.8112
T5
X4.1057Y-2.2933
X4.5557Y-2.2933
T0
M30
