%TF.GenerationSoftware,KiCad,Pcbnew,(7.0.0)*%
%TF.CreationDate,2024-01-22T21:47:18-08:00*%
%TF.ProjectId,M.E.S.S.I Basic,4d2e452e-532e-4532-9e49-204261736963,rev?*%
%TF.SameCoordinates,Original*%
%TF.FileFunction,Legend,Top*%
%TF.FilePolarity,Positive*%
%FSLAX46Y46*%
G04 Gerber Fmt 4.6, Leading zero omitted, Abs format (unit mm)*
G04 Created by KiCad (PCBNEW (7.0.0)) date 2024-01-22 21:47:18*
%MOMM*%
%LPD*%
G01*
G04 APERTURE LIST*
%ADD10C,0.175000*%
%ADD11C,0.125000*%
%ADD12C,0.150000*%
%ADD13C,0.120000*%
%ADD14C,0.152400*%
G04 APERTURE END LIST*
D10*
X111178573Y-85775535D02*
X111607145Y-85775535D01*
X111392859Y-86525535D02*
X111392859Y-85775535D01*
X111785716Y-85775535D02*
X112285716Y-86525535D01*
X112285716Y-85775535D02*
X111785716Y-86525535D01*
X107678572Y-85811250D02*
X107607144Y-85775535D01*
X107607144Y-85775535D02*
X107500001Y-85775535D01*
X107500001Y-85775535D02*
X107392858Y-85811250D01*
X107392858Y-85811250D02*
X107321429Y-85882678D01*
X107321429Y-85882678D02*
X107285715Y-85954107D01*
X107285715Y-85954107D02*
X107250001Y-86096964D01*
X107250001Y-86096964D02*
X107250001Y-86204107D01*
X107250001Y-86204107D02*
X107285715Y-86346964D01*
X107285715Y-86346964D02*
X107321429Y-86418392D01*
X107321429Y-86418392D02*
X107392858Y-86489821D01*
X107392858Y-86489821D02*
X107500001Y-86525535D01*
X107500001Y-86525535D02*
X107571429Y-86525535D01*
X107571429Y-86525535D02*
X107678572Y-86489821D01*
X107678572Y-86489821D02*
X107714286Y-86454107D01*
X107714286Y-86454107D02*
X107714286Y-86204107D01*
X107714286Y-86204107D02*
X107571429Y-86204107D01*
X108035715Y-86525535D02*
X108035715Y-85775535D01*
X108035715Y-85775535D02*
X108464286Y-86525535D01*
X108464286Y-86525535D02*
X108464286Y-85775535D01*
X108821429Y-86525535D02*
X108821429Y-85775535D01*
X108821429Y-85775535D02*
X109000000Y-85775535D01*
X109000000Y-85775535D02*
X109107143Y-85811250D01*
X109107143Y-85811250D02*
X109178572Y-85882678D01*
X109178572Y-85882678D02*
X109214286Y-85954107D01*
X109214286Y-85954107D02*
X109250000Y-86096964D01*
X109250000Y-86096964D02*
X109250000Y-86204107D01*
X109250000Y-86204107D02*
X109214286Y-86346964D01*
X109214286Y-86346964D02*
X109178572Y-86418392D01*
X109178572Y-86418392D02*
X109107143Y-86489821D01*
X109107143Y-86489821D02*
X109000000Y-86525535D01*
X109000000Y-86525535D02*
X108821429Y-86525535D01*
X115125001Y-86525535D02*
X114875001Y-86168392D01*
X114696430Y-86525535D02*
X114696430Y-85775535D01*
X114696430Y-85775535D02*
X114982144Y-85775535D01*
X114982144Y-85775535D02*
X115053573Y-85811250D01*
X115053573Y-85811250D02*
X115089287Y-85846964D01*
X115089287Y-85846964D02*
X115125001Y-85918392D01*
X115125001Y-85918392D02*
X115125001Y-86025535D01*
X115125001Y-86025535D02*
X115089287Y-86096964D01*
X115089287Y-86096964D02*
X115053573Y-86132678D01*
X115053573Y-86132678D02*
X114982144Y-86168392D01*
X114982144Y-86168392D02*
X114696430Y-86168392D01*
X115375001Y-85775535D02*
X115875001Y-86525535D01*
X115875001Y-85775535D02*
X115375001Y-86525535D01*
X100308333Y-96418904D02*
X100308333Y-95618904D01*
X100308333Y-95618904D02*
X100613095Y-95618904D01*
X100613095Y-95618904D02*
X100689285Y-95657000D01*
X100689285Y-95657000D02*
X100727380Y-95695095D01*
X100727380Y-95695095D02*
X100765476Y-95771285D01*
X100765476Y-95771285D02*
X100765476Y-95885571D01*
X100765476Y-95885571D02*
X100727380Y-95961761D01*
X100727380Y-95961761D02*
X100689285Y-95999857D01*
X100689285Y-95999857D02*
X100613095Y-96037952D01*
X100613095Y-96037952D02*
X100308333Y-96037952D01*
X101032142Y-95618904D02*
X101222618Y-96418904D01*
X101222618Y-96418904D02*
X101374999Y-95847476D01*
X101374999Y-95847476D02*
X101527380Y-96418904D01*
X101527380Y-96418904D02*
X101717857Y-95618904D01*
X102479762Y-96418904D02*
X102213095Y-96037952D01*
X102022619Y-96418904D02*
X102022619Y-95618904D01*
X102022619Y-95618904D02*
X102327381Y-95618904D01*
X102327381Y-95618904D02*
X102403571Y-95657000D01*
X102403571Y-95657000D02*
X102441666Y-95695095D01*
X102441666Y-95695095D02*
X102479762Y-95771285D01*
X102479762Y-95771285D02*
X102479762Y-95885571D01*
X102479762Y-95885571D02*
X102441666Y-95961761D01*
X102441666Y-95961761D02*
X102403571Y-95999857D01*
X102403571Y-95999857D02*
X102327381Y-96037952D01*
X102327381Y-96037952D02*
X102022619Y-96037952D01*
X103785714Y-86239821D02*
X104357143Y-86239821D01*
X104071428Y-86525535D02*
X104071428Y-85954107D01*
X105071428Y-85775535D02*
X104714285Y-85775535D01*
X104714285Y-85775535D02*
X104678571Y-86132678D01*
X104678571Y-86132678D02*
X104714285Y-86096964D01*
X104714285Y-86096964D02*
X104785714Y-86061250D01*
X104785714Y-86061250D02*
X104964285Y-86061250D01*
X104964285Y-86061250D02*
X105035714Y-86096964D01*
X105035714Y-86096964D02*
X105071428Y-86132678D01*
X105071428Y-86132678D02*
X105107142Y-86204107D01*
X105107142Y-86204107D02*
X105107142Y-86382678D01*
X105107142Y-86382678D02*
X105071428Y-86454107D01*
X105071428Y-86454107D02*
X105035714Y-86489821D01*
X105035714Y-86489821D02*
X104964285Y-86525535D01*
X104964285Y-86525535D02*
X104785714Y-86525535D01*
X104785714Y-86525535D02*
X104714285Y-86489821D01*
X104714285Y-86489821D02*
X104678571Y-86454107D01*
X105321428Y-85775535D02*
X105571428Y-86525535D01*
X105571428Y-86525535D02*
X105821428Y-85775535D01*
D11*
%TO.C,C1*%
X106066666Y-76886071D02*
X106042857Y-76909880D01*
X106042857Y-76909880D02*
X105971428Y-76933690D01*
X105971428Y-76933690D02*
X105923809Y-76933690D01*
X105923809Y-76933690D02*
X105852381Y-76909880D01*
X105852381Y-76909880D02*
X105804762Y-76862261D01*
X105804762Y-76862261D02*
X105780952Y-76814642D01*
X105780952Y-76814642D02*
X105757143Y-76719404D01*
X105757143Y-76719404D02*
X105757143Y-76647976D01*
X105757143Y-76647976D02*
X105780952Y-76552738D01*
X105780952Y-76552738D02*
X105804762Y-76505119D01*
X105804762Y-76505119D02*
X105852381Y-76457500D01*
X105852381Y-76457500D02*
X105923809Y-76433690D01*
X105923809Y-76433690D02*
X105971428Y-76433690D01*
X105971428Y-76433690D02*
X106042857Y-76457500D01*
X106042857Y-76457500D02*
X106066666Y-76481309D01*
X106542857Y-76933690D02*
X106257143Y-76933690D01*
X106400000Y-76933690D02*
X106400000Y-76433690D01*
X106400000Y-76433690D02*
X106352381Y-76505119D01*
X106352381Y-76505119D02*
X106304762Y-76552738D01*
X106304762Y-76552738D02*
X106257143Y-76576547D01*
%TO.C,R3*%
X113716666Y-76933690D02*
X113550000Y-76695595D01*
X113430952Y-76933690D02*
X113430952Y-76433690D01*
X113430952Y-76433690D02*
X113621428Y-76433690D01*
X113621428Y-76433690D02*
X113669047Y-76457500D01*
X113669047Y-76457500D02*
X113692857Y-76481309D01*
X113692857Y-76481309D02*
X113716666Y-76528928D01*
X113716666Y-76528928D02*
X113716666Y-76600357D01*
X113716666Y-76600357D02*
X113692857Y-76647976D01*
X113692857Y-76647976D02*
X113669047Y-76671785D01*
X113669047Y-76671785D02*
X113621428Y-76695595D01*
X113621428Y-76695595D02*
X113430952Y-76695595D01*
X113883333Y-76433690D02*
X114192857Y-76433690D01*
X114192857Y-76433690D02*
X114026190Y-76624166D01*
X114026190Y-76624166D02*
X114097619Y-76624166D01*
X114097619Y-76624166D02*
X114145238Y-76647976D01*
X114145238Y-76647976D02*
X114169047Y-76671785D01*
X114169047Y-76671785D02*
X114192857Y-76719404D01*
X114192857Y-76719404D02*
X114192857Y-76838452D01*
X114192857Y-76838452D02*
X114169047Y-76886071D01*
X114169047Y-76886071D02*
X114145238Y-76909880D01*
X114145238Y-76909880D02*
X114097619Y-76933690D01*
X114097619Y-76933690D02*
X113954762Y-76933690D01*
X113954762Y-76933690D02*
X113907143Y-76909880D01*
X113907143Y-76909880D02*
X113883333Y-76886071D01*
D12*
%TO.C,REF\u002A\u002A*%
G36*
X102452886Y-71189188D02*
G01*
X102465381Y-71189631D01*
X102477681Y-71190369D01*
X102489786Y-71191402D01*
X102501695Y-71192730D01*
X102513409Y-71194354D01*
X102524928Y-71196272D01*
X102536251Y-71198486D01*
X102547379Y-71200995D01*
X102558312Y-71203799D01*
X102569049Y-71206898D01*
X102579591Y-71210293D01*
X102589938Y-71213982D01*
X102600089Y-71217967D01*
X102610045Y-71222247D01*
X102619805Y-71226822D01*
X102629370Y-71231692D01*
X102638740Y-71236858D01*
X102647915Y-71242318D01*
X102656894Y-71248074D01*
X102665678Y-71254125D01*
X102674266Y-71260471D01*
X102682659Y-71267112D01*
X102690857Y-71274049D01*
X102698859Y-71281280D01*
X102706667Y-71288807D01*
X102714278Y-71296629D01*
X102721695Y-71304746D01*
X102728916Y-71313158D01*
X102735941Y-71321866D01*
X102742772Y-71330868D01*
X102749407Y-71340166D01*
X102754827Y-71348193D01*
X102760076Y-71356361D01*
X102765153Y-71364668D01*
X102770058Y-71373116D01*
X102774790Y-71381704D01*
X102779350Y-71390432D01*
X102783739Y-71399301D01*
X102787955Y-71408310D01*
X102791999Y-71417459D01*
X102795871Y-71426748D01*
X102799571Y-71436178D01*
X102803099Y-71445748D01*
X102806455Y-71455458D01*
X102809638Y-71465308D01*
X102812650Y-71475299D01*
X102815490Y-71485430D01*
X102818157Y-71495701D01*
X102820652Y-71506112D01*
X102822976Y-71516664D01*
X102825127Y-71527355D01*
X102827106Y-71538187D01*
X102828913Y-71549160D01*
X102830548Y-71560272D01*
X102832010Y-71571525D01*
X102833301Y-71582918D01*
X102834420Y-71594452D01*
X102835366Y-71606125D01*
X102836140Y-71617939D01*
X102836743Y-71629893D01*
X102837173Y-71641987D01*
X102837431Y-71654222D01*
X102837517Y-71666597D01*
X102837366Y-71676889D01*
X102836911Y-71687091D01*
X102836154Y-71697201D01*
X102835093Y-71707220D01*
X102833729Y-71717148D01*
X102832063Y-71726985D01*
X102830093Y-71736730D01*
X102827820Y-71746384D01*
X102825244Y-71755947D01*
X102822365Y-71765418D01*
X102819183Y-71774799D01*
X102815699Y-71784088D01*
X102811911Y-71793286D01*
X102807820Y-71802393D01*
X102803425Y-71811408D01*
X102798728Y-71820332D01*
X102793728Y-71829165D01*
X102788425Y-71837907D01*
X102782819Y-71846558D01*
X102776910Y-71855117D01*
X102770697Y-71863585D01*
X102764182Y-71871962D01*
X102757364Y-71880247D01*
X102750242Y-71888442D01*
X102742818Y-71896545D01*
X102735091Y-71904557D01*
X102727060Y-71912477D01*
X102718726Y-71920307D01*
X102710090Y-71928045D01*
X102701150Y-71935692D01*
X102691908Y-71943248D01*
X102682362Y-71950712D01*
X102688442Y-71956317D01*
X102695072Y-71962414D01*
X102702253Y-71969003D01*
X102709985Y-71976086D01*
X102715446Y-71981081D01*
X102721151Y-71986295D01*
X102727101Y-71991729D01*
X102733295Y-71997381D01*
X102739734Y-72003252D01*
X102746418Y-72009342D01*
X102753347Y-72015651D01*
X102760521Y-72022179D01*
X102767939Y-72028926D01*
X102775602Y-72035892D01*
X102834403Y-72083336D01*
X102840558Y-72089465D01*
X102846107Y-72095555D01*
X102851051Y-72101606D01*
X102855389Y-72107619D01*
X102860232Y-72115576D01*
X102863998Y-72123464D01*
X102866689Y-72131284D01*
X102868303Y-72139035D01*
X102868841Y-72146717D01*
X102868327Y-72155636D01*
X102866784Y-72164187D01*
X102864213Y-72172372D01*
X102860612Y-72180191D01*
X102855984Y-72187642D01*
X102850326Y-72194727D01*
X102847775Y-72197459D01*
X102842217Y-72202911D01*
X102836349Y-72207637D01*
X102830173Y-72211635D01*
X102822017Y-72215611D01*
X102813379Y-72218451D01*
X102806120Y-72219905D01*
X102798552Y-72220632D01*
X102794653Y-72220723D01*
X102786076Y-72219008D01*
X102778651Y-72215960D01*
X102769861Y-72211387D01*
X102759706Y-72205291D01*
X102748186Y-72197670D01*
X102741913Y-72193288D01*
X102735300Y-72188525D01*
X102728345Y-72183381D01*
X102721049Y-72177856D01*
X102713411Y-72171950D01*
X102705433Y-72165663D01*
X102697112Y-72158995D01*
X102688451Y-72151946D01*
X102679448Y-72144516D01*
X102670104Y-72136705D01*
X102660419Y-72128513D01*
X102650392Y-72119939D01*
X102640024Y-72110985D01*
X102629315Y-72101650D01*
X102618264Y-72091933D01*
X102606872Y-72081836D01*
X102595139Y-72071358D01*
X102583064Y-72060498D01*
X102570648Y-72049258D01*
X102557891Y-72037636D01*
X102544792Y-72025634D01*
X102534111Y-72029382D01*
X102523454Y-72032889D01*
X102512822Y-72036154D01*
X102502214Y-72039178D01*
X102491630Y-72041959D01*
X102481071Y-72044499D01*
X102470535Y-72046796D01*
X102460025Y-72048852D01*
X102449538Y-72050666D01*
X102439076Y-72052238D01*
X102428638Y-72053568D01*
X102418225Y-72054657D01*
X102407836Y-72055503D01*
X102397471Y-72056108D01*
X102387130Y-72056471D01*
X102376814Y-72056591D01*
X102366617Y-72056466D01*
X102356496Y-72056088D01*
X102346451Y-72055460D01*
X102336483Y-72054579D01*
X102326590Y-72053447D01*
X102316774Y-72052064D01*
X102307034Y-72050429D01*
X102297370Y-72048543D01*
X102287783Y-72046405D01*
X102278271Y-72044016D01*
X102268836Y-72041375D01*
X102259477Y-72038482D01*
X102250195Y-72035338D01*
X102240988Y-72031943D01*
X102231858Y-72028296D01*
X102222804Y-72024397D01*
X102213826Y-72020247D01*
X102204924Y-72015846D01*
X102196099Y-72011193D01*
X102187349Y-72006288D01*
X102178676Y-72001132D01*
X102170080Y-71995724D01*
X102161559Y-71990065D01*
X102153114Y-71984154D01*
X102144746Y-71977992D01*
X102136454Y-71971578D01*
X102128238Y-71964913D01*
X102120099Y-71957997D01*
X102112035Y-71950828D01*
X102104048Y-71943408D01*
X102096137Y-71935737D01*
X102088302Y-71927814D01*
X102080763Y-71919835D01*
X102073462Y-71911789D01*
X102066401Y-71903675D01*
X102059580Y-71895494D01*
X102052998Y-71887246D01*
X102046655Y-71878931D01*
X102040551Y-71870548D01*
X102034687Y-71862098D01*
X102029062Y-71853581D01*
X102023677Y-71844996D01*
X102018531Y-71836344D01*
X102013624Y-71827625D01*
X102008957Y-71818839D01*
X102004529Y-71809985D01*
X102000340Y-71801065D01*
X101996391Y-71792076D01*
X101992681Y-71783021D01*
X101989210Y-71773898D01*
X101985979Y-71764709D01*
X101982987Y-71755451D01*
X101980234Y-71746127D01*
X101977721Y-71736735D01*
X101975447Y-71727276D01*
X101973413Y-71717750D01*
X101971618Y-71708157D01*
X101970062Y-71698496D01*
X101968745Y-71688768D01*
X101967668Y-71678973D01*
X101966831Y-71669110D01*
X101966232Y-71659181D01*
X101965873Y-71649184D01*
X101965757Y-71639486D01*
X102112666Y-71639486D01*
X102112985Y-71652422D01*
X102113942Y-71665220D01*
X102115538Y-71677879D01*
X102117772Y-71690399D01*
X102120644Y-71702780D01*
X102124154Y-71715023D01*
X102128303Y-71727126D01*
X102133090Y-71739091D01*
X102138516Y-71750917D01*
X102144579Y-71762604D01*
X102151281Y-71774152D01*
X102158621Y-71785562D01*
X102166600Y-71796833D01*
X102175216Y-71807965D01*
X102184471Y-71818958D01*
X102194365Y-71829812D01*
X102199490Y-71835109D01*
X102209851Y-71845198D01*
X102220361Y-71854615D01*
X102231020Y-71863359D01*
X102241828Y-71871430D01*
X102252784Y-71878829D01*
X102263890Y-71885555D01*
X102275144Y-71891609D01*
X102286547Y-71896990D01*
X102298099Y-71901698D01*
X102309800Y-71905734D01*
X102321649Y-71909097D01*
X102333648Y-71911788D01*
X102345795Y-71913806D01*
X102358091Y-71915151D01*
X102370536Y-71915823D01*
X102376814Y-71915908D01*
X102384584Y-71915792D01*
X102392644Y-71915444D01*
X102400051Y-71914940D01*
X102405757Y-71914442D01*
X102396596Y-71905572D01*
X102388025Y-71896914D01*
X102380046Y-71888467D01*
X102372658Y-71880233D01*
X102365861Y-71872210D01*
X102359655Y-71864399D01*
X102354040Y-71856800D01*
X102349016Y-71849412D01*
X102344583Y-71842237D01*
X102340742Y-71835273D01*
X102337491Y-71828521D01*
X102333723Y-71818790D01*
X102331285Y-71809536D01*
X102330177Y-71800758D01*
X102330103Y-71797938D01*
X102330472Y-71790494D01*
X102331972Y-71781631D01*
X102334626Y-71773259D01*
X102338433Y-71765380D01*
X102343395Y-71757993D01*
X102348195Y-71752438D01*
X102353733Y-71747197D01*
X102360825Y-71741761D01*
X102368248Y-71737247D01*
X102376002Y-71733654D01*
X102384087Y-71730982D01*
X102392503Y-71729232D01*
X102401250Y-71728403D01*
X102404841Y-71728329D01*
X102413436Y-71728818D01*
X102421728Y-71730287D01*
X102429717Y-71732734D01*
X102437402Y-71736160D01*
X102444783Y-71740565D01*
X102451862Y-71745949D01*
X102458636Y-71752312D01*
X102465108Y-71759653D01*
X102470804Y-71766706D01*
X102476583Y-71773669D01*
X102482442Y-71780542D01*
X102488384Y-71787325D01*
X102494406Y-71794018D01*
X102500511Y-71800620D01*
X102506697Y-71807132D01*
X102512964Y-71813555D01*
X102519313Y-71819886D01*
X102525744Y-71826128D01*
X102532256Y-71832280D01*
X102538850Y-71838341D01*
X102545526Y-71844313D01*
X102552283Y-71850194D01*
X102559121Y-71855985D01*
X102566041Y-71861686D01*
X102573671Y-71856924D01*
X102581059Y-71852094D01*
X102588204Y-71847198D01*
X102595107Y-71842234D01*
X102601768Y-71837203D01*
X102608187Y-71832105D01*
X102614363Y-71826939D01*
X102620298Y-71821706D01*
X102625990Y-71816406D01*
X102631439Y-71811039D01*
X102636647Y-71805604D01*
X102641613Y-71800102D01*
X102650817Y-71788897D01*
X102659052Y-71777422D01*
X102666318Y-71765678D01*
X102672616Y-71753665D01*
X102677945Y-71741384D01*
X102682305Y-71728833D01*
X102685696Y-71716013D01*
X102688118Y-71702924D01*
X102689571Y-71689566D01*
X102690056Y-71675939D01*
X102689998Y-71666484D01*
X102689826Y-71657148D01*
X102689539Y-71647931D01*
X102689137Y-71638833D01*
X102688620Y-71629854D01*
X102687988Y-71620993D01*
X102687242Y-71612251D01*
X102686381Y-71603628D01*
X102685404Y-71595123D01*
X102684313Y-71586738D01*
X102683107Y-71578471D01*
X102681787Y-71570323D01*
X102680351Y-71562294D01*
X102678801Y-71554383D01*
X102677135Y-71546592D01*
X102675355Y-71538919D01*
X102673460Y-71531365D01*
X102671450Y-71523929D01*
X102669326Y-71516613D01*
X102667086Y-71509415D01*
X102664732Y-71502336D01*
X102662263Y-71495376D01*
X102656980Y-71481812D01*
X102651237Y-71468723D01*
X102645036Y-71456109D01*
X102638375Y-71443970D01*
X102631254Y-71432307D01*
X102627086Y-71425996D01*
X102622801Y-71419885D01*
X102618400Y-71413974D01*
X102609250Y-71402754D01*
X102599634Y-71392336D01*
X102589554Y-71382719D01*
X102579008Y-71373903D01*
X102567997Y-71365889D01*
X102556521Y-71358676D01*
X102544579Y-71352265D01*
X102532173Y-71346655D01*
X102519302Y-71341846D01*
X102505965Y-71337839D01*
X102492164Y-71334633D01*
X102477897Y-71332229D01*
X102470589Y-71331328D01*
X102463165Y-71330626D01*
X102455625Y-71330125D01*
X102447968Y-71329825D01*
X102440195Y-71329725D01*
X102431897Y-71329812D01*
X102423672Y-71330072D01*
X102415521Y-71330507D01*
X102407443Y-71331116D01*
X102399438Y-71331898D01*
X102391507Y-71332855D01*
X102383649Y-71333985D01*
X102375864Y-71335289D01*
X102368153Y-71336767D01*
X102360515Y-71338419D01*
X102352950Y-71340244D01*
X102345459Y-71342244D01*
X102338041Y-71344418D01*
X102330696Y-71346765D01*
X102323425Y-71349286D01*
X102316227Y-71351981D01*
X102309102Y-71354850D01*
X102302051Y-71357893D01*
X102295073Y-71361110D01*
X102288168Y-71364501D01*
X102281337Y-71368065D01*
X102274579Y-71371804D01*
X102267895Y-71375716D01*
X102261283Y-71379802D01*
X102254746Y-71384062D01*
X102248281Y-71388496D01*
X102241890Y-71393104D01*
X102235572Y-71397886D01*
X102229328Y-71402841D01*
X102223157Y-71407971D01*
X102217059Y-71413274D01*
X102211034Y-71418751D01*
X102204982Y-71424435D01*
X102199122Y-71430197D01*
X102193455Y-71436037D01*
X102187979Y-71441955D01*
X102182696Y-71447952D01*
X102177604Y-71454027D01*
X102172705Y-71460181D01*
X102167998Y-71466413D01*
X102163483Y-71472723D01*
X102159160Y-71479112D01*
X102155029Y-71485579D01*
X102151091Y-71492124D01*
X102147344Y-71498748D01*
X102143790Y-71505450D01*
X102140428Y-71512230D01*
X102137258Y-71519089D01*
X102134280Y-71526026D01*
X102131494Y-71533042D01*
X102128900Y-71540136D01*
X102126499Y-71547308D01*
X102124289Y-71554558D01*
X102122272Y-71561887D01*
X102120447Y-71569295D01*
X102118814Y-71576780D01*
X102117373Y-71584344D01*
X102116124Y-71591986D01*
X102115067Y-71599707D01*
X102114203Y-71607506D01*
X102113530Y-71615383D01*
X102113050Y-71623339D01*
X102112762Y-71631373D01*
X102112666Y-71639486D01*
X101965757Y-71639486D01*
X101965753Y-71639119D01*
X101965894Y-71627304D01*
X101966315Y-71615601D01*
X101967017Y-71604012D01*
X101968000Y-71592537D01*
X101969264Y-71581175D01*
X101970809Y-71569926D01*
X101972634Y-71558791D01*
X101974741Y-71547769D01*
X101977128Y-71536860D01*
X101979796Y-71526065D01*
X101982745Y-71515384D01*
X101985975Y-71504815D01*
X101989486Y-71494361D01*
X101993277Y-71484019D01*
X101997350Y-71473791D01*
X102001703Y-71463677D01*
X102006337Y-71453676D01*
X102011252Y-71443788D01*
X102016448Y-71434014D01*
X102021925Y-71424353D01*
X102027682Y-71414805D01*
X102033720Y-71405371D01*
X102040040Y-71396050D01*
X102046640Y-71386843D01*
X102053521Y-71377749D01*
X102060683Y-71368769D01*
X102068125Y-71359902D01*
X102075849Y-71351148D01*
X102083853Y-71342508D01*
X102092138Y-71333982D01*
X102100704Y-71325568D01*
X102109551Y-71317268D01*
X102118326Y-71309379D01*
X102127201Y-71301741D01*
X102136176Y-71294353D01*
X102145252Y-71287215D01*
X102154428Y-71280328D01*
X102163705Y-71273691D01*
X102173083Y-71267305D01*
X102182561Y-71261169D01*
X102192140Y-71255283D01*
X102201819Y-71249648D01*
X102211598Y-71244264D01*
X102221479Y-71239130D01*
X102231459Y-71234246D01*
X102241541Y-71229613D01*
X102251722Y-71225230D01*
X102262005Y-71221098D01*
X102272388Y-71217216D01*
X102282871Y-71213584D01*
X102293455Y-71210203D01*
X102304140Y-71207073D01*
X102314925Y-71204193D01*
X102325810Y-71201563D01*
X102336796Y-71199184D01*
X102347883Y-71197055D01*
X102359070Y-71195177D01*
X102370358Y-71193549D01*
X102381746Y-71192171D01*
X102393235Y-71191044D01*
X102404824Y-71190168D01*
X102416514Y-71189542D01*
X102428304Y-71189166D01*
X102440195Y-71189041D01*
X102452886Y-71189188D01*
G37*
G36*
X103381019Y-71250224D02*
G01*
X103377115Y-71258709D01*
X103372893Y-71268022D01*
X103368353Y-71278162D01*
X103365148Y-71285382D01*
X103361803Y-71292970D01*
X103358315Y-71300925D01*
X103354686Y-71309249D01*
X103350915Y-71317940D01*
X103347002Y-71326999D01*
X103342948Y-71336425D01*
X103338752Y-71346220D01*
X103334414Y-71356382D01*
X103329935Y-71366912D01*
X103325314Y-71377810D01*
X103322950Y-71383397D01*
X103318463Y-71394844D01*
X103313751Y-71406515D01*
X103308812Y-71418411D01*
X103303647Y-71430532D01*
X103298256Y-71442878D01*
X103292639Y-71455448D01*
X103286796Y-71468243D01*
X103280726Y-71481262D01*
X103274431Y-71494506D01*
X103271198Y-71501213D01*
X103267909Y-71507975D01*
X103264564Y-71514794D01*
X103261162Y-71521669D01*
X103257703Y-71528600D01*
X103254188Y-71535587D01*
X103250616Y-71542630D01*
X103246988Y-71549730D01*
X103243303Y-71556886D01*
X103239562Y-71564098D01*
X103235764Y-71571366D01*
X103231910Y-71578690D01*
X103227999Y-71586070D01*
X103224032Y-71593507D01*
X103217003Y-71606194D01*
X103209975Y-71618883D01*
X103202949Y-71631576D01*
X103195925Y-71644271D01*
X103188901Y-71656970D01*
X103181880Y-71669671D01*
X103174859Y-71682375D01*
X103167840Y-71695081D01*
X103160823Y-71707791D01*
X103153807Y-71720504D01*
X103146792Y-71733219D01*
X103139779Y-71745937D01*
X103132767Y-71758659D01*
X103125757Y-71771383D01*
X103118748Y-71784109D01*
X103111741Y-71796839D01*
X103107920Y-71804387D01*
X103103585Y-71813222D01*
X103099996Y-71820624D01*
X103095847Y-71829235D01*
X103091139Y-71839055D01*
X103085871Y-71850085D01*
X103080043Y-71862323D01*
X103073656Y-71875772D01*
X103070253Y-71882949D01*
X103066710Y-71890429D01*
X103063027Y-71898211D01*
X103059204Y-71906296D01*
X103055241Y-71914683D01*
X103051138Y-71923372D01*
X103046895Y-71932363D01*
X103042513Y-71941657D01*
X103037990Y-71951253D01*
X103033328Y-71961152D01*
X103028525Y-71971352D01*
X103023583Y-71981855D01*
X103018501Y-71992661D01*
X103014734Y-71999896D01*
X103010578Y-72006419D01*
X103006032Y-72012230D01*
X102999364Y-72018872D01*
X102992004Y-72024249D01*
X102983951Y-72028360D01*
X102975206Y-72031207D01*
X102965767Y-72032788D01*
X102958234Y-72033144D01*
X102950038Y-72032733D01*
X102942163Y-72031498D01*
X102934610Y-72029441D01*
X102927380Y-72026561D01*
X102920471Y-72022858D01*
X102913884Y-72018332D01*
X102911340Y-72016291D01*
X102905113Y-72010313D01*
X102899941Y-72003941D01*
X102895825Y-71997175D01*
X102892764Y-71990016D01*
X102890758Y-71982463D01*
X102889809Y-71974517D01*
X102889724Y-71971229D01*
X102890171Y-71963805D01*
X102891513Y-71956417D01*
X102893749Y-71949064D01*
X102894304Y-71947598D01*
X102899662Y-71934092D01*
X102902548Y-71927067D01*
X102905572Y-71919860D01*
X102908734Y-71912472D01*
X102912033Y-71904903D01*
X102915470Y-71897152D01*
X102919045Y-71889220D01*
X102922757Y-71881107D01*
X102926607Y-71872812D01*
X102930595Y-71864336D01*
X102934721Y-71855678D01*
X102938985Y-71846839D01*
X102943386Y-71837818D01*
X102947925Y-71828616D01*
X102952601Y-71819233D01*
X102957416Y-71809669D01*
X102962368Y-71799922D01*
X102967458Y-71789995D01*
X102972686Y-71779886D01*
X102978051Y-71769596D01*
X102983554Y-71759124D01*
X102989195Y-71748471D01*
X102994974Y-71737637D01*
X103000890Y-71726621D01*
X103006944Y-71715424D01*
X103013136Y-71704045D01*
X103019466Y-71692485D01*
X103025933Y-71680744D01*
X103032538Y-71668821D01*
X103039281Y-71656717D01*
X103046162Y-71644432D01*
X103053054Y-71632145D01*
X103059807Y-71620038D01*
X103066423Y-71608111D01*
X103072901Y-71596363D01*
X103079240Y-71584795D01*
X103085441Y-71573407D01*
X103091505Y-71562198D01*
X103097430Y-71551169D01*
X103103217Y-71540319D01*
X103108866Y-71529649D01*
X103114377Y-71519159D01*
X103119749Y-71508848D01*
X103124984Y-71498717D01*
X103130081Y-71488765D01*
X103135039Y-71478993D01*
X103139859Y-71469401D01*
X103144542Y-71459988D01*
X103149086Y-71450755D01*
X103153492Y-71441702D01*
X103157760Y-71432828D01*
X103161889Y-71424133D01*
X103165881Y-71415619D01*
X103169735Y-71407283D01*
X103173450Y-71399128D01*
X103177028Y-71391152D01*
X103180467Y-71383356D01*
X103183768Y-71375739D01*
X103186931Y-71368302D01*
X103189956Y-71361044D01*
X103192843Y-71353966D01*
X103195592Y-71347068D01*
X103198203Y-71340349D01*
X103202010Y-71330499D01*
X103205693Y-71321052D01*
X103209252Y-71312009D01*
X103212686Y-71303369D01*
X103215995Y-71295133D01*
X103219180Y-71287301D01*
X103222240Y-71279872D01*
X103225176Y-71272847D01*
X103229347Y-71263065D01*
X103233237Y-71254192D01*
X103236847Y-71246227D01*
X103240177Y-71239170D01*
X103244182Y-71231173D01*
X103249178Y-71221683D01*
X103254139Y-71212814D01*
X103259064Y-71204567D01*
X103263954Y-71196941D01*
X103268807Y-71189935D01*
X103273625Y-71183551D01*
X103278407Y-71177788D01*
X103285513Y-71170308D01*
X103292539Y-71164225D01*
X103299484Y-71159540D01*
X103306348Y-71156253D01*
X103315376Y-71154043D01*
X103319836Y-71153870D01*
X103327874Y-71154598D01*
X103335617Y-71156095D01*
X103343065Y-71158362D01*
X103350218Y-71161398D01*
X103357076Y-71165202D01*
X103363638Y-71169777D01*
X103366181Y-71171822D01*
X103372408Y-71177787D01*
X103377580Y-71184119D01*
X103381696Y-71190817D01*
X103384757Y-71197882D01*
X103386762Y-71205314D01*
X103387712Y-71213113D01*
X103387796Y-71216335D01*
X103387373Y-71224429D01*
X103386307Y-71231719D01*
X103384593Y-71239201D01*
X103382230Y-71246875D01*
X103381019Y-71250224D01*
G37*
G36*
X103972880Y-71435238D02*
G01*
X103964403Y-71434798D01*
X103956351Y-71433480D01*
X103948724Y-71431282D01*
X103941522Y-71428205D01*
X103934745Y-71424249D01*
X103928393Y-71419415D01*
X103922466Y-71413701D01*
X103916964Y-71407108D01*
X103911887Y-71399636D01*
X103907235Y-71391285D01*
X103904370Y-71385229D01*
X103901160Y-71378305D01*
X103897296Y-71371212D01*
X103892772Y-71364614D01*
X103887579Y-71359285D01*
X103883670Y-71356836D01*
X103876393Y-71354904D01*
X103868361Y-71353977D01*
X103859552Y-71353462D01*
X103850852Y-71353229D01*
X103843004Y-71353172D01*
X103834819Y-71353578D01*
X103826478Y-71354795D01*
X103817978Y-71356824D01*
X103809321Y-71359664D01*
X103800507Y-71363315D01*
X103791536Y-71367778D01*
X103782406Y-71373052D01*
X103773120Y-71379138D01*
X103763676Y-71386035D01*
X103754075Y-71393744D01*
X103744316Y-71402264D01*
X103734400Y-71411596D01*
X103724326Y-71421739D01*
X103719230Y-71427114D01*
X103714095Y-71432693D01*
X103708921Y-71438475D01*
X103703707Y-71444459D01*
X103698454Y-71450646D01*
X103693161Y-71457036D01*
X103685835Y-71466086D01*
X103678743Y-71475099D01*
X103671882Y-71484076D01*
X103665254Y-71493017D01*
X103658859Y-71501922D01*
X103652696Y-71510791D01*
X103646766Y-71519624D01*
X103641069Y-71528420D01*
X103635604Y-71537180D01*
X103630371Y-71545905D01*
X103625371Y-71554593D01*
X103620604Y-71563245D01*
X103616069Y-71571861D01*
X103611767Y-71580440D01*
X103607697Y-71588984D01*
X103603860Y-71597491D01*
X103600255Y-71605962D01*
X103596883Y-71614398D01*
X103593744Y-71622797D01*
X103590837Y-71631160D01*
X103588162Y-71639486D01*
X103585720Y-71647777D01*
X103583511Y-71656031D01*
X103581534Y-71664250D01*
X103579790Y-71672432D01*
X103578279Y-71680578D01*
X103577000Y-71688688D01*
X103575953Y-71696762D01*
X103575139Y-71704799D01*
X103574558Y-71712801D01*
X103574209Y-71720766D01*
X103574093Y-71728695D01*
X103574423Y-71739371D01*
X103575413Y-71749761D01*
X103577063Y-71759863D01*
X103579373Y-71769680D01*
X103582344Y-71779209D01*
X103585974Y-71788452D01*
X103590265Y-71797409D01*
X103595216Y-71806078D01*
X103600827Y-71814462D01*
X103607098Y-71822558D01*
X103611645Y-71827797D01*
X103618851Y-71835163D01*
X103626317Y-71841804D01*
X103634045Y-71847721D01*
X103642033Y-71852913D01*
X103650282Y-71857381D01*
X103658792Y-71861124D01*
X103667563Y-71864143D01*
X103676594Y-71866437D01*
X103685887Y-71868007D01*
X103695440Y-71868852D01*
X103701954Y-71869013D01*
X103711517Y-71868775D01*
X103721108Y-71868060D01*
X103730729Y-71866868D01*
X103740379Y-71865200D01*
X103750058Y-71863056D01*
X103759766Y-71860435D01*
X103769502Y-71857337D01*
X103779268Y-71853763D01*
X103789063Y-71849712D01*
X103798886Y-71845185D01*
X103805452Y-71841902D01*
X103812240Y-71838042D01*
X103819119Y-71833846D01*
X103827286Y-71828665D01*
X103834257Y-71824133D01*
X103841952Y-71819048D01*
X103850372Y-71813409D01*
X103859516Y-71807215D01*
X103866015Y-71802779D01*
X103872836Y-71798096D01*
X103879978Y-71793168D01*
X103883670Y-71790611D01*
X103891053Y-71785766D01*
X103898087Y-71781397D01*
X103904774Y-71777506D01*
X103913149Y-71773058D01*
X103920906Y-71769457D01*
X103928044Y-71766704D01*
X103936098Y-71764453D01*
X103944487Y-71763500D01*
X103952080Y-71763858D01*
X103959382Y-71764931D01*
X103968098Y-71767279D01*
X103976358Y-71770745D01*
X103984162Y-71775329D01*
X103990077Y-71779801D01*
X103995700Y-71784989D01*
X103997060Y-71786398D01*
X104002865Y-71793243D01*
X104007686Y-71800383D01*
X104011523Y-71807819D01*
X104014377Y-71815550D01*
X104016246Y-71823575D01*
X104017131Y-71831896D01*
X104017210Y-71835307D01*
X104016792Y-71842878D01*
X104015539Y-71850202D01*
X104013449Y-71857281D01*
X104010524Y-71864113D01*
X104006763Y-71870699D01*
X104002166Y-71877039D01*
X103996734Y-71883132D01*
X103990466Y-71888980D01*
X103981599Y-71896407D01*
X103972723Y-71903598D01*
X103963838Y-71910553D01*
X103954943Y-71917273D01*
X103946038Y-71923757D01*
X103937123Y-71930005D01*
X103928199Y-71936017D01*
X103919265Y-71941793D01*
X103910321Y-71947334D01*
X103901368Y-71952639D01*
X103892405Y-71957708D01*
X103883433Y-71962542D01*
X103874451Y-71967139D01*
X103865459Y-71971501D01*
X103856457Y-71975627D01*
X103847446Y-71979518D01*
X103838425Y-71983172D01*
X103829395Y-71986591D01*
X103820355Y-71989774D01*
X103811305Y-71992721D01*
X103802245Y-71995432D01*
X103793176Y-71997908D01*
X103784097Y-72000148D01*
X103775009Y-72002152D01*
X103765911Y-72003920D01*
X103756803Y-72005453D01*
X103747686Y-72006750D01*
X103738559Y-72007811D01*
X103729422Y-72008636D01*
X103720276Y-72009225D01*
X103711119Y-72009579D01*
X103701954Y-72009697D01*
X103687600Y-72009360D01*
X103673529Y-72008349D01*
X103659740Y-72006664D01*
X103646232Y-72004304D01*
X103633006Y-72001271D01*
X103620063Y-71997564D01*
X103607401Y-71993183D01*
X103595021Y-71988127D01*
X103582923Y-71982398D01*
X103571107Y-71975994D01*
X103559573Y-71968917D01*
X103548321Y-71961165D01*
X103537351Y-71952739D01*
X103526663Y-71943640D01*
X103516256Y-71933866D01*
X103506132Y-71923418D01*
X103496904Y-71912929D01*
X103488272Y-71902209D01*
X103480235Y-71891257D01*
X103472793Y-71880073D01*
X103465946Y-71868657D01*
X103459695Y-71857009D01*
X103454040Y-71845129D01*
X103448979Y-71833018D01*
X103444514Y-71820674D01*
X103440644Y-71808099D01*
X103437370Y-71795292D01*
X103434691Y-71782253D01*
X103432607Y-71768983D01*
X103431119Y-71755480D01*
X103430226Y-71741746D01*
X103429928Y-71727780D01*
X103430076Y-71716770D01*
X103430518Y-71705745D01*
X103431255Y-71694706D01*
X103432287Y-71683653D01*
X103433613Y-71672584D01*
X103435235Y-71661501D01*
X103437151Y-71650403D01*
X103439362Y-71639291D01*
X103441868Y-71628164D01*
X103444669Y-71617022D01*
X103447764Y-71605866D01*
X103451154Y-71594695D01*
X103454840Y-71583509D01*
X103458820Y-71572309D01*
X103463094Y-71561094D01*
X103467664Y-71549864D01*
X103472528Y-71538619D01*
X103477687Y-71527360D01*
X103483141Y-71516087D01*
X103488890Y-71504798D01*
X103494934Y-71493495D01*
X103501272Y-71482177D01*
X103507905Y-71470845D01*
X103514833Y-71459498D01*
X103522056Y-71448136D01*
X103529574Y-71436760D01*
X103537386Y-71425369D01*
X103545493Y-71413963D01*
X103553895Y-71402542D01*
X103562592Y-71391107D01*
X103571584Y-71379657D01*
X103580870Y-71368193D01*
X103588890Y-71358613D01*
X103596921Y-71349338D01*
X103604963Y-71340367D01*
X103613016Y-71331700D01*
X103621080Y-71323337D01*
X103629155Y-71315278D01*
X103637242Y-71307523D01*
X103645339Y-71300072D01*
X103653447Y-71292926D01*
X103661567Y-71286083D01*
X103669698Y-71279545D01*
X103677840Y-71273310D01*
X103685992Y-71267380D01*
X103694156Y-71261754D01*
X103702331Y-71256432D01*
X103710517Y-71251414D01*
X103718715Y-71246701D01*
X103726923Y-71242291D01*
X103735142Y-71238186D01*
X103743373Y-71234384D01*
X103751615Y-71230887D01*
X103759867Y-71227694D01*
X103768131Y-71224805D01*
X103776406Y-71222220D01*
X103784692Y-71219939D01*
X103792989Y-71217962D01*
X103801297Y-71216290D01*
X103809616Y-71214921D01*
X103817946Y-71213857D01*
X103826288Y-71213096D01*
X103834640Y-71212640D01*
X103843004Y-71212488D01*
X103851367Y-71212546D01*
X103859422Y-71212720D01*
X103867167Y-71213010D01*
X103874603Y-71213416D01*
X103882888Y-71214035D01*
X103884037Y-71214137D01*
X103891841Y-71214848D01*
X103899224Y-71215700D01*
X103907146Y-71216844D01*
X103914519Y-71218173D01*
X103916277Y-71218533D01*
X103923550Y-71213414D01*
X103931289Y-71209163D01*
X103939493Y-71205779D01*
X103948162Y-71203263D01*
X103955432Y-71201875D01*
X103963000Y-71201042D01*
X103970865Y-71200765D01*
X103980368Y-71201291D01*
X103989163Y-71202870D01*
X103997250Y-71205503D01*
X104004628Y-71209188D01*
X104011298Y-71213926D01*
X104017259Y-71219717D01*
X104022512Y-71226562D01*
X104027056Y-71234459D01*
X104030892Y-71243409D01*
X104034020Y-71253411D01*
X104035712Y-71260665D01*
X104037283Y-71268862D01*
X104038700Y-71277310D01*
X104039962Y-71286010D01*
X104041070Y-71294960D01*
X104042023Y-71304162D01*
X104042821Y-71313615D01*
X104043465Y-71323319D01*
X104043955Y-71333274D01*
X104044290Y-71343480D01*
X104044470Y-71353938D01*
X104044504Y-71361049D01*
X104044138Y-71368899D01*
X104043037Y-71376533D01*
X104041204Y-71383954D01*
X104038637Y-71391159D01*
X104035336Y-71398150D01*
X104031302Y-71404927D01*
X104029483Y-71407577D01*
X104024351Y-71414060D01*
X104018664Y-71419679D01*
X104012422Y-71424433D01*
X104005624Y-71428323D01*
X103998271Y-71431348D01*
X103990363Y-71433509D01*
X103981899Y-71434805D01*
X103972880Y-71435238D01*
G37*
D11*
%TO.C,TVS2*%
X112416668Y-73808690D02*
X112702382Y-73808690D01*
X112559525Y-74308690D02*
X112559525Y-73808690D01*
X112797620Y-73808690D02*
X112964286Y-74308690D01*
X112964286Y-74308690D02*
X113130953Y-73808690D01*
X113273810Y-74284880D02*
X113345238Y-74308690D01*
X113345238Y-74308690D02*
X113464286Y-74308690D01*
X113464286Y-74308690D02*
X113511905Y-74284880D01*
X113511905Y-74284880D02*
X113535714Y-74261071D01*
X113535714Y-74261071D02*
X113559524Y-74213452D01*
X113559524Y-74213452D02*
X113559524Y-74165833D01*
X113559524Y-74165833D02*
X113535714Y-74118214D01*
X113535714Y-74118214D02*
X113511905Y-74094404D01*
X113511905Y-74094404D02*
X113464286Y-74070595D01*
X113464286Y-74070595D02*
X113369048Y-74046785D01*
X113369048Y-74046785D02*
X113321429Y-74022976D01*
X113321429Y-74022976D02*
X113297619Y-73999166D01*
X113297619Y-73999166D02*
X113273810Y-73951547D01*
X113273810Y-73951547D02*
X113273810Y-73903928D01*
X113273810Y-73903928D02*
X113297619Y-73856309D01*
X113297619Y-73856309D02*
X113321429Y-73832500D01*
X113321429Y-73832500D02*
X113369048Y-73808690D01*
X113369048Y-73808690D02*
X113488095Y-73808690D01*
X113488095Y-73808690D02*
X113559524Y-73832500D01*
X113750000Y-73856309D02*
X113773809Y-73832500D01*
X113773809Y-73832500D02*
X113821428Y-73808690D01*
X113821428Y-73808690D02*
X113940476Y-73808690D01*
X113940476Y-73808690D02*
X113988095Y-73832500D01*
X113988095Y-73832500D02*
X114011904Y-73856309D01*
X114011904Y-73856309D02*
X114035714Y-73903928D01*
X114035714Y-73903928D02*
X114035714Y-73951547D01*
X114035714Y-73951547D02*
X114011904Y-74022976D01*
X114011904Y-74022976D02*
X113726190Y-74308690D01*
X113726190Y-74308690D02*
X114035714Y-74308690D01*
%TO.C,D1*%
X102300952Y-80683690D02*
X102300952Y-80183690D01*
X102300952Y-80183690D02*
X102420000Y-80183690D01*
X102420000Y-80183690D02*
X102491428Y-80207500D01*
X102491428Y-80207500D02*
X102539047Y-80255119D01*
X102539047Y-80255119D02*
X102562857Y-80302738D01*
X102562857Y-80302738D02*
X102586666Y-80397976D01*
X102586666Y-80397976D02*
X102586666Y-80469404D01*
X102586666Y-80469404D02*
X102562857Y-80564642D01*
X102562857Y-80564642D02*
X102539047Y-80612261D01*
X102539047Y-80612261D02*
X102491428Y-80659880D01*
X102491428Y-80659880D02*
X102420000Y-80683690D01*
X102420000Y-80683690D02*
X102300952Y-80683690D01*
X103062857Y-80683690D02*
X102777143Y-80683690D01*
X102920000Y-80683690D02*
X102920000Y-80183690D01*
X102920000Y-80183690D02*
X102872381Y-80255119D01*
X102872381Y-80255119D02*
X102824762Y-80302738D01*
X102824762Y-80302738D02*
X102777143Y-80326547D01*
%TO.C,TVS1*%
X109166668Y-73808690D02*
X109452382Y-73808690D01*
X109309525Y-74308690D02*
X109309525Y-73808690D01*
X109547620Y-73808690D02*
X109714286Y-74308690D01*
X109714286Y-74308690D02*
X109880953Y-73808690D01*
X110023810Y-74284880D02*
X110095238Y-74308690D01*
X110095238Y-74308690D02*
X110214286Y-74308690D01*
X110214286Y-74308690D02*
X110261905Y-74284880D01*
X110261905Y-74284880D02*
X110285714Y-74261071D01*
X110285714Y-74261071D02*
X110309524Y-74213452D01*
X110309524Y-74213452D02*
X110309524Y-74165833D01*
X110309524Y-74165833D02*
X110285714Y-74118214D01*
X110285714Y-74118214D02*
X110261905Y-74094404D01*
X110261905Y-74094404D02*
X110214286Y-74070595D01*
X110214286Y-74070595D02*
X110119048Y-74046785D01*
X110119048Y-74046785D02*
X110071429Y-74022976D01*
X110071429Y-74022976D02*
X110047619Y-73999166D01*
X110047619Y-73999166D02*
X110023810Y-73951547D01*
X110023810Y-73951547D02*
X110023810Y-73903928D01*
X110023810Y-73903928D02*
X110047619Y-73856309D01*
X110047619Y-73856309D02*
X110071429Y-73832500D01*
X110071429Y-73832500D02*
X110119048Y-73808690D01*
X110119048Y-73808690D02*
X110238095Y-73808690D01*
X110238095Y-73808690D02*
X110309524Y-73832500D01*
X110785714Y-74308690D02*
X110500000Y-74308690D01*
X110642857Y-74308690D02*
X110642857Y-73808690D01*
X110642857Y-73808690D02*
X110595238Y-73880119D01*
X110595238Y-73880119D02*
X110547619Y-73927738D01*
X110547619Y-73927738D02*
X110500000Y-73951547D01*
%TO.C,D2*%
X101180952Y-91508690D02*
X101180952Y-91008690D01*
X101180952Y-91008690D02*
X101300000Y-91008690D01*
X101300000Y-91008690D02*
X101371428Y-91032500D01*
X101371428Y-91032500D02*
X101419047Y-91080119D01*
X101419047Y-91080119D02*
X101442857Y-91127738D01*
X101442857Y-91127738D02*
X101466666Y-91222976D01*
X101466666Y-91222976D02*
X101466666Y-91294404D01*
X101466666Y-91294404D02*
X101442857Y-91389642D01*
X101442857Y-91389642D02*
X101419047Y-91437261D01*
X101419047Y-91437261D02*
X101371428Y-91484880D01*
X101371428Y-91484880D02*
X101300000Y-91508690D01*
X101300000Y-91508690D02*
X101180952Y-91508690D01*
X101657143Y-91056309D02*
X101680952Y-91032500D01*
X101680952Y-91032500D02*
X101728571Y-91008690D01*
X101728571Y-91008690D02*
X101847619Y-91008690D01*
X101847619Y-91008690D02*
X101895238Y-91032500D01*
X101895238Y-91032500D02*
X101919047Y-91056309D01*
X101919047Y-91056309D02*
X101942857Y-91103928D01*
X101942857Y-91103928D02*
X101942857Y-91151547D01*
X101942857Y-91151547D02*
X101919047Y-91222976D01*
X101919047Y-91222976D02*
X101633333Y-91508690D01*
X101633333Y-91508690D02*
X101942857Y-91508690D01*
%TO.C,J1*%
X109833333Y-93183690D02*
X109833333Y-93540833D01*
X109833333Y-93540833D02*
X109809524Y-93612261D01*
X109809524Y-93612261D02*
X109761905Y-93659880D01*
X109761905Y-93659880D02*
X109690476Y-93683690D01*
X109690476Y-93683690D02*
X109642857Y-93683690D01*
X110333333Y-93683690D02*
X110047619Y-93683690D01*
X110190476Y-93683690D02*
X110190476Y-93183690D01*
X110190476Y-93183690D02*
X110142857Y-93255119D01*
X110142857Y-93255119D02*
X110095238Y-93302738D01*
X110095238Y-93302738D02*
X110047619Y-93326547D01*
%TO.C,R1*%
X101466666Y-87408690D02*
X101300000Y-87170595D01*
X101180952Y-87408690D02*
X101180952Y-86908690D01*
X101180952Y-86908690D02*
X101371428Y-86908690D01*
X101371428Y-86908690D02*
X101419047Y-86932500D01*
X101419047Y-86932500D02*
X101442857Y-86956309D01*
X101442857Y-86956309D02*
X101466666Y-87003928D01*
X101466666Y-87003928D02*
X101466666Y-87075357D01*
X101466666Y-87075357D02*
X101442857Y-87122976D01*
X101442857Y-87122976D02*
X101419047Y-87146785D01*
X101419047Y-87146785D02*
X101371428Y-87170595D01*
X101371428Y-87170595D02*
X101180952Y-87170595D01*
X101942857Y-87408690D02*
X101657143Y-87408690D01*
X101800000Y-87408690D02*
X101800000Y-86908690D01*
X101800000Y-86908690D02*
X101752381Y-86980119D01*
X101752381Y-86980119D02*
X101704762Y-87027738D01*
X101704762Y-87027738D02*
X101657143Y-87051547D01*
%TO.C,Q1*%
X101327380Y-86231309D02*
X101279761Y-86207500D01*
X101279761Y-86207500D02*
X101232142Y-86159880D01*
X101232142Y-86159880D02*
X101160714Y-86088452D01*
X101160714Y-86088452D02*
X101113095Y-86064642D01*
X101113095Y-86064642D02*
X101065476Y-86064642D01*
X101089285Y-86183690D02*
X101041666Y-86159880D01*
X101041666Y-86159880D02*
X100994047Y-86112261D01*
X100994047Y-86112261D02*
X100970238Y-86017023D01*
X100970238Y-86017023D02*
X100970238Y-85850357D01*
X100970238Y-85850357D02*
X100994047Y-85755119D01*
X100994047Y-85755119D02*
X101041666Y-85707500D01*
X101041666Y-85707500D02*
X101089285Y-85683690D01*
X101089285Y-85683690D02*
X101184523Y-85683690D01*
X101184523Y-85683690D02*
X101232142Y-85707500D01*
X101232142Y-85707500D02*
X101279761Y-85755119D01*
X101279761Y-85755119D02*
X101303571Y-85850357D01*
X101303571Y-85850357D02*
X101303571Y-86017023D01*
X101303571Y-86017023D02*
X101279761Y-86112261D01*
X101279761Y-86112261D02*
X101232142Y-86159880D01*
X101232142Y-86159880D02*
X101184523Y-86183690D01*
X101184523Y-86183690D02*
X101089285Y-86183690D01*
X101779762Y-86183690D02*
X101494048Y-86183690D01*
X101636905Y-86183690D02*
X101636905Y-85683690D01*
X101636905Y-85683690D02*
X101589286Y-85755119D01*
X101589286Y-85755119D02*
X101541667Y-85802738D01*
X101541667Y-85802738D02*
X101494048Y-85826547D01*
%TO.C,R2*%
X104916666Y-84871190D02*
X104750000Y-84633095D01*
X104630952Y-84871190D02*
X104630952Y-84371190D01*
X104630952Y-84371190D02*
X104821428Y-84371190D01*
X104821428Y-84371190D02*
X104869047Y-84395000D01*
X104869047Y-84395000D02*
X104892857Y-84418809D01*
X104892857Y-84418809D02*
X104916666Y-84466428D01*
X104916666Y-84466428D02*
X104916666Y-84537857D01*
X104916666Y-84537857D02*
X104892857Y-84585476D01*
X104892857Y-84585476D02*
X104869047Y-84609285D01*
X104869047Y-84609285D02*
X104821428Y-84633095D01*
X104821428Y-84633095D02*
X104630952Y-84633095D01*
X105107143Y-84418809D02*
X105130952Y-84395000D01*
X105130952Y-84395000D02*
X105178571Y-84371190D01*
X105178571Y-84371190D02*
X105297619Y-84371190D01*
X105297619Y-84371190D02*
X105345238Y-84395000D01*
X105345238Y-84395000D02*
X105369047Y-84418809D01*
X105369047Y-84418809D02*
X105392857Y-84466428D01*
X105392857Y-84466428D02*
X105392857Y-84514047D01*
X105392857Y-84514047D02*
X105369047Y-84585476D01*
X105369047Y-84585476D02*
X105083333Y-84871190D01*
X105083333Y-84871190D02*
X105392857Y-84871190D01*
D12*
%TO.C,J2*%
X109825399Y-58454628D02*
X109825399Y-58883200D01*
X109825399Y-58883200D02*
X109796828Y-58968914D01*
X109796828Y-58968914D02*
X109739685Y-59026057D01*
X109739685Y-59026057D02*
X109653971Y-59054628D01*
X109653971Y-59054628D02*
X109596828Y-59054628D01*
X110082542Y-58511771D02*
X110111114Y-58483200D01*
X110111114Y-58483200D02*
X110168257Y-58454628D01*
X110168257Y-58454628D02*
X110311114Y-58454628D01*
X110311114Y-58454628D02*
X110368257Y-58483200D01*
X110368257Y-58483200D02*
X110396828Y-58511771D01*
X110396828Y-58511771D02*
X110425399Y-58568914D01*
X110425399Y-58568914D02*
X110425399Y-58626057D01*
X110425399Y-58626057D02*
X110396828Y-58711771D01*
X110396828Y-58711771D02*
X110053971Y-59054628D01*
X110053971Y-59054628D02*
X110425399Y-59054628D01*
D11*
%TO.C,U1*%
X109619047Y-80183690D02*
X109619047Y-80588452D01*
X109619047Y-80588452D02*
X109642857Y-80636071D01*
X109642857Y-80636071D02*
X109666666Y-80659880D01*
X109666666Y-80659880D02*
X109714285Y-80683690D01*
X109714285Y-80683690D02*
X109809523Y-80683690D01*
X109809523Y-80683690D02*
X109857142Y-80659880D01*
X109857142Y-80659880D02*
X109880952Y-80636071D01*
X109880952Y-80636071D02*
X109904761Y-80588452D01*
X109904761Y-80588452D02*
X109904761Y-80183690D01*
X110404762Y-80683690D02*
X110119048Y-80683690D01*
X110261905Y-80683690D02*
X110261905Y-80183690D01*
X110261905Y-80183690D02*
X110214286Y-80255119D01*
X110214286Y-80255119D02*
X110166667Y-80302738D01*
X110166667Y-80302738D02*
X110119048Y-80326547D01*
%TO.C,G\u002A\u002A\u002A*%
G36*
X117409078Y-77483869D02*
G01*
X117409078Y-77600904D01*
X116998907Y-77600904D01*
X116588735Y-77600904D01*
X116588735Y-77919197D01*
X116588735Y-78237490D01*
X116998907Y-78237490D01*
X117409078Y-78237490D01*
X117409078Y-78354526D01*
X117409078Y-78471561D01*
X116548265Y-78471561D01*
X115687452Y-78471561D01*
X115687452Y-78354526D01*
X115687452Y-78237490D01*
X116039653Y-78237490D01*
X116391853Y-78237490D01*
X116391853Y-77919197D01*
X116391853Y-77600904D01*
X116039653Y-77600904D01*
X115687452Y-77600904D01*
X115687452Y-77483869D01*
X115687452Y-77366833D01*
X116548265Y-77366833D01*
X117409078Y-77366833D01*
X117409078Y-77483869D01*
G37*
G36*
X119044266Y-79713122D02*
G01*
X119062109Y-79717583D01*
X119078230Y-79725271D01*
X119083705Y-79729024D01*
X119096443Y-79740453D01*
X119107389Y-79753757D01*
X119115510Y-79767617D01*
X119117439Y-79772207D01*
X119120675Y-79784085D01*
X119122678Y-79798130D01*
X119123296Y-79812436D01*
X119122377Y-79825100D01*
X119121894Y-79827762D01*
X119116245Y-79844651D01*
X119106967Y-79860624D01*
X119094806Y-79874727D01*
X119080507Y-79886003D01*
X119073272Y-79890049D01*
X119057147Y-79895939D01*
X119039228Y-79899157D01*
X119021379Y-79899440D01*
X119013766Y-79898521D01*
X118994703Y-79893249D01*
X118977487Y-79884547D01*
X118962538Y-79872893D01*
X118950278Y-79858761D01*
X118941129Y-79842627D01*
X118935510Y-79824968D01*
X118933822Y-79808236D01*
X118935930Y-79788224D01*
X118942026Y-79769379D01*
X118951772Y-79752231D01*
X118964828Y-79737310D01*
X118980853Y-79725145D01*
X118990319Y-79720052D01*
X119007379Y-79714261D01*
X119025692Y-79711983D01*
X119044266Y-79713122D01*
G37*
G36*
X119039842Y-78844610D02*
G01*
X119047541Y-78844983D01*
X119053505Y-78845932D01*
X119059053Y-78847720D01*
X119065505Y-78850615D01*
X119069903Y-78852767D01*
X119087236Y-78863634D01*
X119101488Y-78877345D01*
X119112426Y-78893428D01*
X119119819Y-78911407D01*
X119123435Y-78930808D01*
X119123043Y-78951157D01*
X119121801Y-78959006D01*
X119116185Y-78976911D01*
X119107100Y-78992736D01*
X119095059Y-79006217D01*
X119080574Y-79017089D01*
X119064159Y-79025085D01*
X119046326Y-79029941D01*
X119027587Y-79031391D01*
X119008456Y-79029170D01*
X118994322Y-79024997D01*
X118978669Y-79017020D01*
X118964225Y-79005734D01*
X118951852Y-78992041D01*
X118942413Y-78976844D01*
X118938161Y-78966271D01*
X118934318Y-78946988D01*
X118934591Y-78927819D01*
X118938742Y-78909285D01*
X118946532Y-78891911D01*
X118957721Y-78876220D01*
X118972070Y-78862735D01*
X118989340Y-78851979D01*
X118990699Y-78851320D01*
X118997356Y-78848299D01*
X119002965Y-78846338D01*
X119008810Y-78845211D01*
X119016177Y-78844689D01*
X119026350Y-78844547D01*
X119029087Y-78844544D01*
X119039842Y-78844610D01*
G37*
G36*
X119040813Y-75371080D02*
G01*
X119055095Y-75373305D01*
X119063641Y-75375907D01*
X119080848Y-75384982D01*
X119095584Y-75397255D01*
X119107548Y-75412128D01*
X119116438Y-75429001D01*
X119121956Y-75447273D01*
X119123799Y-75466346D01*
X119121667Y-75485619D01*
X119120680Y-75489660D01*
X119113482Y-75508433D01*
X119102724Y-75524709D01*
X119088550Y-75538316D01*
X119071106Y-75549082D01*
X119069940Y-75549643D01*
X119063265Y-75552676D01*
X119057712Y-75554673D01*
X119052047Y-75555849D01*
X119045032Y-75556419D01*
X119035433Y-75556599D01*
X119029970Y-75556610D01*
X119018984Y-75556555D01*
X119011118Y-75556225D01*
X119005117Y-75555375D01*
X118999725Y-75553758D01*
X118993687Y-75551130D01*
X118988117Y-75548415D01*
X118973123Y-75539236D01*
X118959588Y-75527563D01*
X118948450Y-75514355D01*
X118940642Y-75500567D01*
X118940135Y-75499333D01*
X118936770Y-75487078D01*
X118935026Y-75472440D01*
X118934936Y-75457116D01*
X118936535Y-75442800D01*
X118938853Y-75433765D01*
X118946291Y-75418298D01*
X118957135Y-75403622D01*
X118970447Y-75390676D01*
X118985289Y-75380400D01*
X118997812Y-75374671D01*
X119010477Y-75371731D01*
X119025376Y-75370544D01*
X119040813Y-75371080D01*
G37*
G36*
X119041681Y-76239265D02*
G01*
X119049260Y-76239812D01*
X119055347Y-76241055D01*
X119061380Y-76243267D01*
X119067264Y-76245979D01*
X119085190Y-76256842D01*
X119099975Y-76270475D01*
X119111397Y-76286437D01*
X119119231Y-76304288D01*
X119123256Y-76323588D01*
X119123248Y-76343897D01*
X119121801Y-76353598D01*
X119116073Y-76371665D01*
X119106537Y-76388088D01*
X119093618Y-76402325D01*
X119077741Y-76413834D01*
X119072128Y-76416842D01*
X119064789Y-76420386D01*
X119059032Y-76422733D01*
X119053602Y-76424129D01*
X119047242Y-76424821D01*
X119038696Y-76425055D01*
X119030189Y-76425080D01*
X119019035Y-76425005D01*
X119011018Y-76424638D01*
X119004901Y-76423761D01*
X118999447Y-76422158D01*
X118993419Y-76419613D01*
X118990133Y-76418076D01*
X118977557Y-76410755D01*
X118965190Y-76401161D01*
X118954347Y-76390448D01*
X118946341Y-76379770D01*
X118946115Y-76379389D01*
X118938276Y-76361897D01*
X118934419Y-76343515D01*
X118934408Y-76324840D01*
X118938110Y-76306470D01*
X118945392Y-76289003D01*
X118956119Y-76273035D01*
X118970158Y-76259166D01*
X118973614Y-76256502D01*
X118985529Y-76248705D01*
X118997101Y-76243497D01*
X119009673Y-76240475D01*
X119024590Y-76239231D01*
X119031169Y-76239141D01*
X119041681Y-76239265D01*
G37*
G36*
X116513811Y-74873537D02*
G01*
X118186763Y-74874085D01*
X118187311Y-78500547D01*
X118187858Y-82127009D01*
X116514358Y-82127009D01*
X114840858Y-82127009D01*
X114840858Y-79144243D01*
X114840858Y-76161476D01*
X114988520Y-76161476D01*
X115136182Y-76161476D01*
X115136182Y-78996581D01*
X115136182Y-81831685D01*
X116513264Y-81831685D01*
X117890346Y-81831685D01*
X117890346Y-78500000D01*
X117890346Y-75168315D01*
X117747606Y-75168373D01*
X117737282Y-75168372D01*
X117722716Y-75168363D01*
X117704040Y-75168345D01*
X117681389Y-75168319D01*
X117654896Y-75168286D01*
X117624692Y-75168245D01*
X117590912Y-75168196D01*
X117553689Y-75168141D01*
X117513156Y-75168078D01*
X117469445Y-75168009D01*
X117422691Y-75167933D01*
X117373025Y-75167852D01*
X117320582Y-75167764D01*
X117265494Y-75167670D01*
X117207895Y-75167571D01*
X117147917Y-75167467D01*
X117085694Y-75167358D01*
X117021358Y-75167243D01*
X116955043Y-75167125D01*
X116886883Y-75167001D01*
X116817009Y-75166874D01*
X116745556Y-75166743D01*
X116672656Y-75166608D01*
X116598443Y-75166470D01*
X116523049Y-75166328D01*
X116446608Y-75166183D01*
X116369252Y-75166036D01*
X116291116Y-75165886D01*
X116222862Y-75165754D01*
X114840858Y-75163076D01*
X114840858Y-75018032D01*
X114840858Y-74872988D01*
X116513811Y-74873537D01*
G37*
G36*
X119557282Y-78076703D02*
G01*
X119557282Y-78397184D01*
X119497671Y-78397118D01*
X119438059Y-78397052D01*
X119382276Y-78344237D01*
X119340283Y-78304548D01*
X119300318Y-78266919D01*
X119262476Y-78231435D01*
X119226847Y-78198181D01*
X119193525Y-78167240D01*
X119162602Y-78138699D01*
X119134171Y-78112642D01*
X119108324Y-78089154D01*
X119085153Y-78068319D01*
X119064752Y-78050223D01*
X119047212Y-78034951D01*
X119032626Y-78022586D01*
X119022823Y-78014588D01*
X118992974Y-77991590D01*
X118965354Y-77971926D01*
X118939604Y-77955399D01*
X118915369Y-77941810D01*
X118892291Y-77930964D01*
X118870014Y-77922664D01*
X118848182Y-77916711D01*
X118844131Y-77915845D01*
X118827234Y-77913311D01*
X118808026Y-77911960D01*
X118787809Y-77911766D01*
X118767887Y-77912704D01*
X118749563Y-77914749D01*
X118734140Y-77917875D01*
X118733709Y-77917992D01*
X118707688Y-77927269D01*
X118684353Y-77939946D01*
X118663843Y-77955866D01*
X118646294Y-77974874D01*
X118631845Y-77996813D01*
X118620633Y-78021526D01*
X118612796Y-78048857D01*
X118611212Y-78057032D01*
X118609307Y-78072290D01*
X118608242Y-78090469D01*
X118608018Y-78110200D01*
X118608633Y-78130110D01*
X118610085Y-78148828D01*
X118611290Y-78158457D01*
X118619444Y-78200023D01*
X118631829Y-78242605D01*
X118648430Y-78286163D01*
X118669232Y-78330655D01*
X118684089Y-78358437D01*
X118689615Y-78368372D01*
X118694286Y-78376894D01*
X118697724Y-78383306D01*
X118699553Y-78386909D01*
X118699751Y-78387422D01*
X118697648Y-78387665D01*
X118691682Y-78387886D01*
X118682362Y-78388080D01*
X118670200Y-78388238D01*
X118655706Y-78388354D01*
X118639392Y-78388420D01*
X118627873Y-78388433D01*
X118555995Y-78388433D01*
X118545994Y-78364917D01*
X118533793Y-78335342D01*
X118523563Y-78308443D01*
X118514982Y-78283170D01*
X118507726Y-78258473D01*
X118501472Y-78233303D01*
X118495898Y-78206610D01*
X118493768Y-78195168D01*
X118491823Y-78181508D01*
X118490220Y-78164537D01*
X118488989Y-78145306D01*
X118488161Y-78124869D01*
X118487770Y-78104277D01*
X118487844Y-78084584D01*
X118488417Y-78066842D01*
X118489502Y-78052276D01*
X118495492Y-78013038D01*
X118504837Y-77976021D01*
X118517402Y-77941393D01*
X118533053Y-77909320D01*
X118551655Y-77879969D01*
X118573073Y-77853506D01*
X118597173Y-77830098D01*
X118623820Y-77809911D01*
X118652879Y-77793113D01*
X118684216Y-77779870D01*
X118717251Y-77770447D01*
X118730352Y-77768261D01*
X118746579Y-77766662D01*
X118764723Y-77765676D01*
X118783571Y-77765324D01*
X118801912Y-77765632D01*
X118818534Y-77766624D01*
X118831375Y-77768179D01*
X118862321Y-77774888D01*
X118893109Y-77784800D01*
X118924114Y-77798090D01*
X118955711Y-77814935D01*
X118988273Y-77835513D01*
X119015928Y-77855274D01*
X119026066Y-77862971D01*
X119036497Y-77871111D01*
X119047392Y-77879848D01*
X119058923Y-77889338D01*
X119071263Y-77899738D01*
X119084583Y-77911203D01*
X119099056Y-77923888D01*
X119114853Y-77937949D01*
X119132147Y-77953542D01*
X119151110Y-77970822D01*
X119171913Y-77989946D01*
X119194730Y-78011069D01*
X119219731Y-78034347D01*
X119247089Y-78059935D01*
X119276976Y-78087989D01*
X119309564Y-78118665D01*
X119345026Y-78152118D01*
X119369074Y-78174837D01*
X119435872Y-78237969D01*
X119436428Y-77997096D01*
X119436985Y-77756223D01*
X119497134Y-77756223D01*
X119557282Y-77756223D01*
X119557282Y-78076703D01*
G37*
G36*
X118886242Y-81213212D02*
G01*
X118935158Y-81213315D01*
X118979913Y-81213414D01*
X119020724Y-81213513D01*
X119057805Y-81213618D01*
X119091372Y-81213734D01*
X119121640Y-81213865D01*
X119148823Y-81214017D01*
X119173138Y-81214195D01*
X119194799Y-81214403D01*
X119214021Y-81214647D01*
X119231020Y-81214932D01*
X119246011Y-81215262D01*
X119259209Y-81215643D01*
X119270829Y-81216079D01*
X119281086Y-81216576D01*
X119290196Y-81217138D01*
X119298374Y-81217771D01*
X119305835Y-81218480D01*
X119312794Y-81219269D01*
X119319466Y-81220143D01*
X119326066Y-81221108D01*
X119332811Y-81222169D01*
X119339914Y-81223330D01*
X119342713Y-81223792D01*
X119376824Y-81231127D01*
X119407838Y-81241407D01*
X119436002Y-81254749D01*
X119461558Y-81271275D01*
X119484754Y-81291101D01*
X119488374Y-81294701D01*
X119510941Y-81320717D01*
X119530382Y-81349701D01*
X119546620Y-81381488D01*
X119559581Y-81415910D01*
X119569190Y-81452801D01*
X119574667Y-81485990D01*
X119575626Y-81496940D01*
X119576272Y-81511103D01*
X119576613Y-81527427D01*
X119576657Y-81544858D01*
X119576412Y-81562345D01*
X119575886Y-81578836D01*
X119575086Y-81593277D01*
X119574020Y-81604617D01*
X119573772Y-81606450D01*
X119566906Y-81643015D01*
X119557268Y-81676693D01*
X119544594Y-81708178D01*
X119528620Y-81738169D01*
X119517268Y-81755845D01*
X119497927Y-81780828D01*
X119476299Y-81802430D01*
X119452182Y-81820770D01*
X119425372Y-81835967D01*
X119395667Y-81848144D01*
X119362864Y-81857419D01*
X119337431Y-81862333D01*
X119330117Y-81863498D01*
X119323200Y-81864564D01*
X119316464Y-81865535D01*
X119309694Y-81866417D01*
X119302672Y-81867213D01*
X119295183Y-81867930D01*
X119287010Y-81868571D01*
X119277937Y-81869142D01*
X119267749Y-81869648D01*
X119256229Y-81870094D01*
X119243160Y-81870484D01*
X119228327Y-81870823D01*
X119211513Y-81871117D01*
X119192502Y-81871370D01*
X119171079Y-81871586D01*
X119147027Y-81871772D01*
X119120129Y-81871932D01*
X119090170Y-81872070D01*
X119056933Y-81872192D01*
X119020202Y-81872303D01*
X118979762Y-81872407D01*
X118935395Y-81872509D01*
X118886886Y-81872615D01*
X118882961Y-81872623D01*
X118505056Y-81873435D01*
X118505056Y-81801152D01*
X118505056Y-81728869D01*
X118900461Y-81728831D01*
X118951098Y-81728822D01*
X118997555Y-81728804D01*
X119040027Y-81728772D01*
X119078710Y-81728725D01*
X119113797Y-81728660D01*
X119145486Y-81728573D01*
X119173970Y-81728461D01*
X119199445Y-81728322D01*
X119222106Y-81728153D01*
X119242148Y-81727951D01*
X119259766Y-81727713D01*
X119275156Y-81727435D01*
X119288512Y-81727116D01*
X119300030Y-81726751D01*
X119309905Y-81726339D01*
X119318332Y-81725876D01*
X119325506Y-81725359D01*
X119331622Y-81724786D01*
X119336876Y-81724153D01*
X119341462Y-81723457D01*
X119345576Y-81722696D01*
X119348368Y-81722103D01*
X119367549Y-81715746D01*
X119386299Y-81705595D01*
X119403929Y-81692224D01*
X119419752Y-81676208D01*
X119433078Y-81658119D01*
X119439968Y-81645741D01*
X119446665Y-81631154D01*
X119451725Y-81617719D01*
X119455387Y-81604344D01*
X119457893Y-81589938D01*
X119459481Y-81573406D01*
X119460394Y-81553657D01*
X119460420Y-81552769D01*
X119460636Y-81530032D01*
X119459751Y-81510508D01*
X119457623Y-81493142D01*
X119454107Y-81476878D01*
X119449061Y-81460659D01*
X119447270Y-81455758D01*
X119436678Y-81433060D01*
X119423000Y-81412580D01*
X119406685Y-81394795D01*
X119388180Y-81380182D01*
X119367935Y-81369219D01*
X119364703Y-81367890D01*
X119361239Y-81366515D01*
X119357990Y-81365253D01*
X119354765Y-81364100D01*
X119351370Y-81363049D01*
X119347613Y-81362097D01*
X119343301Y-81361236D01*
X119338240Y-81360462D01*
X119332240Y-81359771D01*
X119325105Y-81359155D01*
X119316645Y-81358612D01*
X119306666Y-81358134D01*
X119294975Y-81357716D01*
X119281380Y-81357355D01*
X119265688Y-81357043D01*
X119247706Y-81356776D01*
X119227241Y-81356549D01*
X119204101Y-81356357D01*
X119178093Y-81356193D01*
X119149024Y-81356054D01*
X119116701Y-81355933D01*
X119080931Y-81355825D01*
X119041523Y-81355726D01*
X118998283Y-81355629D01*
X118951018Y-81355529D01*
X118909212Y-81355443D01*
X118505056Y-81354599D01*
X118505056Y-81283508D01*
X118505056Y-81212416D01*
X118886242Y-81213212D01*
G37*
G36*
X119029404Y-80146353D02*
G01*
X118979876Y-80145377D01*
X118931296Y-80142808D01*
X118884616Y-80138670D01*
X118840791Y-80132986D01*
X118827910Y-80130910D01*
X118783205Y-80122004D01*
X118741061Y-80110910D01*
X118701858Y-80097753D01*
X118665977Y-80082657D01*
X118637810Y-80068076D01*
X118606045Y-80047730D01*
X118578005Y-80025091D01*
X118553690Y-80000162D01*
X118533104Y-79972945D01*
X118516247Y-79943443D01*
X118503123Y-79911659D01*
X118493734Y-79877596D01*
X118490777Y-79861834D01*
X118489122Y-79847862D01*
X118488066Y-79830902D01*
X118487604Y-79812232D01*
X118487688Y-79799783D01*
X118600647Y-79799783D01*
X118600840Y-79815512D01*
X118601996Y-79830319D01*
X118604094Y-79842573D01*
X118604245Y-79843175D01*
X118611907Y-79865675D01*
X118622912Y-79886340D01*
X118637338Y-79905205D01*
X118655257Y-79922310D01*
X118676744Y-79937691D01*
X118701875Y-79951388D01*
X118730724Y-79963437D01*
X118763366Y-79973876D01*
X118799875Y-79982743D01*
X118840326Y-79990077D01*
X118884793Y-79995914D01*
X118910852Y-79998488D01*
X118920090Y-79999149D01*
X118932829Y-79999833D01*
X118948193Y-80000508D01*
X118965309Y-80001137D01*
X118983303Y-80001685D01*
X119001301Y-80002118D01*
X119001637Y-80002125D01*
X119057439Y-80002419D01*
X119109997Y-80000972D01*
X119159203Y-79997799D01*
X119204949Y-79992917D01*
X119247128Y-79986340D01*
X119285630Y-79978085D01*
X119320348Y-79968167D01*
X119351175Y-79956601D01*
X119367306Y-79949106D01*
X119392814Y-79934274D01*
X119414553Y-79917405D01*
X119432463Y-79898612D01*
X119446485Y-79878009D01*
X119456559Y-79855712D01*
X119462624Y-79831834D01*
X119464622Y-79806489D01*
X119462492Y-79779792D01*
X119460776Y-79770223D01*
X119458788Y-79763264D01*
X119455366Y-79753934D01*
X119451087Y-79743749D01*
X119448674Y-79738533D01*
X119436902Y-79718567D01*
X119421544Y-79700326D01*
X119402549Y-79683790D01*
X119379863Y-79668937D01*
X119353433Y-79655747D01*
X119323206Y-79644198D01*
X119289129Y-79634270D01*
X119251148Y-79625942D01*
X119209211Y-79619191D01*
X119163263Y-79613998D01*
X119126572Y-79611141D01*
X119110570Y-79610356D01*
X119091311Y-79609817D01*
X119069547Y-79609511D01*
X119046028Y-79609429D01*
X119021505Y-79609560D01*
X118996730Y-79609894D01*
X118972452Y-79610419D01*
X118949424Y-79611126D01*
X118928396Y-79612003D01*
X118910118Y-79613040D01*
X118895343Y-79614227D01*
X118893352Y-79614430D01*
X118848773Y-79620035D01*
X118808246Y-79626994D01*
X118771649Y-79635351D01*
X118738861Y-79645152D01*
X118709759Y-79656439D01*
X118684221Y-79669257D01*
X118662125Y-79683650D01*
X118643350Y-79699661D01*
X118636114Y-79707226D01*
X118627897Y-79718007D01*
X118619696Y-79731566D01*
X118612286Y-79746374D01*
X118606444Y-79760900D01*
X118603248Y-79772078D01*
X118601442Y-79784761D01*
X118600647Y-79799783D01*
X118487688Y-79799783D01*
X118487733Y-79793128D01*
X118488451Y-79774868D01*
X118489753Y-79758728D01*
X118491082Y-79748947D01*
X118498140Y-79717410D01*
X118508168Y-79687247D01*
X118520848Y-79659234D01*
X118535865Y-79634151D01*
X118540490Y-79627698D01*
X118562785Y-79601471D01*
X118588797Y-79577504D01*
X118618490Y-79555810D01*
X118651827Y-79536399D01*
X118688772Y-79519286D01*
X118729288Y-79504481D01*
X118773339Y-79491996D01*
X118820889Y-79481844D01*
X118871901Y-79474038D01*
X118926339Y-79468588D01*
X118984166Y-79465507D01*
X119031169Y-79464756D01*
X119091107Y-79465885D01*
X119147810Y-79469356D01*
X119201221Y-79475154D01*
X119251282Y-79483261D01*
X119297937Y-79493663D01*
X119341127Y-79506342D01*
X119380797Y-79521283D01*
X119416888Y-79538469D01*
X119449344Y-79557884D01*
X119478107Y-79579513D01*
X119495991Y-79595939D01*
X119518312Y-79620844D01*
X119536839Y-79647259D01*
X119551780Y-79675598D01*
X119563345Y-79706275D01*
X119571744Y-79739703D01*
X119573444Y-79748947D01*
X119574988Y-79761357D01*
X119576051Y-79776923D01*
X119576630Y-79794457D01*
X119576726Y-79812771D01*
X119576336Y-79830675D01*
X119575459Y-79846980D01*
X119574094Y-79860497D01*
X119573568Y-79863957D01*
X119565614Y-79898814D01*
X119553920Y-79931412D01*
X119538497Y-79961743D01*
X119519356Y-79989799D01*
X119496509Y-80015572D01*
X119469966Y-80039056D01*
X119439738Y-80060242D01*
X119405838Y-80079122D01*
X119368275Y-80095689D01*
X119327062Y-80109935D01*
X119282209Y-80121852D01*
X119233727Y-80131433D01*
X119181628Y-80138670D01*
X119174128Y-80139487D01*
X119127484Y-80143432D01*
X119078924Y-80145713D01*
X119057439Y-80145991D01*
X119029404Y-80146353D01*
G37*
G36*
X118993257Y-76672294D02*
G01*
X118943372Y-76670169D01*
X118895180Y-76666372D01*
X118849638Y-76660903D01*
X118829912Y-76657838D01*
X118781825Y-76648290D01*
X118737253Y-76636378D01*
X118696225Y-76622123D01*
X118658772Y-76605542D01*
X118624925Y-76586654D01*
X118594714Y-76565478D01*
X118568170Y-76542032D01*
X118545323Y-76516335D01*
X118526204Y-76488405D01*
X118514003Y-76465307D01*
X118504030Y-76441212D01*
X118496580Y-76416784D01*
X118491473Y-76391111D01*
X118488528Y-76363284D01*
X118487564Y-76332391D01*
X118487564Y-76332107D01*
X118600667Y-76332107D01*
X118601760Y-76354145D01*
X118605253Y-76373564D01*
X118611508Y-76391619D01*
X118620888Y-76409564D01*
X118624919Y-76415964D01*
X118636042Y-76430108D01*
X118650636Y-76444286D01*
X118667852Y-76457852D01*
X118686840Y-76470158D01*
X118706748Y-76480558D01*
X118713970Y-76483709D01*
X118737290Y-76492512D01*
X118762146Y-76500252D01*
X118789045Y-76507037D01*
X118818493Y-76512974D01*
X118850998Y-76518170D01*
X118887066Y-76522733D01*
X118908665Y-76525018D01*
X118919235Y-76525800D01*
X118933531Y-76526458D01*
X118950904Y-76526991D01*
X118970708Y-76527401D01*
X118992293Y-76527686D01*
X119015012Y-76527846D01*
X119038218Y-76527881D01*
X119061261Y-76527791D01*
X119083496Y-76527576D01*
X119104272Y-76527236D01*
X119122944Y-76526770D01*
X119138862Y-76526178D01*
X119151379Y-76525460D01*
X119155861Y-76525084D01*
X119200090Y-76520059D01*
X119240235Y-76513951D01*
X119276458Y-76506718D01*
X119308926Y-76498317D01*
X119337802Y-76488706D01*
X119363251Y-76477845D01*
X119383248Y-76467033D01*
X119406645Y-76450754D01*
X119426119Y-76432645D01*
X119441635Y-76412766D01*
X119453163Y-76391174D01*
X119460669Y-76367926D01*
X119464121Y-76343079D01*
X119464060Y-76323935D01*
X119463106Y-76313370D01*
X119461604Y-76302566D01*
X119459867Y-76293756D01*
X119459754Y-76293309D01*
X119452132Y-76271073D01*
X119441109Y-76250637D01*
X119426614Y-76231964D01*
X119408573Y-76215017D01*
X119386915Y-76199757D01*
X119361568Y-76186148D01*
X119332459Y-76174151D01*
X119299516Y-76163729D01*
X119262668Y-76154845D01*
X119221841Y-76147461D01*
X119176964Y-76141539D01*
X119165705Y-76140344D01*
X119149747Y-76139052D01*
X119130158Y-76137998D01*
X119107674Y-76137182D01*
X119083034Y-76136604D01*
X119056975Y-76136265D01*
X119030235Y-76136164D01*
X119003550Y-76136301D01*
X118977658Y-76136676D01*
X118953297Y-76137290D01*
X118931203Y-76138142D01*
X118912115Y-76139232D01*
X118898821Y-76140344D01*
X118852542Y-76145998D01*
X118810332Y-76153163D01*
X118772143Y-76161871D01*
X118737927Y-76172152D01*
X118707636Y-76184037D01*
X118681223Y-76197558D01*
X118658638Y-76212743D01*
X118639834Y-76229626D01*
X118624764Y-76248236D01*
X118613378Y-76268605D01*
X118605629Y-76290763D01*
X118601470Y-76314741D01*
X118600667Y-76332107D01*
X118487564Y-76332107D01*
X118487564Y-76331946D01*
X118488594Y-76300138D01*
X118491818Y-76271351D01*
X118497417Y-76244723D01*
X118505570Y-76219390D01*
X118516053Y-76195317D01*
X118532988Y-76165677D01*
X118553640Y-76138334D01*
X118577993Y-76113299D01*
X118606035Y-76090578D01*
X118637753Y-76070181D01*
X118673134Y-76052116D01*
X118712164Y-76036393D01*
X118754831Y-76023019D01*
X118792536Y-76013809D01*
X118836938Y-76005550D01*
X118884487Y-75999177D01*
X118934381Y-75994689D01*
X118985820Y-75992087D01*
X119038001Y-75991370D01*
X119090124Y-75992538D01*
X119141387Y-75995591D01*
X119190989Y-76000527D01*
X119238130Y-76007348D01*
X119272701Y-76013981D01*
X119318300Y-76025382D01*
X119360244Y-76039142D01*
X119398525Y-76055258D01*
X119433139Y-76073724D01*
X119464078Y-76094534D01*
X119491338Y-76117683D01*
X119514911Y-76143166D01*
X119534792Y-76170978D01*
X119550975Y-76201113D01*
X119563453Y-76233567D01*
X119572220Y-76268333D01*
X119573444Y-76275069D01*
X119575269Y-76289703D01*
X119576410Y-76307394D01*
X119576875Y-76326880D01*
X119576672Y-76346900D01*
X119575808Y-76366189D01*
X119574291Y-76383487D01*
X119572718Y-76394454D01*
X119564504Y-76428794D01*
X119552483Y-76460997D01*
X119536684Y-76491029D01*
X119517138Y-76518857D01*
X119493872Y-76544446D01*
X119466918Y-76567764D01*
X119436303Y-76588777D01*
X119402058Y-76607452D01*
X119375713Y-76619208D01*
X119337886Y-76633011D01*
X119296654Y-76644866D01*
X119252603Y-76654614D01*
X119234614Y-76657838D01*
X119190605Y-76664073D01*
X119143508Y-76668637D01*
X119094281Y-76671528D01*
X119043879Y-76672747D01*
X119038218Y-76672696D01*
X118993257Y-76672294D01*
G37*
G36*
X119009941Y-75804430D02*
G01*
X118959241Y-75802758D01*
X118909354Y-75799278D01*
X118860973Y-75793972D01*
X118830273Y-75789472D01*
X118784867Y-75780651D01*
X118742137Y-75769421D01*
X118702262Y-75755872D01*
X118665423Y-75740096D01*
X118631800Y-75722183D01*
X118601573Y-75702222D01*
X118574924Y-75680305D01*
X118552031Y-75656521D01*
X118543278Y-75645598D01*
X118525458Y-75618542D01*
X118510685Y-75588826D01*
X118499278Y-75557213D01*
X118491556Y-75524462D01*
X118490896Y-75520515D01*
X118489250Y-75506620D01*
X118488165Y-75489858D01*
X118487641Y-75471460D01*
X118487657Y-75463638D01*
X118600667Y-75463638D01*
X118602419Y-75489668D01*
X118607737Y-75513307D01*
X118616763Y-75534836D01*
X118629639Y-75554536D01*
X118646508Y-75572686D01*
X118662894Y-75586220D01*
X118684744Y-75600498D01*
X118709836Y-75613197D01*
X118738323Y-75624364D01*
X118770359Y-75634044D01*
X118806096Y-75642282D01*
X118845687Y-75649124D01*
X118889286Y-75654616D01*
X118894445Y-75655152D01*
X118910047Y-75656445D01*
X118929224Y-75657565D01*
X118951181Y-75658500D01*
X118975121Y-75659238D01*
X119000247Y-75659768D01*
X119025765Y-75660077D01*
X119050876Y-75660155D01*
X119074786Y-75659989D01*
X119096697Y-75659569D01*
X119115813Y-75658882D01*
X119123126Y-75658493D01*
X119172520Y-75654622D01*
X119217878Y-75649162D01*
X119259247Y-75642089D01*
X119296676Y-75633378D01*
X119330216Y-75623003D01*
X119359914Y-75610940D01*
X119385819Y-75597163D01*
X119407981Y-75581649D01*
X119426448Y-75564372D01*
X119441270Y-75545307D01*
X119452495Y-75524430D01*
X119460173Y-75501715D01*
X119463348Y-75485514D01*
X119464280Y-75473180D01*
X119464103Y-75458508D01*
X119462927Y-75443363D01*
X119460861Y-75429609D01*
X119459791Y-75424840D01*
X119451821Y-75401856D01*
X119440047Y-75380731D01*
X119424441Y-75361449D01*
X119404977Y-75343993D01*
X119381629Y-75328346D01*
X119354372Y-75314491D01*
X119323179Y-75302413D01*
X119288024Y-75292094D01*
X119248881Y-75283517D01*
X119234830Y-75281024D01*
X119214999Y-75277857D01*
X119196126Y-75275219D01*
X119177552Y-75273067D01*
X119158619Y-75271360D01*
X119138670Y-75270054D01*
X119117047Y-75269108D01*
X119093092Y-75268479D01*
X119066147Y-75268125D01*
X119035555Y-75268004D01*
X119032263Y-75268003D01*
X119001269Y-75268103D01*
X118973988Y-75268432D01*
X118949763Y-75269031D01*
X118927936Y-75269944D01*
X118907849Y-75271212D01*
X118888844Y-75272877D01*
X118870264Y-75274982D01*
X118851450Y-75277569D01*
X118831745Y-75280681D01*
X118829696Y-75281024D01*
X118790450Y-75288764D01*
X118754739Y-75298202D01*
X118722663Y-75309292D01*
X118694325Y-75321988D01*
X118669826Y-75336246D01*
X118649268Y-75352022D01*
X118634106Y-75367614D01*
X118619803Y-75388109D01*
X118609465Y-75410452D01*
X118603093Y-75434640D01*
X118600689Y-75460666D01*
X118600667Y-75463638D01*
X118487657Y-75463638D01*
X118487679Y-75452654D01*
X118488279Y-75434669D01*
X118489441Y-75418736D01*
X118490892Y-75407594D01*
X118498678Y-75372902D01*
X118509716Y-75340990D01*
X118524170Y-75311538D01*
X118542203Y-75284227D01*
X118563981Y-75258736D01*
X118570781Y-75251872D01*
X118596410Y-75229430D01*
X118625173Y-75209259D01*
X118657237Y-75191274D01*
X118692766Y-75175394D01*
X118731929Y-75161533D01*
X118774167Y-75149786D01*
X118816017Y-75140866D01*
X118861089Y-75133747D01*
X118908665Y-75128427D01*
X118958028Y-75124906D01*
X119008460Y-75123180D01*
X119059243Y-75123250D01*
X119109659Y-75125112D01*
X119158991Y-75128765D01*
X119206520Y-75134208D01*
X119251529Y-75141440D01*
X119293300Y-75150457D01*
X119295460Y-75150997D01*
X119339420Y-75163685D01*
X119379646Y-75178648D01*
X119416146Y-75195893D01*
X119448930Y-75215429D01*
X119478006Y-75237263D01*
X119503382Y-75261403D01*
X119525066Y-75287857D01*
X119543067Y-75316631D01*
X119557393Y-75347735D01*
X119568052Y-75381175D01*
X119573444Y-75406599D01*
X119575269Y-75421233D01*
X119576410Y-75438924D01*
X119576875Y-75458411D01*
X119576672Y-75478430D01*
X119575808Y-75497720D01*
X119574291Y-75515017D01*
X119572718Y-75525984D01*
X119564509Y-75560356D01*
X119552519Y-75592542D01*
X119536769Y-75622526D01*
X119517277Y-75650288D01*
X119494064Y-75675811D01*
X119467149Y-75699078D01*
X119436552Y-75720071D01*
X119402293Y-75738772D01*
X119364392Y-75755164D01*
X119322867Y-75769228D01*
X119292405Y-75777495D01*
X119251381Y-75786295D01*
X119207012Y-75793395D01*
X119159990Y-75798776D01*
X119111009Y-75802421D01*
X119060762Y-75804311D01*
X119050876Y-75804334D01*
X119009941Y-75804430D01*
G37*
G36*
X118976222Y-79277057D02*
G01*
X118925153Y-79274125D01*
X118875757Y-79269336D01*
X118828839Y-79262690D01*
X118791825Y-79255650D01*
X118746930Y-79244398D01*
X118705435Y-79230768D01*
X118667391Y-79214800D01*
X118632853Y-79196535D01*
X118601872Y-79176013D01*
X118574503Y-79153274D01*
X118550797Y-79128359D01*
X118530808Y-79101308D01*
X118514589Y-79072162D01*
X118502193Y-79040961D01*
X118499664Y-79032729D01*
X118494607Y-79013171D01*
X118491044Y-78994049D01*
X118488805Y-78974047D01*
X118487726Y-78951848D01*
X118487564Y-78937355D01*
X118487746Y-78931432D01*
X118600637Y-78931432D01*
X118600844Y-78947176D01*
X118602028Y-78961974D01*
X118604164Y-78974202D01*
X118604293Y-78974705D01*
X118612090Y-78997682D01*
X118623043Y-79018362D01*
X118637370Y-79036989D01*
X118655291Y-79053808D01*
X118677025Y-79069062D01*
X118700810Y-79082037D01*
X118723501Y-79092098D01*
X118747957Y-79100943D01*
X118774605Y-79108670D01*
X118803871Y-79115378D01*
X118836183Y-79121163D01*
X118871968Y-79126123D01*
X118911653Y-79130357D01*
X118911946Y-79130384D01*
X118923369Y-79131189D01*
X118938486Y-79131858D01*
X118956620Y-79132391D01*
X118977092Y-79132789D01*
X118999222Y-79133051D01*
X119022334Y-79133177D01*
X119045748Y-79133167D01*
X119068787Y-79133021D01*
X119090771Y-79132739D01*
X119111022Y-79132321D01*
X119128862Y-79131765D01*
X119143612Y-79131073D01*
X119152580Y-79130435D01*
X119199940Y-79125286D01*
X119243248Y-79118566D01*
X119282540Y-79110264D01*
X119317852Y-79100367D01*
X119349221Y-79088861D01*
X119376682Y-79075733D01*
X119400272Y-79060972D01*
X119420027Y-79044564D01*
X119431366Y-79032367D01*
X119440117Y-79020148D01*
X119448251Y-79005745D01*
X119455025Y-78990693D01*
X119459697Y-78976530D01*
X119460816Y-78971424D01*
X119462256Y-78963356D01*
X119463513Y-78956279D01*
X119464121Y-78952829D01*
X119464547Y-78946669D01*
X119464409Y-78937551D01*
X119463799Y-78926843D01*
X119462806Y-78915913D01*
X119461522Y-78906130D01*
X119460729Y-78901754D01*
X119458646Y-78894332D01*
X119455239Y-78884816D01*
X119451169Y-78875013D01*
X119450243Y-78872983D01*
X119438302Y-78852132D01*
X119422730Y-78833224D01*
X119403424Y-78816171D01*
X119380279Y-78800887D01*
X119353192Y-78787287D01*
X119341430Y-78782377D01*
X119313813Y-78772686D01*
X119282888Y-78764224D01*
X119248419Y-78756941D01*
X119210169Y-78750788D01*
X119167903Y-78745715D01*
X119167893Y-78745714D01*
X119152127Y-78744424D01*
X119132715Y-78743368D01*
X119110384Y-78742545D01*
X119085857Y-78741955D01*
X119059858Y-78741598D01*
X119033112Y-78741474D01*
X119006343Y-78741583D01*
X118980276Y-78741926D01*
X118955634Y-78742501D01*
X118933142Y-78743309D01*
X118913525Y-78744351D01*
X118897507Y-78745625D01*
X118896633Y-78745714D01*
X118851797Y-78751189D01*
X118811013Y-78758023D01*
X118774160Y-78766257D01*
X118741117Y-78775935D01*
X118711764Y-78787100D01*
X118685979Y-78799795D01*
X118663641Y-78814064D01*
X118644629Y-78829950D01*
X118636114Y-78838756D01*
X118627897Y-78849537D01*
X118619696Y-78863097D01*
X118612286Y-78877905D01*
X118606444Y-78892430D01*
X118603248Y-78903609D01*
X118601430Y-78916368D01*
X118600637Y-78931432D01*
X118487746Y-78931432D01*
X118488511Y-78906458D01*
X118491503Y-78878578D01*
X118496742Y-78852764D01*
X118504432Y-78828066D01*
X118514775Y-78803532D01*
X118517158Y-78798605D01*
X118534050Y-78769224D01*
X118554593Y-78742161D01*
X118578795Y-78717412D01*
X118606663Y-78694972D01*
X118638205Y-78674840D01*
X118673429Y-78657011D01*
X118712342Y-78641481D01*
X118754952Y-78628248D01*
X118801267Y-78617308D01*
X118851294Y-78608657D01*
X118905041Y-78602292D01*
X118956791Y-78598505D01*
X119008740Y-78596661D01*
X119060039Y-78596686D01*
X119110225Y-78598534D01*
X119158834Y-78602155D01*
X119205403Y-78607502D01*
X119249467Y-78614528D01*
X119290562Y-78623183D01*
X119328226Y-78633420D01*
X119343993Y-78638551D01*
X119383863Y-78653977D01*
X119419911Y-78671504D01*
X119452176Y-78691172D01*
X119480694Y-78713020D01*
X119505503Y-78737089D01*
X119526642Y-78763417D01*
X119544147Y-78792045D01*
X119558056Y-78823012D01*
X119568407Y-78856358D01*
X119573444Y-78880478D01*
X119575269Y-78895111D01*
X119576410Y-78912802D01*
X119576875Y-78932289D01*
X119576672Y-78952308D01*
X119575808Y-78971598D01*
X119574291Y-78988896D01*
X119572718Y-78999862D01*
X119564521Y-79034136D01*
X119552532Y-79066253D01*
X119536777Y-79096190D01*
X119517286Y-79123923D01*
X119494086Y-79149429D01*
X119467203Y-79172683D01*
X119436666Y-79193663D01*
X119402503Y-79212345D01*
X119364740Y-79228706D01*
X119323405Y-79242721D01*
X119278527Y-79254368D01*
X119272701Y-79255650D01*
X119228496Y-79263860D01*
X119181135Y-79270214D01*
X119131421Y-79274710D01*
X119080162Y-79277350D01*
X119028160Y-79278132D01*
X119022334Y-79278011D01*
X118976222Y-79277057D01*
G37*
G36*
X119220451Y-77529327D02*
G01*
X119170831Y-77535012D01*
X119117320Y-77539010D01*
X119101172Y-77539854D01*
X119040998Y-77541448D01*
X118983284Y-77540409D01*
X118928194Y-77536763D01*
X118875889Y-77530532D01*
X118826534Y-77521744D01*
X118780291Y-77510421D01*
X118737324Y-77496588D01*
X118697796Y-77480271D01*
X118693660Y-77478323D01*
X118657008Y-77458713D01*
X118623837Y-77436532D01*
X118594185Y-77411822D01*
X118568087Y-77384626D01*
X118545580Y-77354984D01*
X118526701Y-77322939D01*
X118511487Y-77288534D01*
X118501672Y-77258228D01*
X118497581Y-77242550D01*
X118494433Y-77228394D01*
X118492090Y-77214693D01*
X118490413Y-77200376D01*
X118489263Y-77184372D01*
X118488501Y-77165613D01*
X118488217Y-77154638D01*
X118487967Y-77129168D01*
X118488519Y-77106762D01*
X118489987Y-77086163D01*
X118492485Y-77066115D01*
X118496128Y-77045360D01*
X118499642Y-77028746D01*
X118503046Y-77014800D01*
X118507339Y-76999126D01*
X118512147Y-76982941D01*
X118517096Y-76967462D01*
X118521812Y-76953904D01*
X118525662Y-76944083D01*
X118529178Y-76935880D01*
X118594959Y-76935880D01*
X118611375Y-76935932D01*
X118626245Y-76936080D01*
X118639044Y-76936310D01*
X118649246Y-76936609D01*
X118656324Y-76936964D01*
X118659752Y-76937361D01*
X118659989Y-76937520D01*
X118658734Y-76940038D01*
X118655928Y-76945563D01*
X118652022Y-76953212D01*
X118648587Y-76959913D01*
X118632596Y-76995503D01*
X118620633Y-77032228D01*
X118612627Y-77070388D01*
X118608508Y-77110283D01*
X118607872Y-77134298D01*
X118609301Y-77167753D01*
X118613666Y-77198295D01*
X118621085Y-77226355D01*
X118631676Y-77252368D01*
X118645557Y-77276766D01*
X118647540Y-77279739D01*
X118665732Y-77302734D01*
X118687641Y-77323665D01*
X118713084Y-77342458D01*
X118741883Y-77359040D01*
X118773856Y-77373336D01*
X118808822Y-77385273D01*
X118846602Y-77394776D01*
X118887014Y-77401773D01*
X118929879Y-77406188D01*
X118960073Y-77407671D01*
X119002731Y-77408883D01*
X118984794Y-77397979D01*
X118956432Y-77378424D01*
X118931739Y-77356500D01*
X118910739Y-77332259D01*
X118893456Y-77305751D01*
X118879916Y-77277028D01*
X118870141Y-77246141D01*
X118864158Y-77213143D01*
X118863156Y-77196943D01*
X118973925Y-77196943D01*
X118976555Y-77224844D01*
X118982923Y-77251251D01*
X118992899Y-77275842D01*
X119006355Y-77298295D01*
X119023162Y-77318286D01*
X119041977Y-77334602D01*
X119062965Y-77348666D01*
X119084679Y-77360092D01*
X119107729Y-77369062D01*
X119132724Y-77375759D01*
X119160274Y-77380364D01*
X119190989Y-77383060D01*
X119206299Y-77383708D01*
X119231962Y-77384032D01*
X119254539Y-77383273D01*
X119275208Y-77381320D01*
X119295150Y-77378060D01*
X119315544Y-77373382D01*
X119315555Y-77373379D01*
X119345336Y-77363814D01*
X119372209Y-77351317D01*
X119396025Y-77336040D01*
X119416634Y-77318134D01*
X119433887Y-77297750D01*
X119447634Y-77275039D01*
X119457726Y-77250151D01*
X119463965Y-77223547D01*
X119464586Y-77216364D01*
X119464819Y-77206070D01*
X119464707Y-77193714D01*
X119464295Y-77180346D01*
X119463627Y-77167014D01*
X119462745Y-77154768D01*
X119461695Y-77144658D01*
X119460519Y-77137732D01*
X119460355Y-77137105D01*
X119451501Y-77111394D01*
X119440206Y-77089083D01*
X119426244Y-77069798D01*
X119409535Y-77053288D01*
X119390168Y-77039468D01*
X119367255Y-77027468D01*
X119341310Y-77017481D01*
X119312848Y-77009699D01*
X119282384Y-77004317D01*
X119277117Y-77003663D01*
X119264560Y-77002627D01*
X119248966Y-77002008D01*
X119231300Y-77001782D01*
X119212528Y-77001927D01*
X119193616Y-77002421D01*
X119175528Y-77003242D01*
X119159231Y-77004367D01*
X119145689Y-77005775D01*
X119138637Y-77006865D01*
X119108382Y-77013844D01*
X119081705Y-77022858D01*
X119058217Y-77034101D01*
X119037531Y-77047763D01*
X119019256Y-77064037D01*
X119016065Y-77067396D01*
X119002858Y-77083725D01*
X118992419Y-77101440D01*
X118984475Y-77121214D01*
X118978752Y-77143721D01*
X118975163Y-77167871D01*
X118973925Y-77196943D01*
X118863156Y-77196943D01*
X118861989Y-77178084D01*
X118863579Y-77141869D01*
X118868967Y-77103225D01*
X118877735Y-77067357D01*
X118889887Y-77034261D01*
X118905425Y-77003933D01*
X118924354Y-76976369D01*
X118946675Y-76951562D01*
X118972393Y-76929510D01*
X119001511Y-76910207D01*
X119034032Y-76893649D01*
X119038826Y-76891563D01*
X119067017Y-76880995D01*
X119096855Y-76872736D01*
X119128860Y-76866696D01*
X119163555Y-76862785D01*
X119201461Y-76860912D01*
X119217114Y-76860715D01*
X119247589Y-76861088D01*
X119274778Y-76862513D01*
X119299674Y-76865123D01*
X119323268Y-76869053D01*
X119346553Y-76874440D01*
X119370520Y-76881416D01*
X119371338Y-76881676D01*
X119405679Y-76894750D01*
X119437291Y-76911144D01*
X119466042Y-76930730D01*
X119491799Y-76953379D01*
X119514432Y-76978962D01*
X119533807Y-77007350D01*
X119549793Y-77038415D01*
X119560360Y-77066041D01*
X119564905Y-77080727D01*
X119568470Y-77094430D01*
X119571177Y-77108038D01*
X119573147Y-77122440D01*
X119574502Y-77138525D01*
X119575361Y-77157182D01*
X119575846Y-77179300D01*
X119575853Y-77179795D01*
X119576018Y-77194893D01*
X119576091Y-77208852D01*
X119576075Y-77220971D01*
X119575971Y-77230548D01*
X119575783Y-77236882D01*
X119575628Y-77238860D01*
X119568847Y-77275770D01*
X119559582Y-77309315D01*
X119547677Y-77339836D01*
X119532973Y-77367671D01*
X119515316Y-77393162D01*
X119494547Y-77416647D01*
X119492913Y-77418284D01*
X119469748Y-77438914D01*
X119443730Y-77457536D01*
X119414730Y-77474188D01*
X119382618Y-77488912D01*
X119347264Y-77501748D01*
X119308538Y-77512735D01*
X119266310Y-77521915D01*
X119231962Y-77527467D01*
X119220451Y-77529327D01*
G37*
G36*
X116566392Y-81332834D02*
G01*
X116550453Y-81332884D01*
X116474818Y-81331919D01*
X116402969Y-81328954D01*
X116334789Y-81323966D01*
X116270164Y-81316936D01*
X116208977Y-81307843D01*
X116151112Y-81296666D01*
X116096455Y-81283386D01*
X116044890Y-81267982D01*
X115996300Y-81250433D01*
X115950571Y-81230719D01*
X115937930Y-81224644D01*
X115906868Y-81208497D01*
X115879163Y-81192149D01*
X115853822Y-81174916D01*
X115829853Y-81156112D01*
X115806265Y-81135055D01*
X115801561Y-81130566D01*
X115772118Y-81099746D01*
X115746299Y-81067429D01*
X115723955Y-81033315D01*
X115704938Y-80997099D01*
X115689098Y-80958480D01*
X115676287Y-80917155D01*
X115666358Y-80872821D01*
X115661944Y-80846180D01*
X115660603Y-80834151D01*
X115659523Y-80818708D01*
X115658709Y-80800721D01*
X115658166Y-80781054D01*
X115657901Y-80760576D01*
X115657903Y-80757801D01*
X115847070Y-80757801D01*
X115847462Y-80777952D01*
X115848632Y-80796697D01*
X115850425Y-80811642D01*
X115854237Y-80830099D01*
X115859792Y-80849816D01*
X115866579Y-80869296D01*
X115874090Y-80887042D01*
X115879972Y-80898454D01*
X115894742Y-80921353D01*
X115911969Y-80942597D01*
X115931775Y-80962226D01*
X115954283Y-80980281D01*
X115979613Y-80996802D01*
X116007890Y-81011830D01*
X116039234Y-81025405D01*
X116073769Y-81037567D01*
X116111616Y-81048356D01*
X116152898Y-81057814D01*
X116197737Y-81065980D01*
X116246256Y-81072895D01*
X116298576Y-81078599D01*
X116354821Y-81083133D01*
X116415111Y-81086536D01*
X116454199Y-81088084D01*
X116518091Y-81089573D01*
X116580743Y-81089712D01*
X116641810Y-81088527D01*
X116700950Y-81086044D01*
X116757817Y-81082288D01*
X116812067Y-81077285D01*
X116863356Y-81071061D01*
X116911340Y-81063642D01*
X116955675Y-81055053D01*
X116983594Y-81048550D01*
X117023664Y-81037341D01*
X117059821Y-81024780D01*
X117092351Y-81010751D01*
X117121538Y-80995139D01*
X117134537Y-80986987D01*
X117147625Y-80977330D01*
X117161766Y-80965166D01*
X117176078Y-80951406D01*
X117189676Y-80936957D01*
X117201677Y-80922731D01*
X117211195Y-80909635D01*
X117213823Y-80905409D01*
X117228651Y-80876164D01*
X117239990Y-80845100D01*
X117247481Y-80813264D01*
X117249091Y-80802429D01*
X117250384Y-80787897D01*
X117251081Y-80770652D01*
X117251180Y-80752319D01*
X117250682Y-80734518D01*
X117249583Y-80718873D01*
X117249147Y-80714926D01*
X117242954Y-80681042D01*
X117232859Y-80649011D01*
X117218749Y-80618496D01*
X117213823Y-80609768D01*
X117204703Y-80596273D01*
X117192726Y-80581528D01*
X117178819Y-80566482D01*
X117163907Y-80552083D01*
X117148916Y-80539281D01*
X117135631Y-80529586D01*
X117107966Y-80513114D01*
X117077441Y-80498225D01*
X117043862Y-80484860D01*
X117007033Y-80472964D01*
X116966759Y-80462479D01*
X116922846Y-80453348D01*
X116875097Y-80445513D01*
X116827182Y-80439353D01*
X116777574Y-80434484D01*
X116724566Y-80430688D01*
X116668978Y-80427965D01*
X116611633Y-80426311D01*
X116553351Y-80425727D01*
X116494953Y-80426210D01*
X116437261Y-80427758D01*
X116381096Y-80430370D01*
X116327279Y-80434045D01*
X116276631Y-80438780D01*
X116261692Y-80440465D01*
X116210125Y-80447537D01*
X116161843Y-80456210D01*
X116116989Y-80466441D01*
X116075700Y-80478189D01*
X116038118Y-80491415D01*
X116004381Y-80506076D01*
X115974630Y-80522132D01*
X115967178Y-80526779D01*
X115939467Y-80547095D01*
X115915154Y-80570111D01*
X115894343Y-80595667D01*
X115877141Y-80623605D01*
X115863652Y-80653764D01*
X115853982Y-80685986D01*
X115850549Y-80703197D01*
X115848615Y-80718996D01*
X115847455Y-80737673D01*
X115847070Y-80757801D01*
X115657903Y-80757801D01*
X115657918Y-80740154D01*
X115658223Y-80720654D01*
X115658822Y-80702943D01*
X115659719Y-80687888D01*
X115660880Y-80676643D01*
X115669333Y-80628547D01*
X115680824Y-80583526D01*
X115695429Y-80541438D01*
X115713222Y-80502139D01*
X115734276Y-80465487D01*
X115758667Y-80431340D01*
X115786468Y-80399554D01*
X115817754Y-80369988D01*
X115822954Y-80365566D01*
X115859469Y-80337575D01*
X115899470Y-80311924D01*
X115942976Y-80288609D01*
X115990008Y-80267624D01*
X116040587Y-80248966D01*
X116094733Y-80232628D01*
X116152467Y-80218606D01*
X116213809Y-80206895D01*
X116278779Y-80197491D01*
X116347398Y-80190388D01*
X116419686Y-80185581D01*
X116495664Y-80183066D01*
X116575352Y-80182837D01*
X116586548Y-80182984D01*
X116627033Y-80183773D01*
X116663923Y-80184907D01*
X116697989Y-80186440D01*
X116730001Y-80188424D01*
X116760732Y-80190913D01*
X116790950Y-80193961D01*
X116821427Y-80197621D01*
X116846870Y-80201077D01*
X116910963Y-80211610D01*
X116971353Y-80224463D01*
X117028047Y-80239644D01*
X117081057Y-80257162D01*
X117130391Y-80277023D01*
X117176059Y-80299235D01*
X117218071Y-80323806D01*
X117256437Y-80350745D01*
X117291165Y-80380058D01*
X117322267Y-80411753D01*
X117349751Y-80445838D01*
X117373626Y-80482322D01*
X117393904Y-80521210D01*
X117410593Y-80562512D01*
X117423702Y-80606235D01*
X117433242Y-80652387D01*
X117436437Y-80674455D01*
X117437977Y-80689673D01*
X117439221Y-80707981D01*
X117440146Y-80728235D01*
X117440723Y-80749293D01*
X117440927Y-80770009D01*
X117440731Y-80789241D01*
X117440109Y-80805845D01*
X117439624Y-80812881D01*
X117433772Y-80860922D01*
X117424467Y-80906852D01*
X117411773Y-80950498D01*
X117395758Y-80991683D01*
X117376484Y-81030231D01*
X117354018Y-81065967D01*
X117337490Y-81087908D01*
X117327607Y-81099358D01*
X117315245Y-81112504D01*
X117301347Y-81126437D01*
X117286855Y-81140248D01*
X117272713Y-81153030D01*
X117259865Y-81163874D01*
X117253363Y-81168928D01*
X117215330Y-81194868D01*
X117173936Y-81218544D01*
X117129140Y-81239966D01*
X117080903Y-81259142D01*
X117029186Y-81276083D01*
X116973949Y-81290796D01*
X116915152Y-81303293D01*
X116852756Y-81313581D01*
X116786722Y-81321670D01*
X116717009Y-81327569D01*
X116643579Y-81331287D01*
X116580743Y-81332546D01*
X116566392Y-81332834D01*
G37*
G36*
X119271803Y-80336585D02*
G01*
X119289252Y-80336658D01*
X119303114Y-80336851D01*
X119314177Y-80337216D01*
X119323229Y-80337804D01*
X119331056Y-80338667D01*
X119338448Y-80339855D01*
X119346190Y-80341422D01*
X119346408Y-80341469D01*
X119380646Y-80350597D01*
X119411627Y-80362457D01*
X119439625Y-80377196D01*
X119464912Y-80394959D01*
X119487763Y-80415895D01*
X119490602Y-80418893D01*
X119510197Y-80442434D01*
X119527142Y-80468273D01*
X119541577Y-80496730D01*
X119553643Y-80528126D01*
X119563481Y-80562782D01*
X119571232Y-80601018D01*
X119571698Y-80603829D01*
X119572783Y-80612858D01*
X119573743Y-80625478D01*
X119574566Y-80640905D01*
X119575237Y-80658357D01*
X119575744Y-80677051D01*
X119576071Y-80696202D01*
X119576205Y-80715029D01*
X119576133Y-80732749D01*
X119575841Y-80748577D01*
X119575316Y-80761732D01*
X119574623Y-80770709D01*
X119572587Y-80786407D01*
X119569631Y-80805038D01*
X119565996Y-80825318D01*
X119561918Y-80845961D01*
X119557637Y-80865681D01*
X119554733Y-80877900D01*
X119551297Y-80890756D01*
X119546834Y-80905981D01*
X119541679Y-80922558D01*
X119536166Y-80939471D01*
X119530630Y-80955704D01*
X119525407Y-80970242D01*
X119520829Y-80982069D01*
X119518933Y-80986545D01*
X119513772Y-80998217D01*
X119438180Y-80998217D01*
X119420487Y-80998192D01*
X119404265Y-80998119D01*
X119390012Y-80998005D01*
X119378226Y-80997856D01*
X119369405Y-80997678D01*
X119364047Y-80997477D01*
X119362588Y-80997297D01*
X119363666Y-80995163D01*
X119366567Y-80990176D01*
X119370787Y-80983189D01*
X119373713Y-80978438D01*
X119391231Y-80948316D01*
X119407420Y-80916770D01*
X119421905Y-80884687D01*
X119434311Y-80852956D01*
X119444264Y-80822463D01*
X119451249Y-80794772D01*
X119456208Y-80765946D01*
X119459476Y-80735626D01*
X119460997Y-80705093D01*
X119460717Y-80675630D01*
X119458579Y-80648518D01*
X119457817Y-80642735D01*
X119451645Y-80611338D01*
X119442571Y-80582758D01*
X119430688Y-80557147D01*
X119416090Y-80534653D01*
X119398872Y-80515425D01*
X119379126Y-80499614D01*
X119361494Y-80489486D01*
X119347505Y-80483129D01*
X119334770Y-80478498D01*
X119322107Y-80475350D01*
X119308335Y-80473441D01*
X119292273Y-80472527D01*
X119278366Y-80472349D01*
X119263629Y-80472483D01*
X119252035Y-80472977D01*
X119242359Y-80473943D01*
X119233377Y-80475495D01*
X119226334Y-80477117D01*
X119202553Y-80484704D01*
X119181874Y-80495000D01*
X119163897Y-80508331D01*
X119148219Y-80525024D01*
X119134440Y-80545405D01*
X119128128Y-80557101D01*
X119123561Y-80566468D01*
X119119397Y-80575728D01*
X119115501Y-80585337D01*
X119111738Y-80595751D01*
X119107972Y-80607427D01*
X119104068Y-80620818D01*
X119099891Y-80636383D01*
X119095305Y-80654576D01*
X119090175Y-80675854D01*
X119084366Y-80700673D01*
X119080326Y-80718207D01*
X119069163Y-80762514D01*
X119056896Y-80802691D01*
X119043409Y-80838871D01*
X119028587Y-80871187D01*
X119012314Y-80899772D01*
X118994474Y-80924758D01*
X118974950Y-80946277D01*
X118953629Y-80964463D01*
X118930393Y-80979449D01*
X118905127Y-80991366D01*
X118877714Y-81000347D01*
X118848041Y-81006525D01*
X118826347Y-81009209D01*
X118791411Y-81010617D01*
X118756709Y-81008449D01*
X118722836Y-81002839D01*
X118690388Y-80993921D01*
X118659962Y-80981830D01*
X118632154Y-80966700D01*
X118628973Y-80964655D01*
X118600035Y-80943165D01*
X118574273Y-80918684D01*
X118551730Y-80891274D01*
X118532450Y-80860999D01*
X118516476Y-80827922D01*
X118503851Y-80792105D01*
X118499743Y-80777004D01*
X118493330Y-80745036D01*
X118489243Y-80710181D01*
X118487485Y-80673260D01*
X118488061Y-80635096D01*
X118490975Y-80596509D01*
X118496231Y-80558322D01*
X118498589Y-80545388D01*
X118501418Y-80531922D01*
X118504958Y-80516791D01*
X118509046Y-80500547D01*
X118513516Y-80483742D01*
X118518206Y-80466928D01*
X118522953Y-80450657D01*
X118527592Y-80435482D01*
X118531959Y-80421954D01*
X118535891Y-80410625D01*
X118539225Y-80402048D01*
X118541797Y-80396775D01*
X118543073Y-80395338D01*
X118545796Y-80395123D01*
X118552353Y-80394961D01*
X118562203Y-80394853D01*
X118574806Y-80394804D01*
X118589622Y-80394815D01*
X118606109Y-80394889D01*
X118616008Y-80394961D01*
X118686455Y-80395539D01*
X118676534Y-80411946D01*
X118654351Y-80452198D01*
X118635931Y-80493252D01*
X118621428Y-80534692D01*
X118610995Y-80576100D01*
X118606662Y-80601403D01*
X118605142Y-80616113D01*
X118604229Y-80633346D01*
X118603902Y-80652035D01*
X118604142Y-80671109D01*
X118604928Y-80689500D01*
X118606240Y-80706140D01*
X118608057Y-80719959D01*
X118608990Y-80724770D01*
X118617330Y-80754629D01*
X118628435Y-80781470D01*
X118642186Y-80805160D01*
X118658465Y-80825566D01*
X118677154Y-80842557D01*
X118698137Y-80856001D01*
X118721294Y-80865766D01*
X118739058Y-80870407D01*
X118752668Y-80872250D01*
X118768813Y-80873061D01*
X118786018Y-80872883D01*
X118802811Y-80871755D01*
X118817718Y-80869721D01*
X118825537Y-80867976D01*
X118842224Y-80862285D01*
X118857401Y-80854600D01*
X118871220Y-80844673D01*
X118883835Y-80832257D01*
X118895398Y-80817103D01*
X118906065Y-80798963D01*
X118915987Y-80777589D01*
X118925319Y-80752733D01*
X118934214Y-80724146D01*
X118942825Y-80691582D01*
X118947907Y-80670080D01*
X118954875Y-80640042D01*
X118961265Y-80613800D01*
X118967233Y-80590834D01*
X118972936Y-80570628D01*
X118978529Y-80552663D01*
X118984169Y-80536422D01*
X118990010Y-80521386D01*
X118996209Y-80507037D01*
X118998409Y-80502260D01*
X119015488Y-80469540D01*
X119034405Y-80440719D01*
X119055353Y-80415638D01*
X119078530Y-80394143D01*
X119104128Y-80376075D01*
X119132345Y-80361277D01*
X119163374Y-80349594D01*
X119197411Y-80340867D01*
X119199613Y-80340422D01*
X119207335Y-80339072D01*
X119215610Y-80338059D01*
X119225182Y-80337343D01*
X119236796Y-80336884D01*
X119251195Y-80336644D01*
X119269125Y-80336582D01*
X119271803Y-80336585D01*
G37*
G36*
X116985570Y-78785133D02*
G01*
X117028152Y-78788980D01*
X117068086Y-78795462D01*
X117105866Y-78804686D01*
X117141990Y-78816757D01*
X117176953Y-78831779D01*
X117185863Y-78836156D01*
X117213049Y-78850915D01*
X117237230Y-78866466D01*
X117259773Y-78883770D01*
X117281859Y-78903609D01*
X117309823Y-78932837D01*
X117334698Y-78964016D01*
X117356691Y-78997511D01*
X117376010Y-79033685D01*
X117392863Y-79072903D01*
X117407458Y-79115528D01*
X117412277Y-79132056D01*
X117421071Y-79168040D01*
X117428408Y-79207418D01*
X117434218Y-79249433D01*
X117438431Y-79293329D01*
X117440978Y-79338351D01*
X117441790Y-79383743D01*
X117440796Y-79428748D01*
X117440388Y-79437378D01*
X117436912Y-79482536D01*
X117431091Y-79530295D01*
X117423102Y-79579684D01*
X117413123Y-79629729D01*
X117401330Y-79679458D01*
X117387901Y-79727898D01*
X117386786Y-79731608D01*
X117382038Y-79746718D01*
X117376343Y-79763908D01*
X117370035Y-79782240D01*
X117363452Y-79800776D01*
X117356930Y-79818578D01*
X117350805Y-79834708D01*
X117345415Y-79848228D01*
X117342370Y-79855387D01*
X117337129Y-79867238D01*
X117214504Y-79867238D01*
X117185071Y-79867199D01*
X117159534Y-79867084D01*
X117137964Y-79866894D01*
X117120434Y-79866630D01*
X117107015Y-79866293D01*
X117097779Y-79865885D01*
X117092799Y-79865407D01*
X117091879Y-79865059D01*
X117092958Y-79862557D01*
X117095951Y-79856971D01*
X117100490Y-79848954D01*
X117106209Y-79839154D01*
X117111597Y-79830119D01*
X117142897Y-79775232D01*
X117170097Y-79721334D01*
X117193292Y-79668171D01*
X117212577Y-79615490D01*
X117228047Y-79563036D01*
X117239797Y-79510556D01*
X117246191Y-79471286D01*
X117247997Y-79454704D01*
X117249405Y-79434858D01*
X117250397Y-79412841D01*
X117250958Y-79389749D01*
X117251070Y-79366675D01*
X117250718Y-79344713D01*
X117249885Y-79324958D01*
X117248628Y-79309179D01*
X117242596Y-79266598D01*
X117233913Y-79227407D01*
X117222523Y-79191477D01*
X117208375Y-79158678D01*
X117191413Y-79128880D01*
X117171585Y-79101953D01*
X117155517Y-79084284D01*
X117130492Y-79062070D01*
X117103148Y-79043557D01*
X117073517Y-79028756D01*
X117041628Y-79017677D01*
X117007511Y-79010329D01*
X116971195Y-79006722D01*
X116932710Y-79006865D01*
X116921857Y-79007556D01*
X116887232Y-79011614D01*
X116855571Y-79018404D01*
X116826688Y-79028081D01*
X116800394Y-79040801D01*
X116776501Y-79056719D01*
X116754822Y-79075991D01*
X116735169Y-79098774D01*
X116717354Y-79125223D01*
X116701190Y-79155493D01*
X116686489Y-79189742D01*
X116679499Y-79208776D01*
X116676615Y-79217114D01*
X116673965Y-79224988D01*
X116671455Y-79232766D01*
X116668991Y-79240814D01*
X116666480Y-79249498D01*
X116663826Y-79259186D01*
X116660937Y-79270244D01*
X116657717Y-79283039D01*
X116654073Y-79297937D01*
X116649911Y-79315305D01*
X116645137Y-79335510D01*
X116639656Y-79358918D01*
X116633374Y-79385897D01*
X116627008Y-79413315D01*
X116620543Y-79440749D01*
X116614663Y-79464691D01*
X116609143Y-79485950D01*
X116603763Y-79505333D01*
X116598298Y-79523648D01*
X116592527Y-79541704D01*
X116587588Y-79556367D01*
X116569854Y-79603727D01*
X116550542Y-79647076D01*
X116529568Y-79686517D01*
X116506847Y-79722151D01*
X116482297Y-79754080D01*
X116455834Y-79782405D01*
X116427373Y-79807228D01*
X116396832Y-79828650D01*
X116364128Y-79846773D01*
X116339729Y-79857621D01*
X116315323Y-79866254D01*
X116287720Y-79873871D01*
X116258033Y-79880185D01*
X116242004Y-79882879D01*
X116229078Y-79884677D01*
X116216680Y-79885973D01*
X116203685Y-79886833D01*
X116188966Y-79887326D01*
X116171399Y-79887518D01*
X116164345Y-79887527D01*
X116120085Y-79886195D01*
X116078763Y-79882173D01*
X116039772Y-79875332D01*
X116002503Y-79865545D01*
X115966348Y-79852684D01*
X115936836Y-79839624D01*
X115898489Y-79818760D01*
X115862463Y-79794294D01*
X115828900Y-79766419D01*
X115797941Y-79735326D01*
X115769729Y-79701208D01*
X115744404Y-79664256D01*
X115722108Y-79624662D01*
X115702983Y-79582617D01*
X115687170Y-79538315D01*
X115674810Y-79491947D01*
X115672495Y-79481130D01*
X115663616Y-79427746D01*
X115658483Y-79372719D01*
X115657103Y-79315981D01*
X115659483Y-79257469D01*
X115665629Y-79197116D01*
X115675549Y-79134858D01*
X115689248Y-79070628D01*
X115706734Y-79004361D01*
X115728013Y-78935991D01*
X115728235Y-78935329D01*
X115732929Y-78921408D01*
X115737236Y-78908874D01*
X115740944Y-78898324D01*
X115743841Y-78890355D01*
X115745714Y-78885566D01*
X115746276Y-78884448D01*
X115748705Y-78884144D01*
X115755101Y-78883878D01*
X115765058Y-78883655D01*
X115778168Y-78883478D01*
X115794023Y-78883351D01*
X115812216Y-78883278D01*
X115832340Y-78883263D01*
X115853987Y-78883308D01*
X115865066Y-78883354D01*
X115982264Y-78883920D01*
X115963905Y-78914547D01*
X115934771Y-78966886D01*
X115909649Y-79019953D01*
X115888607Y-79073551D01*
X115871713Y-79127486D01*
X115859032Y-79181560D01*
X115850632Y-79235579D01*
X115849252Y-79248603D01*
X115848233Y-79263371D01*
X115847650Y-79281117D01*
X115847482Y-79300832D01*
X115847706Y-79321506D01*
X115848300Y-79342129D01*
X115849240Y-79361693D01*
X115850505Y-79379188D01*
X115852073Y-79393604D01*
X115852556Y-79396908D01*
X115860499Y-79436351D01*
X115871483Y-79473244D01*
X115885407Y-79507424D01*
X115902171Y-79538729D01*
X115921675Y-79566995D01*
X115943820Y-79592060D01*
X115968505Y-79613761D01*
X115995630Y-79631935D01*
X115997628Y-79633077D01*
X116024865Y-79646056D01*
X116054604Y-79655728D01*
X116086383Y-79662007D01*
X116119736Y-79664802D01*
X116154202Y-79664025D01*
X116157665Y-79663749D01*
X116190627Y-79659455D01*
X116220350Y-79652360D01*
X116247053Y-79642348D01*
X116270952Y-79629305D01*
X116292263Y-79613113D01*
X116311203Y-79593658D01*
X116326072Y-79573760D01*
X116333567Y-79561395D01*
X116341853Y-79545900D01*
X116350430Y-79528328D01*
X116358799Y-79509730D01*
X116366461Y-79491157D01*
X116370848Y-79479529D01*
X116375792Y-79465441D01*
X116380508Y-79451088D01*
X116385135Y-79435951D01*
X116389814Y-79419507D01*
X116394684Y-79401236D01*
X116399885Y-79380617D01*
X116405557Y-79357130D01*
X116411841Y-79330254D01*
X116416904Y-79308150D01*
X116423949Y-79277454D01*
X116430279Y-79250516D01*
X116436048Y-79226803D01*
X116441404Y-79205782D01*
X116446501Y-79186923D01*
X116451489Y-79169693D01*
X116456518Y-79153561D01*
X116461741Y-79137994D01*
X116467309Y-79122460D01*
X116473372Y-79106428D01*
X116476540Y-79098303D01*
X116496422Y-79052174D01*
X116518295Y-79009916D01*
X116542225Y-78971468D01*
X116568279Y-78936774D01*
X116596523Y-78905774D01*
X116627020Y-78878410D01*
X116659839Y-78854624D01*
X116695043Y-78834358D01*
X116732700Y-78817552D01*
X116772874Y-78804149D01*
X116815632Y-78794089D01*
X116819525Y-78793361D01*
X116839392Y-78789987D01*
X116858036Y-78787448D01*
X116876603Y-78785654D01*
X116896239Y-78784512D01*
X116918088Y-78783933D01*
X116939842Y-78783817D01*
X116985570Y-78785133D01*
G37*
G36*
X114414944Y-75396613D02*
G01*
X114417266Y-75397124D01*
X114423732Y-75398533D01*
X114434208Y-75400813D01*
X114448563Y-75403933D01*
X114466665Y-75407866D01*
X114488381Y-75412582D01*
X114513578Y-75418054D01*
X114542124Y-75424252D01*
X114573888Y-75431148D01*
X114608736Y-75438713D01*
X114646536Y-75446917D01*
X114687156Y-75455734D01*
X114730463Y-75465133D01*
X114776326Y-75475086D01*
X114824611Y-75485565D01*
X114875187Y-75496540D01*
X114927921Y-75507983D01*
X114982681Y-75519866D01*
X115039334Y-75532158D01*
X115097748Y-75544833D01*
X115157790Y-75557861D01*
X115219329Y-75571213D01*
X115282232Y-75584861D01*
X115346366Y-75598776D01*
X115411600Y-75612929D01*
X115477801Y-75627291D01*
X115544836Y-75641835D01*
X115612573Y-75656530D01*
X115680880Y-75671349D01*
X115749624Y-75686263D01*
X115818674Y-75701242D01*
X115887896Y-75716259D01*
X115957159Y-75731284D01*
X116026329Y-75746289D01*
X116095276Y-75761246D01*
X116163866Y-75776124D01*
X116231966Y-75790897D01*
X116299445Y-75805534D01*
X116366171Y-75820008D01*
X116432010Y-75834289D01*
X116496831Y-75848349D01*
X116560501Y-75862159D01*
X116622888Y-75875691D01*
X116683860Y-75888915D01*
X116743283Y-75901803D01*
X116801026Y-75914327D01*
X116856957Y-75926457D01*
X116910943Y-75938165D01*
X116962851Y-75949422D01*
X117012550Y-75960199D01*
X117059907Y-75970469D01*
X117104789Y-75980201D01*
X117147065Y-75989368D01*
X117186602Y-75997940D01*
X117223267Y-76005889D01*
X117256928Y-76013186D01*
X117287453Y-76019803D01*
X117314710Y-76025710D01*
X117338566Y-76030880D01*
X117358888Y-76035282D01*
X117375546Y-76038890D01*
X117388405Y-76041673D01*
X117397334Y-76043603D01*
X117402200Y-76044652D01*
X117403062Y-76044836D01*
X117409078Y-76046081D01*
X117409078Y-76156088D01*
X117409078Y-76266095D01*
X117389937Y-76270498D01*
X117386037Y-76271392D01*
X117378071Y-76273217D01*
X117366237Y-76275927D01*
X117350731Y-76279478D01*
X117331754Y-76283822D01*
X117309502Y-76288916D01*
X117284174Y-76294714D01*
X117255968Y-76301171D01*
X117225082Y-76308240D01*
X117191714Y-76315878D01*
X117156063Y-76324037D01*
X117118327Y-76332674D01*
X117078703Y-76341743D01*
X117037390Y-76351198D01*
X116994586Y-76360994D01*
X116950489Y-76371086D01*
X116905297Y-76381428D01*
X116880176Y-76387177D01*
X116827382Y-76399269D01*
X116777023Y-76410825D01*
X116729218Y-76421816D01*
X116684084Y-76432216D01*
X116641739Y-76441996D01*
X116602302Y-76451129D01*
X116565890Y-76459587D01*
X116532621Y-76467343D01*
X116502614Y-76474369D01*
X116475986Y-76480638D01*
X116452856Y-76486122D01*
X116433341Y-76490793D01*
X116417559Y-76494624D01*
X116405630Y-76497586D01*
X116397669Y-76499654D01*
X116393797Y-76500798D01*
X116393439Y-76501019D01*
X116395906Y-76501644D01*
X116402448Y-76503194D01*
X116412875Y-76505626D01*
X116426993Y-76508895D01*
X116444613Y-76512958D01*
X116465543Y-76517772D01*
X116489592Y-76523292D01*
X116516568Y-76529474D01*
X116546280Y-76536276D01*
X116578536Y-76543652D01*
X116613146Y-76551560D01*
X116649918Y-76559955D01*
X116688661Y-76568794D01*
X116729183Y-76578033D01*
X116771294Y-76587628D01*
X116814801Y-76597535D01*
X116859514Y-76607711D01*
X116882965Y-76613046D01*
X116928463Y-76623395D01*
X116972983Y-76633522D01*
X117016327Y-76643382D01*
X117058293Y-76652929D01*
X117098681Y-76662117D01*
X117137293Y-76670902D01*
X117173928Y-76679238D01*
X117208385Y-76687078D01*
X117240466Y-76694379D01*
X117269970Y-76701093D01*
X117296697Y-76707177D01*
X117320448Y-76712583D01*
X117341021Y-76717267D01*
X117358219Y-76721184D01*
X117371840Y-76724287D01*
X117381684Y-76726531D01*
X117387553Y-76727871D01*
X117388843Y-76728167D01*
X117409078Y-76732827D01*
X117409078Y-76841881D01*
X117409039Y-76865394D01*
X117408924Y-76886787D01*
X117408740Y-76905729D01*
X117408494Y-76921893D01*
X117408190Y-76934948D01*
X117407835Y-76944565D01*
X117407435Y-76950415D01*
X117407067Y-76952178D01*
X117404824Y-76952563D01*
X117398432Y-76953568D01*
X117388067Y-76955166D01*
X117373909Y-76957329D01*
X117356133Y-76960032D01*
X117334919Y-76963248D01*
X117310442Y-76966950D01*
X117282882Y-76971112D01*
X117252416Y-76975707D01*
X117219221Y-76980708D01*
X117183475Y-76986089D01*
X117145356Y-76991823D01*
X117105041Y-76997884D01*
X117062707Y-77004245D01*
X117018534Y-77010880D01*
X116972697Y-77017761D01*
X116925375Y-77024863D01*
X116876745Y-77032158D01*
X116826986Y-77039621D01*
X116776273Y-77047224D01*
X116724786Y-77054941D01*
X116672702Y-77062745D01*
X116620198Y-77070610D01*
X116567453Y-77078509D01*
X116514643Y-77086416D01*
X116461946Y-77094304D01*
X116409540Y-77102146D01*
X116357603Y-77109915D01*
X116306312Y-77117586D01*
X116255845Y-77125132D01*
X116206379Y-77132525D01*
X116158092Y-77139740D01*
X116111162Y-77146750D01*
X116065766Y-77153527D01*
X116022082Y-77160047D01*
X115980288Y-77166281D01*
X115940560Y-77172204D01*
X115903078Y-77177788D01*
X115868017Y-77183008D01*
X115835557Y-77187837D01*
X115805875Y-77192247D01*
X115779147Y-77196213D01*
X115755553Y-77199708D01*
X115735269Y-77202705D01*
X115718473Y-77205177D01*
X115705343Y-77207099D01*
X115696056Y-77208443D01*
X115690790Y-77209183D01*
X115689600Y-77209327D01*
X115689079Y-77207161D01*
X115688627Y-77200743D01*
X115688245Y-77190199D01*
X115687934Y-77175652D01*
X115687699Y-77157226D01*
X115687540Y-77135046D01*
X115687461Y-77109234D01*
X115687452Y-77095871D01*
X115687452Y-76982414D01*
X115696749Y-76981219D01*
X115699639Y-76980871D01*
X115706708Y-76980031D01*
X115717788Y-76978720D01*
X115732712Y-76976957D01*
X115751313Y-76974761D01*
X115773425Y-76972152D01*
X115798880Y-76969150D01*
X115827512Y-76965775D01*
X115859153Y-76962046D01*
X115893637Y-76957983D01*
X115930796Y-76953606D01*
X115970464Y-76948934D01*
X116012473Y-76943987D01*
X116056658Y-76938784D01*
X116102850Y-76933345D01*
X116150882Y-76927691D01*
X116200589Y-76921840D01*
X116251802Y-76915812D01*
X116304355Y-76909628D01*
X116358082Y-76903306D01*
X116389665Y-76899589D01*
X116443903Y-76893204D01*
X116497020Y-76886945D01*
X116548852Y-76880830D01*
X116599234Y-76874880D01*
X116648001Y-76869113D01*
X116694990Y-76863551D01*
X116740036Y-76858212D01*
X116782974Y-76853116D01*
X116823640Y-76848282D01*
X116861869Y-76843731D01*
X116897497Y-76839481D01*
X116930360Y-76835553D01*
X116960292Y-76831966D01*
X116987130Y-76828739D01*
X117010709Y-76825893D01*
X117030864Y-76823446D01*
X117047432Y-76821419D01*
X117060247Y-76819831D01*
X117069145Y-76818702D01*
X117073961Y-76818051D01*
X117074824Y-76817897D01*
X117072818Y-76817375D01*
X117066770Y-76815995D01*
X117056920Y-76813808D01*
X117043507Y-76810866D01*
X117026769Y-76807219D01*
X117006944Y-76802918D01*
X116984272Y-76798015D01*
X116958992Y-76792560D01*
X116931341Y-76786604D01*
X116901559Y-76780198D01*
X116869885Y-76773394D01*
X116836557Y-76766242D01*
X116801813Y-76758794D01*
X116765894Y-76751099D01*
X116729036Y-76743210D01*
X116691480Y-76735177D01*
X116653464Y-76727052D01*
X116615226Y-76718885D01*
X116577005Y-76710727D01*
X116539040Y-76702629D01*
X116501570Y-76694643D01*
X116464834Y-76686818D01*
X116429069Y-76679208D01*
X116394516Y-76671861D01*
X116361412Y-76664830D01*
X116329996Y-76658164D01*
X116300507Y-76651917D01*
X116273184Y-76646137D01*
X116248265Y-76640877D01*
X116225990Y-76636186D01*
X116206597Y-76632118D01*
X116190324Y-76628721D01*
X116177410Y-76626048D01*
X116168095Y-76624148D01*
X116164892Y-76623511D01*
X116159969Y-76622546D01*
X116159969Y-76500672D01*
X116159969Y-76378798D01*
X116170360Y-76376464D01*
X116173488Y-76375786D01*
X116180690Y-76374237D01*
X116191763Y-76371862D01*
X116206502Y-76368705D01*
X116224705Y-76364809D01*
X116246166Y-76360218D01*
X116270682Y-76354975D01*
X116298049Y-76349125D01*
X116328063Y-76342709D01*
X116360520Y-76335773D01*
X116395216Y-76328360D01*
X116431946Y-76320513D01*
X116470508Y-76312275D01*
X116510696Y-76303692D01*
X116552307Y-76294806D01*
X116595138Y-76285660D01*
X116629206Y-76278386D01*
X116672709Y-76269094D01*
X116715078Y-76260035D01*
X116756111Y-76251252D01*
X116795612Y-76242789D01*
X116833380Y-76234689D01*
X116869218Y-76226993D01*
X116902926Y-76219745D01*
X116934306Y-76212988D01*
X116963159Y-76206765D01*
X116989286Y-76201118D01*
X117012489Y-76196091D01*
X117032568Y-76191726D01*
X117049325Y-76188067D01*
X117062562Y-76185155D01*
X117072078Y-76183034D01*
X117077676Y-76181747D01*
X117079203Y-76181344D01*
X117077168Y-76180828D01*
X117070965Y-76179445D01*
X117060708Y-76177218D01*
X117046513Y-76174171D01*
X117028493Y-76170329D01*
X117006764Y-76165716D01*
X116981441Y-76160355D01*
X116952639Y-76154271D01*
X116920471Y-76147488D01*
X116885054Y-76140029D01*
X116846501Y-76131920D01*
X116804929Y-76123184D01*
X116760451Y-76113845D01*
X116713182Y-76103927D01*
X116663238Y-76093454D01*
X116610733Y-76082451D01*
X116555782Y-76070942D01*
X116498499Y-76058950D01*
X116439000Y-76046499D01*
X116377399Y-76033614D01*
X116313812Y-76020319D01*
X116248352Y-76006638D01*
X116181136Y-75992595D01*
X116112277Y-75978213D01*
X116041890Y-75963518D01*
X115970091Y-75948533D01*
X115896994Y-75933282D01*
X115822715Y-75917790D01*
X115749481Y-75902521D01*
X115674119Y-75886810D01*
X115599810Y-75871318D01*
X115526672Y-75856069D01*
X115454819Y-75841088D01*
X115384368Y-75826398D01*
X115315432Y-75812023D01*
X115248129Y-75797988D01*
X115182573Y-75784317D01*
X115118880Y-75771034D01*
X115057165Y-75758163D01*
X114997544Y-75745727D01*
X114940133Y-75733752D01*
X114885046Y-75722261D01*
X114832400Y-75711278D01*
X114782309Y-75700827D01*
X114734889Y-75690933D01*
X114690256Y-75681619D01*
X114648525Y-75672910D01*
X114609812Y-75664830D01*
X114574232Y-75657402D01*
X114541901Y-75650652D01*
X114512933Y-75644602D01*
X114487445Y-75639278D01*
X114465553Y-75634702D01*
X114447370Y-75630900D01*
X114433014Y-75627895D01*
X114422599Y-75625712D01*
X114416240Y-75624374D01*
X114414061Y-75623908D01*
X114413140Y-75623529D01*
X114412365Y-75622681D01*
X114411726Y-75621010D01*
X114411208Y-75618162D01*
X114410798Y-75613786D01*
X114410485Y-75607526D01*
X114410255Y-75599031D01*
X114410095Y-75587947D01*
X114409993Y-75573922D01*
X114409936Y-75556600D01*
X114409911Y-75535631D01*
X114409905Y-75510660D01*
X114409905Y-75509085D01*
X114409905Y-75395349D01*
X114414944Y-75396613D01*
G37*
D13*
%TO.C,C1*%
X108440580Y-77260000D02*
X108159420Y-77260000D01*
X108440580Y-76240000D02*
X108159420Y-76240000D01*
%TO.C,R3*%
X111887258Y-77272500D02*
X111412742Y-77272500D01*
X111887258Y-76227500D02*
X111412742Y-76227500D01*
D12*
%TO.C,REF\u002A\u002A*%
X100750000Y-72500000D02*
X105250000Y-72500000D01*
X105250000Y-72500000D02*
X105250000Y-75375000D01*
X105250000Y-75375000D02*
X100750000Y-75375000D01*
X100750000Y-75375000D02*
X100750000Y-72500000D01*
G36*
X100750000Y-72500000D02*
G01*
X105250000Y-72500000D01*
X105250000Y-75375000D01*
X100750000Y-75375000D01*
X100750000Y-72500000D01*
G37*
X101650000Y-70855000D02*
X104350000Y-70855000D01*
X104350000Y-70855000D02*
X104350000Y-72500000D01*
X104350000Y-72500000D02*
X101650000Y-72500000D01*
X101650000Y-72500000D02*
X101650000Y-70855000D01*
X101900000Y-70855000D02*
G75*
G03*
X101650000Y-71105000I-1J-249999D01*
G01*
X101400000Y-72500000D02*
G75*
G03*
X101650000Y-72250000I1J249999D01*
G01*
X101650000Y-72250000D02*
G75*
G03*
X101900000Y-72500000I249999J-1D01*
G01*
X104350000Y-71105000D02*
G75*
G03*
X104100000Y-70855000I-250000J0D01*
G01*
X104100000Y-72500000D02*
G75*
G03*
X104350000Y-72250000I0J250000D01*
G01*
X104350000Y-72250000D02*
G75*
G03*
X104600000Y-72500000I250000J0D01*
G01*
D13*
%TO.C,TVS2*%
X112090000Y-73320000D02*
X112090000Y-74730000D01*
X114410000Y-74730000D02*
X114410000Y-72700000D01*
X114410000Y-74730000D02*
X113750000Y-74730000D01*
X112750000Y-74730000D02*
X112090000Y-74730000D01*
%TO.C,D1*%
X101185000Y-81052500D02*
X101185000Y-82522500D01*
X101185000Y-82522500D02*
X103470000Y-82522500D01*
X103470000Y-81052500D02*
X101185000Y-81052500D01*
%TO.C,TVS1*%
X108840000Y-73320000D02*
X108840000Y-74730000D01*
X111160000Y-74730000D02*
X111160000Y-72700000D01*
X111160000Y-74730000D02*
X110500000Y-74730000D01*
X109500000Y-74730000D02*
X108840000Y-74730000D01*
%TO.C,D2*%
X100590000Y-95110000D02*
X102510000Y-95110000D01*
X102510000Y-95110000D02*
X102510000Y-92425000D01*
X100590000Y-92425000D02*
X100590000Y-95110000D01*
D14*
%TO.C,J1*%
X102875300Y-89728100D02*
X102875300Y-97271900D01*
X103667960Y-89728100D02*
X102875300Y-89728100D01*
X107167961Y-89728100D02*
X105832040Y-89728100D01*
X110667962Y-89728100D02*
X109332041Y-89728100D01*
X114167962Y-89728100D02*
X112832042Y-89728100D01*
X117124700Y-89728100D02*
X116332042Y-89728100D01*
X117124700Y-97271900D02*
X117124700Y-89728100D01*
D13*
%TO.C,R1*%
X102072500Y-88987742D02*
X102072500Y-89462258D01*
X101027500Y-88987742D02*
X101027500Y-89462258D01*
%TO.C,Q1*%
X104060000Y-84537500D02*
X104060000Y-82862500D01*
X104060000Y-84537500D02*
X104060000Y-85187500D01*
X100940000Y-84537500D02*
X100940000Y-83887500D01*
X100940000Y-84537500D02*
X100940000Y-85187500D01*
%TO.C,R2*%
X105522500Y-82375242D02*
X105522500Y-82849758D01*
X104477500Y-82375242D02*
X104477500Y-82849758D01*
D14*
%TO.C,J2*%
X117620000Y-68505000D02*
X117620000Y-63475000D01*
X117620000Y-68505000D02*
X115620000Y-68505000D01*
X117620000Y-50345000D02*
X117620000Y-52000000D01*
X117620000Y-50345000D02*
X112900000Y-50345000D01*
X102380000Y-68505000D02*
X104380000Y-68505000D01*
X102380000Y-68505000D02*
X102380000Y-63505000D01*
X102380000Y-50345000D02*
X107100000Y-50345000D01*
X102380000Y-50345000D02*
X102380000Y-52000000D01*
D13*
%TO.C,U1*%
X110000000Y-77940000D02*
X106550000Y-77940000D01*
X110000000Y-77940000D02*
X111950000Y-77940000D01*
X110000000Y-83060000D02*
X108050000Y-83060000D01*
X110000000Y-83060000D02*
X111950000Y-83060000D01*
%TD*%
M02*
