%TF.GenerationSoftware,KiCad,Pcbnew,(7.0.0)*%
%TF.CreationDate,2024-01-19T13:27:31-08:00*%
%TF.ProjectId,M.E.S.S.I Basic,4d2e452e-532e-4532-9e49-204261736963,rev?*%
%TF.SameCoordinates,Original*%
%TF.FileFunction,Legend,Top*%
%TF.FilePolarity,Positive*%
%FSLAX46Y46*%
G04 Gerber Fmt 4.6, Leading zero omitted, Abs format (unit mm)*
G04 Created by KiCad (PCBNEW (7.0.0)) date 2024-01-19 13:27:31*
%MOMM*%
%LPD*%
G01*
G04 APERTURE LIST*
%ADD10C,0.175000*%
%ADD11C,0.125000*%
%ADD12C,0.150000*%
%ADD13C,0.120000*%
%ADD14C,0.152400*%
G04 APERTURE END LIST*
D10*
X111178573Y-85775535D02*
X111607145Y-85775535D01*
X111392859Y-86525535D02*
X111392859Y-85775535D01*
X111785716Y-85775535D02*
X112285716Y-86525535D01*
X112285716Y-85775535D02*
X111785716Y-86525535D01*
X107678572Y-85811250D02*
X107607144Y-85775535D01*
X107607144Y-85775535D02*
X107500001Y-85775535D01*
X107500001Y-85775535D02*
X107392858Y-85811250D01*
X107392858Y-85811250D02*
X107321429Y-85882678D01*
X107321429Y-85882678D02*
X107285715Y-85954107D01*
X107285715Y-85954107D02*
X107250001Y-86096964D01*
X107250001Y-86096964D02*
X107250001Y-86204107D01*
X107250001Y-86204107D02*
X107285715Y-86346964D01*
X107285715Y-86346964D02*
X107321429Y-86418392D01*
X107321429Y-86418392D02*
X107392858Y-86489821D01*
X107392858Y-86489821D02*
X107500001Y-86525535D01*
X107500001Y-86525535D02*
X107571429Y-86525535D01*
X107571429Y-86525535D02*
X107678572Y-86489821D01*
X107678572Y-86489821D02*
X107714286Y-86454107D01*
X107714286Y-86454107D02*
X107714286Y-86204107D01*
X107714286Y-86204107D02*
X107571429Y-86204107D01*
X108035715Y-86525535D02*
X108035715Y-85775535D01*
X108035715Y-85775535D02*
X108464286Y-86525535D01*
X108464286Y-86525535D02*
X108464286Y-85775535D01*
X108821429Y-86525535D02*
X108821429Y-85775535D01*
X108821429Y-85775535D02*
X109000000Y-85775535D01*
X109000000Y-85775535D02*
X109107143Y-85811250D01*
X109107143Y-85811250D02*
X109178572Y-85882678D01*
X109178572Y-85882678D02*
X109214286Y-85954107D01*
X109214286Y-85954107D02*
X109250000Y-86096964D01*
X109250000Y-86096964D02*
X109250000Y-86204107D01*
X109250000Y-86204107D02*
X109214286Y-86346964D01*
X109214286Y-86346964D02*
X109178572Y-86418392D01*
X109178572Y-86418392D02*
X109107143Y-86489821D01*
X109107143Y-86489821D02*
X109000000Y-86525535D01*
X109000000Y-86525535D02*
X108821429Y-86525535D01*
X115125001Y-86525535D02*
X114875001Y-86168392D01*
X114696430Y-86525535D02*
X114696430Y-85775535D01*
X114696430Y-85775535D02*
X114982144Y-85775535D01*
X114982144Y-85775535D02*
X115053573Y-85811250D01*
X115053573Y-85811250D02*
X115089287Y-85846964D01*
X115089287Y-85846964D02*
X115125001Y-85918392D01*
X115125001Y-85918392D02*
X115125001Y-86025535D01*
X115125001Y-86025535D02*
X115089287Y-86096964D01*
X115089287Y-86096964D02*
X115053573Y-86132678D01*
X115053573Y-86132678D02*
X114982144Y-86168392D01*
X114982144Y-86168392D02*
X114696430Y-86168392D01*
X115375001Y-85775535D02*
X115875001Y-86525535D01*
X115875001Y-85775535D02*
X115375001Y-86525535D01*
X100308333Y-96418904D02*
X100308333Y-95618904D01*
X100308333Y-95618904D02*
X100613095Y-95618904D01*
X100613095Y-95618904D02*
X100689285Y-95657000D01*
X100689285Y-95657000D02*
X100727380Y-95695095D01*
X100727380Y-95695095D02*
X100765476Y-95771285D01*
X100765476Y-95771285D02*
X100765476Y-95885571D01*
X100765476Y-95885571D02*
X100727380Y-95961761D01*
X100727380Y-95961761D02*
X100689285Y-95999857D01*
X100689285Y-95999857D02*
X100613095Y-96037952D01*
X100613095Y-96037952D02*
X100308333Y-96037952D01*
X101032142Y-95618904D02*
X101222618Y-96418904D01*
X101222618Y-96418904D02*
X101374999Y-95847476D01*
X101374999Y-95847476D02*
X101527380Y-96418904D01*
X101527380Y-96418904D02*
X101717857Y-95618904D01*
X102479762Y-96418904D02*
X102213095Y-96037952D01*
X102022619Y-96418904D02*
X102022619Y-95618904D01*
X102022619Y-95618904D02*
X102327381Y-95618904D01*
X102327381Y-95618904D02*
X102403571Y-95657000D01*
X102403571Y-95657000D02*
X102441666Y-95695095D01*
X102441666Y-95695095D02*
X102479762Y-95771285D01*
X102479762Y-95771285D02*
X102479762Y-95885571D01*
X102479762Y-95885571D02*
X102441666Y-95961761D01*
X102441666Y-95961761D02*
X102403571Y-95999857D01*
X102403571Y-95999857D02*
X102327381Y-96037952D01*
X102327381Y-96037952D02*
X102022619Y-96037952D01*
X103785714Y-86239821D02*
X104357143Y-86239821D01*
X104071428Y-86525535D02*
X104071428Y-85954107D01*
X105071428Y-85775535D02*
X104714285Y-85775535D01*
X104714285Y-85775535D02*
X104678571Y-86132678D01*
X104678571Y-86132678D02*
X104714285Y-86096964D01*
X104714285Y-86096964D02*
X104785714Y-86061250D01*
X104785714Y-86061250D02*
X104964285Y-86061250D01*
X104964285Y-86061250D02*
X105035714Y-86096964D01*
X105035714Y-86096964D02*
X105071428Y-86132678D01*
X105071428Y-86132678D02*
X105107142Y-86204107D01*
X105107142Y-86204107D02*
X105107142Y-86382678D01*
X105107142Y-86382678D02*
X105071428Y-86454107D01*
X105071428Y-86454107D02*
X105035714Y-86489821D01*
X105035714Y-86489821D02*
X104964285Y-86525535D01*
X104964285Y-86525535D02*
X104785714Y-86525535D01*
X104785714Y-86525535D02*
X104714285Y-86489821D01*
X104714285Y-86489821D02*
X104678571Y-86454107D01*
X105321428Y-85775535D02*
X105571428Y-86525535D01*
X105571428Y-86525535D02*
X105821428Y-85775535D01*
D11*
%TO.C,C1*%
X106066666Y-76886071D02*
X106042857Y-76909880D01*
X106042857Y-76909880D02*
X105971428Y-76933690D01*
X105971428Y-76933690D02*
X105923809Y-76933690D01*
X105923809Y-76933690D02*
X105852381Y-76909880D01*
X105852381Y-76909880D02*
X105804762Y-76862261D01*
X105804762Y-76862261D02*
X105780952Y-76814642D01*
X105780952Y-76814642D02*
X105757143Y-76719404D01*
X105757143Y-76719404D02*
X105757143Y-76647976D01*
X105757143Y-76647976D02*
X105780952Y-76552738D01*
X105780952Y-76552738D02*
X105804762Y-76505119D01*
X105804762Y-76505119D02*
X105852381Y-76457500D01*
X105852381Y-76457500D02*
X105923809Y-76433690D01*
X105923809Y-76433690D02*
X105971428Y-76433690D01*
X105971428Y-76433690D02*
X106042857Y-76457500D01*
X106042857Y-76457500D02*
X106066666Y-76481309D01*
X106542857Y-76933690D02*
X106257143Y-76933690D01*
X106400000Y-76933690D02*
X106400000Y-76433690D01*
X106400000Y-76433690D02*
X106352381Y-76505119D01*
X106352381Y-76505119D02*
X106304762Y-76552738D01*
X106304762Y-76552738D02*
X106257143Y-76576547D01*
%TO.C,R3*%
X113716666Y-76933690D02*
X113550000Y-76695595D01*
X113430952Y-76933690D02*
X113430952Y-76433690D01*
X113430952Y-76433690D02*
X113621428Y-76433690D01*
X113621428Y-76433690D02*
X113669047Y-76457500D01*
X113669047Y-76457500D02*
X113692857Y-76481309D01*
X113692857Y-76481309D02*
X113716666Y-76528928D01*
X113716666Y-76528928D02*
X113716666Y-76600357D01*
X113716666Y-76600357D02*
X113692857Y-76647976D01*
X113692857Y-76647976D02*
X113669047Y-76671785D01*
X113669047Y-76671785D02*
X113621428Y-76695595D01*
X113621428Y-76695595D02*
X113430952Y-76695595D01*
X113883333Y-76433690D02*
X114192857Y-76433690D01*
X114192857Y-76433690D02*
X114026190Y-76624166D01*
X114026190Y-76624166D02*
X114097619Y-76624166D01*
X114097619Y-76624166D02*
X114145238Y-76647976D01*
X114145238Y-76647976D02*
X114169047Y-76671785D01*
X114169047Y-76671785D02*
X114192857Y-76719404D01*
X114192857Y-76719404D02*
X114192857Y-76838452D01*
X114192857Y-76838452D02*
X114169047Y-76886071D01*
X114169047Y-76886071D02*
X114145238Y-76909880D01*
X114145238Y-76909880D02*
X114097619Y-76933690D01*
X114097619Y-76933690D02*
X113954762Y-76933690D01*
X113954762Y-76933690D02*
X113907143Y-76909880D01*
X113907143Y-76909880D02*
X113883333Y-76886071D01*
D12*
%TO.C,REF\u002A\u002A*%
G36*
X102452886Y-71189188D02*
G01*
X102465381Y-71189631D01*
X102477681Y-71190369D01*
X102489786Y-71191402D01*
X102501695Y-71192730D01*
X102513409Y-71194354D01*
X102524928Y-71196272D01*
X102536251Y-71198486D01*
X102547379Y-71200995D01*
X102558312Y-71203799D01*
X102569049Y-71206898D01*
X102579591Y-71210293D01*
X102589938Y-71213982D01*
X102600089Y-71217967D01*
X102610045Y-71222247D01*
X102619805Y-71226822D01*
X102629370Y-71231692D01*
X102638740Y-71236858D01*
X102647915Y-71242318D01*
X102656894Y-71248074D01*
X102665678Y-71254125D01*
X102674266Y-71260471D01*
X102682659Y-71267112D01*
X102690857Y-71274049D01*
X102698859Y-71281280D01*
X102706667Y-71288807D01*
X102714278Y-71296629D01*
X102721695Y-71304746D01*
X102728916Y-71313158D01*
X102735941Y-71321866D01*
X102742772Y-71330868D01*
X102749407Y-71340166D01*
X102754827Y-71348193D01*
X102760076Y-71356361D01*
X102765153Y-71364668D01*
X102770058Y-71373116D01*
X102774790Y-71381704D01*
X102779350Y-71390432D01*
X102783739Y-71399301D01*
X102787955Y-71408310D01*
X102791999Y-71417459D01*
X102795871Y-71426748D01*
X102799571Y-71436178D01*
X102803099Y-71445748D01*
X102806455Y-71455458D01*
X102809638Y-71465308D01*
X102812650Y-71475299D01*
X102815490Y-71485430D01*
X102818157Y-71495701D01*
X102820652Y-71506112D01*
X102822976Y-71516664D01*
X102825127Y-71527355D01*
X102827106Y-71538187D01*
X102828913Y-71549160D01*
X102830548Y-71560272D01*
X102832010Y-71571525D01*
X102833301Y-71582918D01*
X102834420Y-71594452D01*
X102835366Y-71606125D01*
X102836140Y-71617939D01*
X102836743Y-71629893D01*
X102837173Y-71641987D01*
X102837431Y-71654222D01*
X102837517Y-71666597D01*
X102837366Y-71676889D01*
X102836911Y-71687091D01*
X102836154Y-71697201D01*
X102835093Y-71707220D01*
X102833729Y-71717148D01*
X102832063Y-71726985D01*
X102830093Y-71736730D01*
X102827820Y-71746384D01*
X102825244Y-71755947D01*
X102822365Y-71765418D01*
X102819183Y-71774799D01*
X102815699Y-71784088D01*
X102811911Y-71793286D01*
X102807820Y-71802393D01*
X102803425Y-71811408D01*
X102798728Y-71820332D01*
X102793728Y-71829165D01*
X102788425Y-71837907D01*
X102782819Y-71846558D01*
X102776910Y-71855117D01*
X102770697Y-71863585D01*
X102764182Y-71871962D01*
X102757364Y-71880247D01*
X102750242Y-71888442D01*
X102742818Y-71896545D01*
X102735091Y-71904557D01*
X102727060Y-71912477D01*
X102718726Y-71920307D01*
X102710090Y-71928045D01*
X102701150Y-71935692D01*
X102691908Y-71943248D01*
X102682362Y-71950712D01*
X102688442Y-71956317D01*
X102695072Y-71962414D01*
X102702253Y-71969003D01*
X102709985Y-71976086D01*
X102715446Y-71981081D01*
X102721151Y-71986295D01*
X102727101Y-71991729D01*
X102733295Y-71997381D01*
X102739734Y-72003252D01*
X102746418Y-72009342D01*
X102753347Y-72015651D01*
X102760521Y-72022179D01*
X102767939Y-72028926D01*
X102775602Y-72035892D01*
X102834403Y-72083336D01*
X102840558Y-72089465D01*
X102846107Y-72095555D01*
X102851051Y-72101606D01*
X102855389Y-72107619D01*
X102860232Y-72115576D01*
X102863998Y-72123464D01*
X102866689Y-72131284D01*
X102868303Y-72139035D01*
X102868841Y-72146717D01*
X102868327Y-72155636D01*
X102866784Y-72164187D01*
X102864213Y-72172372D01*
X102860612Y-72180191D01*
X102855984Y-72187642D01*
X102850326Y-72194727D01*
X102847775Y-72197459D01*
X102842217Y-72202911D01*
X102836349Y-72207637D01*
X102830173Y-72211635D01*
X102822017Y-72215611D01*
X102813379Y-72218451D01*
X102806120Y-72219905D01*
X102798552Y-72220632D01*
X102794653Y-72220723D01*
X102786076Y-72219008D01*
X102778651Y-72215960D01*
X102769861Y-72211387D01*
X102759706Y-72205291D01*
X102748186Y-72197670D01*
X102741913Y-72193288D01*
X102735300Y-72188525D01*
X102728345Y-72183381D01*
X102721049Y-72177856D01*
X102713411Y-72171950D01*
X102705433Y-72165663D01*
X102697112Y-72158995D01*
X102688451Y-72151946D01*
X102679448Y-72144516D01*
X102670104Y-72136705D01*
X102660419Y-72128513D01*
X102650392Y-72119939D01*
X102640024Y-72110985D01*
X102629315Y-72101650D01*
X102618264Y-72091933D01*
X102606872Y-72081836D01*
X102595139Y-72071358D01*
X102583064Y-72060498D01*
X102570648Y-72049258D01*
X102557891Y-72037636D01*
X102544792Y-72025634D01*
X102534111Y-72029382D01*
X102523454Y-72032889D01*
X102512822Y-72036154D01*
X102502214Y-72039178D01*
X102491630Y-72041959D01*
X102481071Y-72044499D01*
X102470535Y-72046796D01*
X102460025Y-72048852D01*
X102449538Y-72050666D01*
X102439076Y-72052238D01*
X102428638Y-72053568D01*
X102418225Y-72054657D01*
X102407836Y-72055503D01*
X102397471Y-72056108D01*
X102387130Y-72056471D01*
X102376814Y-72056591D01*
X102366617Y-72056466D01*
X102356496Y-72056088D01*
X102346451Y-72055460D01*
X102336483Y-72054579D01*
X102326590Y-72053447D01*
X102316774Y-72052064D01*
X102307034Y-72050429D01*
X102297370Y-72048543D01*
X102287783Y-72046405D01*
X102278271Y-72044016D01*
X102268836Y-72041375D01*
X102259477Y-72038482D01*
X102250195Y-72035338D01*
X102240988Y-72031943D01*
X102231858Y-72028296D01*
X102222804Y-72024397D01*
X102213826Y-72020247D01*
X102204924Y-72015846D01*
X102196099Y-72011193D01*
X102187349Y-72006288D01*
X102178676Y-72001132D01*
X102170080Y-71995724D01*
X102161559Y-71990065D01*
X102153114Y-71984154D01*
X102144746Y-71977992D01*
X102136454Y-71971578D01*
X102128238Y-71964913D01*
X102120099Y-71957997D01*
X102112035Y-71950828D01*
X102104048Y-71943408D01*
X102096137Y-71935737D01*
X102088302Y-71927814D01*
X102080763Y-71919835D01*
X102073462Y-71911789D01*
X102066401Y-71903675D01*
X102059580Y-71895494D01*
X102052998Y-71887246D01*
X102046655Y-71878931D01*
X102040551Y-71870548D01*
X102034687Y-71862098D01*
X102029062Y-71853581D01*
X102023677Y-71844996D01*
X102018531Y-71836344D01*
X102013624Y-71827625D01*
X102008957Y-71818839D01*
X102004529Y-71809985D01*
X102000340Y-71801065D01*
X101996391Y-71792076D01*
X101992681Y-71783021D01*
X101989210Y-71773898D01*
X101985979Y-71764709D01*
X101982987Y-71755451D01*
X101980234Y-71746127D01*
X101977721Y-71736735D01*
X101975447Y-71727276D01*
X101973413Y-71717750D01*
X101971618Y-71708157D01*
X101970062Y-71698496D01*
X101968745Y-71688768D01*
X101967668Y-71678973D01*
X101966831Y-71669110D01*
X101966232Y-71659181D01*
X101965873Y-71649184D01*
X101965757Y-71639486D01*
X102112666Y-71639486D01*
X102112985Y-71652422D01*
X102113942Y-71665220D01*
X102115538Y-71677879D01*
X102117772Y-71690399D01*
X102120644Y-71702780D01*
X102124154Y-71715023D01*
X102128303Y-71727126D01*
X102133090Y-71739091D01*
X102138516Y-71750917D01*
X102144579Y-71762604D01*
X102151281Y-71774152D01*
X102158621Y-71785562D01*
X102166600Y-71796833D01*
X102175216Y-71807965D01*
X102184471Y-71818958D01*
X102194365Y-71829812D01*
X102199490Y-71835109D01*
X102209851Y-71845198D01*
X102220361Y-71854615D01*
X102231020Y-71863359D01*
X102241828Y-71871430D01*
X102252784Y-71878829D01*
X102263890Y-71885555D01*
X102275144Y-71891609D01*
X102286547Y-71896990D01*
X102298099Y-71901698D01*
X102309800Y-71905734D01*
X102321649Y-71909097D01*
X102333648Y-71911788D01*
X102345795Y-71913806D01*
X102358091Y-71915151D01*
X102370536Y-71915823D01*
X102376814Y-71915908D01*
X102384584Y-71915792D01*
X102392644Y-71915444D01*
X102400051Y-71914940D01*
X102405757Y-71914442D01*
X102396596Y-71905572D01*
X102388025Y-71896914D01*
X102380046Y-71888467D01*
X102372658Y-71880233D01*
X102365861Y-71872210D01*
X102359655Y-71864399D01*
X102354040Y-71856800D01*
X102349016Y-71849412D01*
X102344583Y-71842237D01*
X102340742Y-71835273D01*
X102337491Y-71828521D01*
X102333723Y-71818790D01*
X102331285Y-71809536D01*
X102330177Y-71800758D01*
X102330103Y-71797938D01*
X102330472Y-71790494D01*
X102331972Y-71781631D01*
X102334626Y-71773259D01*
X102338433Y-71765380D01*
X102343395Y-71757993D01*
X102348195Y-71752438D01*
X102353733Y-71747197D01*
X102360825Y-71741761D01*
X102368248Y-71737247D01*
X102376002Y-71733654D01*
X102384087Y-71730982D01*
X102392503Y-71729232D01*
X102401250Y-71728403D01*
X102404841Y-71728329D01*
X102413436Y-71728818D01*
X102421728Y-71730287D01*
X102429717Y-71732734D01*
X102437402Y-71736160D01*
X102444783Y-71740565D01*
X102451862Y-71745949D01*
X102458636Y-71752312D01*
X102465108Y-71759653D01*
X102470804Y-71766706D01*
X102476583Y-71773669D01*
X102482442Y-71780542D01*
X102488384Y-71787325D01*
X102494406Y-71794018D01*
X102500511Y-71800620D01*
X102506697Y-71807132D01*
X102512964Y-71813555D01*
X102519313Y-71819886D01*
X102525744Y-71826128D01*
X102532256Y-71832280D01*
X102538850Y-71838341D01*
X102545526Y-71844313D01*
X102552283Y-71850194D01*
X102559121Y-71855985D01*
X102566041Y-71861686D01*
X102573671Y-71856924D01*
X102581059Y-71852094D01*
X102588204Y-71847198D01*
X102595107Y-71842234D01*
X102601768Y-71837203D01*
X102608187Y-71832105D01*
X102614363Y-71826939D01*
X102620298Y-71821706D01*
X102625990Y-71816406D01*
X102631439Y-71811039D01*
X102636647Y-71805604D01*
X102641613Y-71800102D01*
X102650817Y-71788897D01*
X102659052Y-71777422D01*
X102666318Y-71765678D01*
X102672616Y-71753665D01*
X102677945Y-71741384D01*
X102682305Y-71728833D01*
X102685696Y-71716013D01*
X102688118Y-71702924D01*
X102689571Y-71689566D01*
X102690056Y-71675939D01*
X102689998Y-71666484D01*
X102689826Y-71657148D01*
X102689539Y-71647931D01*
X102689137Y-71638833D01*
X102688620Y-71629854D01*
X102687988Y-71620993D01*
X102687242Y-71612251D01*
X102686381Y-71603628D01*
X102685404Y-71595123D01*
X102684313Y-71586738D01*
X102683107Y-71578471D01*
X102681787Y-71570323D01*
X102680351Y-71562294D01*
X102678801Y-71554383D01*
X102677135Y-71546592D01*
X102675355Y-71538919D01*
X102673460Y-71531365D01*
X102671450Y-71523929D01*
X102669326Y-71516613D01*
X102667086Y-71509415D01*
X102664732Y-71502336D01*
X102662263Y-71495376D01*
X102656980Y-71481812D01*
X102651237Y-71468723D01*
X102645036Y-71456109D01*
X102638375Y-71443970D01*
X102631254Y-71432307D01*
X102627086Y-71425996D01*
X102622801Y-71419885D01*
X102618400Y-71413974D01*
X102609250Y-71402754D01*
X102599634Y-71392336D01*
X102589554Y-71382719D01*
X102579008Y-71373903D01*
X102567997Y-71365889D01*
X102556521Y-71358676D01*
X102544579Y-71352265D01*
X102532173Y-71346655D01*
X102519302Y-71341846D01*
X102505965Y-71337839D01*
X102492164Y-71334633D01*
X102477897Y-71332229D01*
X102470589Y-71331328D01*
X102463165Y-71330626D01*
X102455625Y-71330125D01*
X102447968Y-71329825D01*
X102440195Y-71329725D01*
X102431897Y-71329812D01*
X102423672Y-71330072D01*
X102415521Y-71330507D01*
X102407443Y-71331116D01*
X102399438Y-71331898D01*
X102391507Y-71332855D01*
X102383649Y-71333985D01*
X102375864Y-71335289D01*
X102368153Y-71336767D01*
X102360515Y-71338419D01*
X102352950Y-71340244D01*
X102345459Y-71342244D01*
X102338041Y-71344418D01*
X102330696Y-71346765D01*
X102323425Y-71349286D01*
X102316227Y-71351981D01*
X102309102Y-71354850D01*
X102302051Y-71357893D01*
X102295073Y-71361110D01*
X102288168Y-71364501D01*
X102281337Y-71368065D01*
X102274579Y-71371804D01*
X102267895Y-71375716D01*
X102261283Y-71379802D01*
X102254746Y-71384062D01*
X102248281Y-71388496D01*
X102241890Y-71393104D01*
X102235572Y-71397886D01*
X102229328Y-71402841D01*
X102223157Y-71407971D01*
X102217059Y-71413274D01*
X102211034Y-71418751D01*
X102204982Y-71424435D01*
X102199122Y-71430197D01*
X102193455Y-71436037D01*
X102187979Y-71441955D01*
X102182696Y-71447952D01*
X102177604Y-71454027D01*
X102172705Y-71460181D01*
X102167998Y-71466413D01*
X102163483Y-71472723D01*
X102159160Y-71479112D01*
X102155029Y-71485579D01*
X102151091Y-71492124D01*
X102147344Y-71498748D01*
X102143790Y-71505450D01*
X102140428Y-71512230D01*
X102137258Y-71519089D01*
X102134280Y-71526026D01*
X102131494Y-71533042D01*
X102128900Y-71540136D01*
X102126499Y-71547308D01*
X102124289Y-71554558D01*
X102122272Y-71561887D01*
X102120447Y-71569295D01*
X102118814Y-71576780D01*
X102117373Y-71584344D01*
X102116124Y-71591986D01*
X102115067Y-71599707D01*
X102114203Y-71607506D01*
X102113530Y-71615383D01*
X102113050Y-71623339D01*
X102112762Y-71631373D01*
X102112666Y-71639486D01*
X101965757Y-71639486D01*
X101965753Y-71639119D01*
X101965894Y-71627304D01*
X101966315Y-71615601D01*
X101967017Y-71604012D01*
X101968000Y-71592537D01*
X101969264Y-71581175D01*
X101970809Y-71569926D01*
X101972634Y-71558791D01*
X101974741Y-71547769D01*
X101977128Y-71536860D01*
X101979796Y-71526065D01*
X101982745Y-71515384D01*
X101985975Y-71504815D01*
X101989486Y-71494361D01*
X101993277Y-71484019D01*
X101997350Y-71473791D01*
X102001703Y-71463677D01*
X102006337Y-71453676D01*
X102011252Y-71443788D01*
X102016448Y-71434014D01*
X102021925Y-71424353D01*
X102027682Y-71414805D01*
X102033720Y-71405371D01*
X102040040Y-71396050D01*
X102046640Y-71386843D01*
X102053521Y-71377749D01*
X102060683Y-71368769D01*
X102068125Y-71359902D01*
X102075849Y-71351148D01*
X102083853Y-71342508D01*
X102092138Y-71333982D01*
X102100704Y-71325568D01*
X102109551Y-71317268D01*
X102118326Y-71309379D01*
X102127201Y-71301741D01*
X102136176Y-71294353D01*
X102145252Y-71287215D01*
X102154428Y-71280328D01*
X102163705Y-71273691D01*
X102173083Y-71267305D01*
X102182561Y-71261169D01*
X102192140Y-71255283D01*
X102201819Y-71249648D01*
X102211598Y-71244264D01*
X102221479Y-71239130D01*
X102231459Y-71234246D01*
X102241541Y-71229613D01*
X102251722Y-71225230D01*
X102262005Y-71221098D01*
X102272388Y-71217216D01*
X102282871Y-71213584D01*
X102293455Y-71210203D01*
X102304140Y-71207073D01*
X102314925Y-71204193D01*
X102325810Y-71201563D01*
X102336796Y-71199184D01*
X102347883Y-71197055D01*
X102359070Y-71195177D01*
X102370358Y-71193549D01*
X102381746Y-71192171D01*
X102393235Y-71191044D01*
X102404824Y-71190168D01*
X102416514Y-71189542D01*
X102428304Y-71189166D01*
X102440195Y-71189041D01*
X102452886Y-71189188D01*
G37*
G36*
X103381019Y-71250224D02*
G01*
X103377115Y-71258709D01*
X103372893Y-71268022D01*
X103368353Y-71278162D01*
X103365148Y-71285382D01*
X103361803Y-71292970D01*
X103358315Y-71300925D01*
X103354686Y-71309249D01*
X103350915Y-71317940D01*
X103347002Y-71326999D01*
X103342948Y-71336425D01*
X103338752Y-71346220D01*
X103334414Y-71356382D01*
X103329935Y-71366912D01*
X103325314Y-71377810D01*
X103322950Y-71383397D01*
X103318463Y-71394844D01*
X103313751Y-71406515D01*
X103308812Y-71418411D01*
X103303647Y-71430532D01*
X103298256Y-71442878D01*
X103292639Y-71455448D01*
X103286796Y-71468243D01*
X103280726Y-71481262D01*
X103274431Y-71494506D01*
X103271198Y-71501213D01*
X103267909Y-71507975D01*
X103264564Y-71514794D01*
X103261162Y-71521669D01*
X103257703Y-71528600D01*
X103254188Y-71535587D01*
X103250616Y-71542630D01*
X103246988Y-71549730D01*
X103243303Y-71556886D01*
X103239562Y-71564098D01*
X103235764Y-71571366D01*
X103231910Y-71578690D01*
X103227999Y-71586070D01*
X103224032Y-71593507D01*
X103217003Y-71606194D01*
X103209975Y-71618883D01*
X103202949Y-71631576D01*
X103195925Y-71644271D01*
X103188901Y-71656970D01*
X103181880Y-71669671D01*
X103174859Y-71682375D01*
X103167840Y-71695081D01*
X103160823Y-71707791D01*
X103153807Y-71720504D01*
X103146792Y-71733219D01*
X103139779Y-71745937D01*
X103132767Y-71758659D01*
X103125757Y-71771383D01*
X103118748Y-71784109D01*
X103111741Y-71796839D01*
X103107920Y-71804387D01*
X103103585Y-71813222D01*
X103099996Y-71820624D01*
X103095847Y-71829235D01*
X103091139Y-71839055D01*
X103085871Y-71850085D01*
X103080043Y-71862323D01*
X103073656Y-71875772D01*
X103070253Y-71882949D01*
X103066710Y-71890429D01*
X103063027Y-71898211D01*
X103059204Y-71906296D01*
X103055241Y-71914683D01*
X103051138Y-71923372D01*
X103046895Y-71932363D01*
X103042513Y-71941657D01*
X103037990Y-71951253D01*
X103033328Y-71961152D01*
X103028525Y-71971352D01*
X103023583Y-71981855D01*
X103018501Y-71992661D01*
X103014734Y-71999896D01*
X103010578Y-72006419D01*
X103006032Y-72012230D01*
X102999364Y-72018872D01*
X102992004Y-72024249D01*
X102983951Y-72028360D01*
X102975206Y-72031207D01*
X102965767Y-72032788D01*
X102958234Y-72033144D01*
X102950038Y-72032733D01*
X102942163Y-72031498D01*
X102934610Y-72029441D01*
X102927380Y-72026561D01*
X102920471Y-72022858D01*
X102913884Y-72018332D01*
X102911340Y-72016291D01*
X102905113Y-72010313D01*
X102899941Y-72003941D01*
X102895825Y-71997175D01*
X102892764Y-71990016D01*
X102890758Y-71982463D01*
X102889809Y-71974517D01*
X102889724Y-71971229D01*
X102890171Y-71963805D01*
X102891513Y-71956417D01*
X102893749Y-71949064D01*
X102894304Y-71947598D01*
X102899662Y-71934092D01*
X102902548Y-71927067D01*
X102905572Y-71919860D01*
X102908734Y-71912472D01*
X102912033Y-71904903D01*
X102915470Y-71897152D01*
X102919045Y-71889220D01*
X102922757Y-71881107D01*
X102926607Y-71872812D01*
X102930595Y-71864336D01*
X102934721Y-71855678D01*
X102938985Y-71846839D01*
X102943386Y-71837818D01*
X102947925Y-71828616D01*
X102952601Y-71819233D01*
X102957416Y-71809669D01*
X102962368Y-71799922D01*
X102967458Y-71789995D01*
X102972686Y-71779886D01*
X102978051Y-71769596D01*
X102983554Y-71759124D01*
X102989195Y-71748471D01*
X102994974Y-71737637D01*
X103000890Y-71726621D01*
X103006944Y-71715424D01*
X103013136Y-71704045D01*
X103019466Y-71692485D01*
X103025933Y-71680744D01*
X103032538Y-71668821D01*
X103039281Y-71656717D01*
X103046162Y-71644432D01*
X103053054Y-71632145D01*
X103059807Y-71620038D01*
X103066423Y-71608111D01*
X103072901Y-71596363D01*
X103079240Y-71584795D01*
X103085441Y-71573407D01*
X103091505Y-71562198D01*
X103097430Y-71551169D01*
X103103217Y-71540319D01*
X103108866Y-71529649D01*
X103114377Y-71519159D01*
X103119749Y-71508848D01*
X103124984Y-71498717D01*
X103130081Y-71488765D01*
X103135039Y-71478993D01*
X103139859Y-71469401D01*
X103144542Y-71459988D01*
X103149086Y-71450755D01*
X103153492Y-71441702D01*
X103157760Y-71432828D01*
X103161889Y-71424133D01*
X103165881Y-71415619D01*
X103169735Y-71407283D01*
X103173450Y-71399128D01*
X103177028Y-71391152D01*
X103180467Y-71383356D01*
X103183768Y-71375739D01*
X103186931Y-71368302D01*
X103189956Y-71361044D01*
X103192843Y-71353966D01*
X103195592Y-71347068D01*
X103198203Y-71340349D01*
X103202010Y-71330499D01*
X103205693Y-71321052D01*
X103209252Y-71312009D01*
X103212686Y-71303369D01*
X103215995Y-71295133D01*
X103219180Y-71287301D01*
X103222240Y-71279872D01*
X103225176Y-71272847D01*
X103229347Y-71263065D01*
X103233237Y-71254192D01*
X103236847Y-71246227D01*
X103240177Y-71239170D01*
X103244182Y-71231173D01*
X103249178Y-71221683D01*
X103254139Y-71212814D01*
X103259064Y-71204567D01*
X103263954Y-71196941D01*
X103268807Y-71189935D01*
X103273625Y-71183551D01*
X103278407Y-71177788D01*
X103285513Y-71170308D01*
X103292539Y-71164225D01*
X103299484Y-71159540D01*
X103306348Y-71156253D01*
X103315376Y-71154043D01*
X103319836Y-71153870D01*
X103327874Y-71154598D01*
X103335617Y-71156095D01*
X103343065Y-71158362D01*
X103350218Y-71161398D01*
X103357076Y-71165202D01*
X103363638Y-71169777D01*
X103366181Y-71171822D01*
X103372408Y-71177787D01*
X103377580Y-71184119D01*
X103381696Y-71190817D01*
X103384757Y-71197882D01*
X103386762Y-71205314D01*
X103387712Y-71213113D01*
X103387796Y-71216335D01*
X103387373Y-71224429D01*
X103386307Y-71231719D01*
X103384593Y-71239201D01*
X103382230Y-71246875D01*
X103381019Y-71250224D01*
G37*
G36*
X103972880Y-71435238D02*
G01*
X103964403Y-71434798D01*
X103956351Y-71433480D01*
X103948724Y-71431282D01*
X103941522Y-71428205D01*
X103934745Y-71424249D01*
X103928393Y-71419415D01*
X103922466Y-71413701D01*
X103916964Y-71407108D01*
X103911887Y-71399636D01*
X103907235Y-71391285D01*
X103904370Y-71385229D01*
X103901160Y-71378305D01*
X103897296Y-71371212D01*
X103892772Y-71364614D01*
X103887579Y-71359285D01*
X103883670Y-71356836D01*
X103876393Y-71354904D01*
X103868361Y-71353977D01*
X103859552Y-71353462D01*
X103850852Y-71353229D01*
X103843004Y-71353172D01*
X103834819Y-71353578D01*
X103826478Y-71354795D01*
X103817978Y-71356824D01*
X103809321Y-71359664D01*
X103800507Y-71363315D01*
X103791536Y-71367778D01*
X103782406Y-71373052D01*
X103773120Y-71379138D01*
X103763676Y-71386035D01*
X103754075Y-71393744D01*
X103744316Y-71402264D01*
X103734400Y-71411596D01*
X103724326Y-71421739D01*
X103719230Y-71427114D01*
X103714095Y-71432693D01*
X103708921Y-71438475D01*
X103703707Y-71444459D01*
X103698454Y-71450646D01*
X103693161Y-71457036D01*
X103685835Y-71466086D01*
X103678743Y-71475099D01*
X103671882Y-71484076D01*
X103665254Y-71493017D01*
X103658859Y-71501922D01*
X103652696Y-71510791D01*
X103646766Y-71519624D01*
X103641069Y-71528420D01*
X103635604Y-71537180D01*
X103630371Y-71545905D01*
X103625371Y-71554593D01*
X103620604Y-71563245D01*
X103616069Y-71571861D01*
X103611767Y-71580440D01*
X103607697Y-71588984D01*
X103603860Y-71597491D01*
X103600255Y-71605962D01*
X103596883Y-71614398D01*
X103593744Y-71622797D01*
X103590837Y-71631160D01*
X103588162Y-71639486D01*
X103585720Y-71647777D01*
X103583511Y-71656031D01*
X103581534Y-71664250D01*
X103579790Y-71672432D01*
X103578279Y-71680578D01*
X103577000Y-71688688D01*
X103575953Y-71696762D01*
X103575139Y-71704799D01*
X103574558Y-71712801D01*
X103574209Y-71720766D01*
X103574093Y-71728695D01*
X103574423Y-71739371D01*
X103575413Y-71749761D01*
X103577063Y-71759863D01*
X103579373Y-71769680D01*
X103582344Y-71779209D01*
X103585974Y-71788452D01*
X103590265Y-71797409D01*
X103595216Y-71806078D01*
X103600827Y-71814462D01*
X103607098Y-71822558D01*
X103611645Y-71827797D01*
X103618851Y-71835163D01*
X103626317Y-71841804D01*
X103634045Y-71847721D01*
X103642033Y-71852913D01*
X103650282Y-71857381D01*
X103658792Y-71861124D01*
X103667563Y-71864143D01*
X103676594Y-71866437D01*
X103685887Y-71868007D01*
X103695440Y-71868852D01*
X103701954Y-71869013D01*
X103711517Y-71868775D01*
X103721108Y-71868060D01*
X103730729Y-71866868D01*
X103740379Y-71865200D01*
X103750058Y-71863056D01*
X103759766Y-71860435D01*
X103769502Y-71857337D01*
X103779268Y-71853763D01*
X103789063Y-71849712D01*
X103798886Y-71845185D01*
X103805452Y-71841902D01*
X103812240Y-71838042D01*
X103819119Y-71833846D01*
X103827286Y-71828665D01*
X103834257Y-71824133D01*
X103841952Y-71819048D01*
X103850372Y-71813409D01*
X103859516Y-71807215D01*
X103866015Y-71802779D01*
X103872836Y-71798096D01*
X103879978Y-71793168D01*
X103883670Y-71790611D01*
X103891053Y-71785766D01*
X103898087Y-71781397D01*
X103904774Y-71777506D01*
X103913149Y-71773058D01*
X103920906Y-71769457D01*
X103928044Y-71766704D01*
X103936098Y-71764453D01*
X103944487Y-71763500D01*
X103952080Y-71763858D01*
X103959382Y-71764931D01*
X103968098Y-71767279D01*
X103976358Y-71770745D01*
X103984162Y-71775329D01*
X103990077Y-71779801D01*
X103995700Y-71784989D01*
X103997060Y-71786398D01*
X104002865Y-71793243D01*
X104007686Y-71800383D01*
X104011523Y-71807819D01*
X104014377Y-71815550D01*
X104016246Y-71823575D01*
X104017131Y-71831896D01*
X104017210Y-71835307D01*
X104016792Y-71842878D01*
X104015539Y-71850202D01*
X104013449Y-71857281D01*
X104010524Y-71864113D01*
X104006763Y-71870699D01*
X104002166Y-71877039D01*
X103996734Y-71883132D01*
X103990466Y-71888980D01*
X103981599Y-71896407D01*
X103972723Y-71903598D01*
X103963838Y-71910553D01*
X103954943Y-71917273D01*
X103946038Y-71923757D01*
X103937123Y-71930005D01*
X103928199Y-71936017D01*
X103919265Y-71941793D01*
X103910321Y-71947334D01*
X103901368Y-71952639D01*
X103892405Y-71957708D01*
X103883433Y-71962542D01*
X103874451Y-71967139D01*
X103865459Y-71971501D01*
X103856457Y-71975627D01*
X103847446Y-71979518D01*
X103838425Y-71983172D01*
X103829395Y-71986591D01*
X103820355Y-71989774D01*
X103811305Y-71992721D01*
X103802245Y-71995432D01*
X103793176Y-71997908D01*
X103784097Y-72000148D01*
X103775009Y-72002152D01*
X103765911Y-72003920D01*
X103756803Y-72005453D01*
X103747686Y-72006750D01*
X103738559Y-72007811D01*
X103729422Y-72008636D01*
X103720276Y-72009225D01*
X103711119Y-72009579D01*
X103701954Y-72009697D01*
X103687600Y-72009360D01*
X103673529Y-72008349D01*
X103659740Y-72006664D01*
X103646232Y-72004304D01*
X103633006Y-72001271D01*
X103620063Y-71997564D01*
X103607401Y-71993183D01*
X103595021Y-71988127D01*
X103582923Y-71982398D01*
X103571107Y-71975994D01*
X103559573Y-71968917D01*
X103548321Y-71961165D01*
X103537351Y-71952739D01*
X103526663Y-71943640D01*
X103516256Y-71933866D01*
X103506132Y-71923418D01*
X103496904Y-71912929D01*
X103488272Y-71902209D01*
X103480235Y-71891257D01*
X103472793Y-71880073D01*
X103465946Y-71868657D01*
X103459695Y-71857009D01*
X103454040Y-71845129D01*
X103448979Y-71833018D01*
X103444514Y-71820674D01*
X103440644Y-71808099D01*
X103437370Y-71795292D01*
X103434691Y-71782253D01*
X103432607Y-71768983D01*
X103431119Y-71755480D01*
X103430226Y-71741746D01*
X103429928Y-71727780D01*
X103430076Y-71716770D01*
X103430518Y-71705745D01*
X103431255Y-71694706D01*
X103432287Y-71683653D01*
X103433613Y-71672584D01*
X103435235Y-71661501D01*
X103437151Y-71650403D01*
X103439362Y-71639291D01*
X103441868Y-71628164D01*
X103444669Y-71617022D01*
X103447764Y-71605866D01*
X103451154Y-71594695D01*
X103454840Y-71583509D01*
X103458820Y-71572309D01*
X103463094Y-71561094D01*
X103467664Y-71549864D01*
X103472528Y-71538619D01*
X103477687Y-71527360D01*
X103483141Y-71516087D01*
X103488890Y-71504798D01*
X103494934Y-71493495D01*
X103501272Y-71482177D01*
X103507905Y-71470845D01*
X103514833Y-71459498D01*
X103522056Y-71448136D01*
X103529574Y-71436760D01*
X103537386Y-71425369D01*
X103545493Y-71413963D01*
X103553895Y-71402542D01*
X103562592Y-71391107D01*
X103571584Y-71379657D01*
X103580870Y-71368193D01*
X103588890Y-71358613D01*
X103596921Y-71349338D01*
X103604963Y-71340367D01*
X103613016Y-71331700D01*
X103621080Y-71323337D01*
X103629155Y-71315278D01*
X103637242Y-71307523D01*
X103645339Y-71300072D01*
X103653447Y-71292926D01*
X103661567Y-71286083D01*
X103669698Y-71279545D01*
X103677840Y-71273310D01*
X103685992Y-71267380D01*
X103694156Y-71261754D01*
X103702331Y-71256432D01*
X103710517Y-71251414D01*
X103718715Y-71246701D01*
X103726923Y-71242291D01*
X103735142Y-71238186D01*
X103743373Y-71234384D01*
X103751615Y-71230887D01*
X103759867Y-71227694D01*
X103768131Y-71224805D01*
X103776406Y-71222220D01*
X103784692Y-71219939D01*
X103792989Y-71217962D01*
X103801297Y-71216290D01*
X103809616Y-71214921D01*
X103817946Y-71213857D01*
X103826288Y-71213096D01*
X103834640Y-71212640D01*
X103843004Y-71212488D01*
X103851367Y-71212546D01*
X103859422Y-71212720D01*
X103867167Y-71213010D01*
X103874603Y-71213416D01*
X103882888Y-71214035D01*
X103884037Y-71214137D01*
X103891841Y-71214848D01*
X103899224Y-71215700D01*
X103907146Y-71216844D01*
X103914519Y-71218173D01*
X103916277Y-71218533D01*
X103923550Y-71213414D01*
X103931289Y-71209163D01*
X103939493Y-71205779D01*
X103948162Y-71203263D01*
X103955432Y-71201875D01*
X103963000Y-71201042D01*
X103970865Y-71200765D01*
X103980368Y-71201291D01*
X103989163Y-71202870D01*
X103997250Y-71205503D01*
X104004628Y-71209188D01*
X104011298Y-71213926D01*
X104017259Y-71219717D01*
X104022512Y-71226562D01*
X104027056Y-71234459D01*
X104030892Y-71243409D01*
X104034020Y-71253411D01*
X104035712Y-71260665D01*
X104037283Y-71268862D01*
X104038700Y-71277310D01*
X104039962Y-71286010D01*
X104041070Y-71294960D01*
X104042023Y-71304162D01*
X104042821Y-71313615D01*
X104043465Y-71323319D01*
X104043955Y-71333274D01*
X104044290Y-71343480D01*
X104044470Y-71353938D01*
X104044504Y-71361049D01*
X104044138Y-71368899D01*
X104043037Y-71376533D01*
X104041204Y-71383954D01*
X104038637Y-71391159D01*
X104035336Y-71398150D01*
X104031302Y-71404927D01*
X104029483Y-71407577D01*
X104024351Y-71414060D01*
X104018664Y-71419679D01*
X104012422Y-71424433D01*
X104005624Y-71428323D01*
X103998271Y-71431348D01*
X103990363Y-71433509D01*
X103981899Y-71434805D01*
X103972880Y-71435238D01*
G37*
D11*
%TO.C,TVS2*%
X112416668Y-73808690D02*
X112702382Y-73808690D01*
X112559525Y-74308690D02*
X112559525Y-73808690D01*
X112797620Y-73808690D02*
X112964286Y-74308690D01*
X112964286Y-74308690D02*
X113130953Y-73808690D01*
X113273810Y-74284880D02*
X113345238Y-74308690D01*
X113345238Y-74308690D02*
X113464286Y-74308690D01*
X113464286Y-74308690D02*
X113511905Y-74284880D01*
X113511905Y-74284880D02*
X113535714Y-74261071D01*
X113535714Y-74261071D02*
X113559524Y-74213452D01*
X113559524Y-74213452D02*
X113559524Y-74165833D01*
X113559524Y-74165833D02*
X113535714Y-74118214D01*
X113535714Y-74118214D02*
X113511905Y-74094404D01*
X113511905Y-74094404D02*
X113464286Y-74070595D01*
X113464286Y-74070595D02*
X113369048Y-74046785D01*
X113369048Y-74046785D02*
X113321429Y-74022976D01*
X113321429Y-74022976D02*
X113297619Y-73999166D01*
X113297619Y-73999166D02*
X113273810Y-73951547D01*
X113273810Y-73951547D02*
X113273810Y-73903928D01*
X113273810Y-73903928D02*
X113297619Y-73856309D01*
X113297619Y-73856309D02*
X113321429Y-73832500D01*
X113321429Y-73832500D02*
X113369048Y-73808690D01*
X113369048Y-73808690D02*
X113488095Y-73808690D01*
X113488095Y-73808690D02*
X113559524Y-73832500D01*
X113750000Y-73856309D02*
X113773809Y-73832500D01*
X113773809Y-73832500D02*
X113821428Y-73808690D01*
X113821428Y-73808690D02*
X113940476Y-73808690D01*
X113940476Y-73808690D02*
X113988095Y-73832500D01*
X113988095Y-73832500D02*
X114011904Y-73856309D01*
X114011904Y-73856309D02*
X114035714Y-73903928D01*
X114035714Y-73903928D02*
X114035714Y-73951547D01*
X114035714Y-73951547D02*
X114011904Y-74022976D01*
X114011904Y-74022976D02*
X113726190Y-74308690D01*
X113726190Y-74308690D02*
X114035714Y-74308690D01*
%TO.C,D1*%
X102300952Y-80683690D02*
X102300952Y-80183690D01*
X102300952Y-80183690D02*
X102420000Y-80183690D01*
X102420000Y-80183690D02*
X102491428Y-80207500D01*
X102491428Y-80207500D02*
X102539047Y-80255119D01*
X102539047Y-80255119D02*
X102562857Y-80302738D01*
X102562857Y-80302738D02*
X102586666Y-80397976D01*
X102586666Y-80397976D02*
X102586666Y-80469404D01*
X102586666Y-80469404D02*
X102562857Y-80564642D01*
X102562857Y-80564642D02*
X102539047Y-80612261D01*
X102539047Y-80612261D02*
X102491428Y-80659880D01*
X102491428Y-80659880D02*
X102420000Y-80683690D01*
X102420000Y-80683690D02*
X102300952Y-80683690D01*
X103062857Y-80683690D02*
X102777143Y-80683690D01*
X102920000Y-80683690D02*
X102920000Y-80183690D01*
X102920000Y-80183690D02*
X102872381Y-80255119D01*
X102872381Y-80255119D02*
X102824762Y-80302738D01*
X102824762Y-80302738D02*
X102777143Y-80326547D01*
%TO.C,TVS1*%
X109166668Y-73808690D02*
X109452382Y-73808690D01*
X109309525Y-74308690D02*
X109309525Y-73808690D01*
X109547620Y-73808690D02*
X109714286Y-74308690D01*
X109714286Y-74308690D02*
X109880953Y-73808690D01*
X110023810Y-74284880D02*
X110095238Y-74308690D01*
X110095238Y-74308690D02*
X110214286Y-74308690D01*
X110214286Y-74308690D02*
X110261905Y-74284880D01*
X110261905Y-74284880D02*
X110285714Y-74261071D01*
X110285714Y-74261071D02*
X110309524Y-74213452D01*
X110309524Y-74213452D02*
X110309524Y-74165833D01*
X110309524Y-74165833D02*
X110285714Y-74118214D01*
X110285714Y-74118214D02*
X110261905Y-74094404D01*
X110261905Y-74094404D02*
X110214286Y-74070595D01*
X110214286Y-74070595D02*
X110119048Y-74046785D01*
X110119048Y-74046785D02*
X110071429Y-74022976D01*
X110071429Y-74022976D02*
X110047619Y-73999166D01*
X110047619Y-73999166D02*
X110023810Y-73951547D01*
X110023810Y-73951547D02*
X110023810Y-73903928D01*
X110023810Y-73903928D02*
X110047619Y-73856309D01*
X110047619Y-73856309D02*
X110071429Y-73832500D01*
X110071429Y-73832500D02*
X110119048Y-73808690D01*
X110119048Y-73808690D02*
X110238095Y-73808690D01*
X110238095Y-73808690D02*
X110309524Y-73832500D01*
X110785714Y-74308690D02*
X110500000Y-74308690D01*
X110642857Y-74308690D02*
X110642857Y-73808690D01*
X110642857Y-73808690D02*
X110595238Y-73880119D01*
X110595238Y-73880119D02*
X110547619Y-73927738D01*
X110547619Y-73927738D02*
X110500000Y-73951547D01*
%TO.C,D2*%
X101180952Y-91508690D02*
X101180952Y-91008690D01*
X101180952Y-91008690D02*
X101300000Y-91008690D01*
X101300000Y-91008690D02*
X101371428Y-91032500D01*
X101371428Y-91032500D02*
X101419047Y-91080119D01*
X101419047Y-91080119D02*
X101442857Y-91127738D01*
X101442857Y-91127738D02*
X101466666Y-91222976D01*
X101466666Y-91222976D02*
X101466666Y-91294404D01*
X101466666Y-91294404D02*
X101442857Y-91389642D01*
X101442857Y-91389642D02*
X101419047Y-91437261D01*
X101419047Y-91437261D02*
X101371428Y-91484880D01*
X101371428Y-91484880D02*
X101300000Y-91508690D01*
X101300000Y-91508690D02*
X101180952Y-91508690D01*
X101657143Y-91056309D02*
X101680952Y-91032500D01*
X101680952Y-91032500D02*
X101728571Y-91008690D01*
X101728571Y-91008690D02*
X101847619Y-91008690D01*
X101847619Y-91008690D02*
X101895238Y-91032500D01*
X101895238Y-91032500D02*
X101919047Y-91056309D01*
X101919047Y-91056309D02*
X101942857Y-91103928D01*
X101942857Y-91103928D02*
X101942857Y-91151547D01*
X101942857Y-91151547D02*
X101919047Y-91222976D01*
X101919047Y-91222976D02*
X101633333Y-91508690D01*
X101633333Y-91508690D02*
X101942857Y-91508690D01*
%TO.C,J1*%
X109833333Y-93183690D02*
X109833333Y-93540833D01*
X109833333Y-93540833D02*
X109809524Y-93612261D01*
X109809524Y-93612261D02*
X109761905Y-93659880D01*
X109761905Y-93659880D02*
X109690476Y-93683690D01*
X109690476Y-93683690D02*
X109642857Y-93683690D01*
X110333333Y-93683690D02*
X110047619Y-93683690D01*
X110190476Y-93683690D02*
X110190476Y-93183690D01*
X110190476Y-93183690D02*
X110142857Y-93255119D01*
X110142857Y-93255119D02*
X110095238Y-93302738D01*
X110095238Y-93302738D02*
X110047619Y-93326547D01*
%TO.C,R1*%
X101466666Y-87408690D02*
X101300000Y-87170595D01*
X101180952Y-87408690D02*
X101180952Y-86908690D01*
X101180952Y-86908690D02*
X101371428Y-86908690D01*
X101371428Y-86908690D02*
X101419047Y-86932500D01*
X101419047Y-86932500D02*
X101442857Y-86956309D01*
X101442857Y-86956309D02*
X101466666Y-87003928D01*
X101466666Y-87003928D02*
X101466666Y-87075357D01*
X101466666Y-87075357D02*
X101442857Y-87122976D01*
X101442857Y-87122976D02*
X101419047Y-87146785D01*
X101419047Y-87146785D02*
X101371428Y-87170595D01*
X101371428Y-87170595D02*
X101180952Y-87170595D01*
X101942857Y-87408690D02*
X101657143Y-87408690D01*
X101800000Y-87408690D02*
X101800000Y-86908690D01*
X101800000Y-86908690D02*
X101752381Y-86980119D01*
X101752381Y-86980119D02*
X101704762Y-87027738D01*
X101704762Y-87027738D02*
X101657143Y-87051547D01*
%TO.C,Q1*%
X101327380Y-86231309D02*
X101279761Y-86207500D01*
X101279761Y-86207500D02*
X101232142Y-86159880D01*
X101232142Y-86159880D02*
X101160714Y-86088452D01*
X101160714Y-86088452D02*
X101113095Y-86064642D01*
X101113095Y-86064642D02*
X101065476Y-86064642D01*
X101089285Y-86183690D02*
X101041666Y-86159880D01*
X101041666Y-86159880D02*
X100994047Y-86112261D01*
X100994047Y-86112261D02*
X100970238Y-86017023D01*
X100970238Y-86017023D02*
X100970238Y-85850357D01*
X100970238Y-85850357D02*
X100994047Y-85755119D01*
X100994047Y-85755119D02*
X101041666Y-85707500D01*
X101041666Y-85707500D02*
X101089285Y-85683690D01*
X101089285Y-85683690D02*
X101184523Y-85683690D01*
X101184523Y-85683690D02*
X101232142Y-85707500D01*
X101232142Y-85707500D02*
X101279761Y-85755119D01*
X101279761Y-85755119D02*
X101303571Y-85850357D01*
X101303571Y-85850357D02*
X101303571Y-86017023D01*
X101303571Y-86017023D02*
X101279761Y-86112261D01*
X101279761Y-86112261D02*
X101232142Y-86159880D01*
X101232142Y-86159880D02*
X101184523Y-86183690D01*
X101184523Y-86183690D02*
X101089285Y-86183690D01*
X101779762Y-86183690D02*
X101494048Y-86183690D01*
X101636905Y-86183690D02*
X101636905Y-85683690D01*
X101636905Y-85683690D02*
X101589286Y-85755119D01*
X101589286Y-85755119D02*
X101541667Y-85802738D01*
X101541667Y-85802738D02*
X101494048Y-85826547D01*
%TO.C,R2*%
X104916666Y-84871190D02*
X104750000Y-84633095D01*
X104630952Y-84871190D02*
X104630952Y-84371190D01*
X104630952Y-84371190D02*
X104821428Y-84371190D01*
X104821428Y-84371190D02*
X104869047Y-84395000D01*
X104869047Y-84395000D02*
X104892857Y-84418809D01*
X104892857Y-84418809D02*
X104916666Y-84466428D01*
X104916666Y-84466428D02*
X104916666Y-84537857D01*
X104916666Y-84537857D02*
X104892857Y-84585476D01*
X104892857Y-84585476D02*
X104869047Y-84609285D01*
X104869047Y-84609285D02*
X104821428Y-84633095D01*
X104821428Y-84633095D02*
X104630952Y-84633095D01*
X105107143Y-84418809D02*
X105130952Y-84395000D01*
X105130952Y-84395000D02*
X105178571Y-84371190D01*
X105178571Y-84371190D02*
X105297619Y-84371190D01*
X105297619Y-84371190D02*
X105345238Y-84395000D01*
X105345238Y-84395000D02*
X105369047Y-84418809D01*
X105369047Y-84418809D02*
X105392857Y-84466428D01*
X105392857Y-84466428D02*
X105392857Y-84514047D01*
X105392857Y-84514047D02*
X105369047Y-84585476D01*
X105369047Y-84585476D02*
X105083333Y-84871190D01*
X105083333Y-84871190D02*
X105392857Y-84871190D01*
D12*
%TO.C,J2*%
X109825399Y-58454628D02*
X109825399Y-58883200D01*
X109825399Y-58883200D02*
X109796828Y-58968914D01*
X109796828Y-58968914D02*
X109739685Y-59026057D01*
X109739685Y-59026057D02*
X109653971Y-59054628D01*
X109653971Y-59054628D02*
X109596828Y-59054628D01*
X110082542Y-58511771D02*
X110111114Y-58483200D01*
X110111114Y-58483200D02*
X110168257Y-58454628D01*
X110168257Y-58454628D02*
X110311114Y-58454628D01*
X110311114Y-58454628D02*
X110368257Y-58483200D01*
X110368257Y-58483200D02*
X110396828Y-58511771D01*
X110396828Y-58511771D02*
X110425399Y-58568914D01*
X110425399Y-58568914D02*
X110425399Y-58626057D01*
X110425399Y-58626057D02*
X110396828Y-58711771D01*
X110396828Y-58711771D02*
X110053971Y-59054628D01*
X110053971Y-59054628D02*
X110425399Y-59054628D01*
D11*
%TO.C,U1*%
X109619047Y-80183690D02*
X109619047Y-80588452D01*
X109619047Y-80588452D02*
X109642857Y-80636071D01*
X109642857Y-80636071D02*
X109666666Y-80659880D01*
X109666666Y-80659880D02*
X109714285Y-80683690D01*
X109714285Y-80683690D02*
X109809523Y-80683690D01*
X109809523Y-80683690D02*
X109857142Y-80659880D01*
X109857142Y-80659880D02*
X109880952Y-80636071D01*
X109880952Y-80636071D02*
X109904761Y-80588452D01*
X109904761Y-80588452D02*
X109904761Y-80183690D01*
X110404762Y-80683690D02*
X110119048Y-80683690D01*
X110261905Y-80683690D02*
X110261905Y-80183690D01*
X110261905Y-80183690D02*
X110214286Y-80255119D01*
X110214286Y-80255119D02*
X110166667Y-80302738D01*
X110166667Y-80302738D02*
X110119048Y-80326547D01*
D13*
%TO.C,C1*%
X108440580Y-77260000D02*
X108159420Y-77260000D01*
X108440580Y-76240000D02*
X108159420Y-76240000D01*
%TO.C,R3*%
X111887258Y-77272500D02*
X111412742Y-77272500D01*
X111887258Y-76227500D02*
X111412742Y-76227500D01*
D12*
%TO.C,REF\u002A\u002A*%
X100750000Y-72500000D02*
X105250000Y-72500000D01*
X105250000Y-72500000D02*
X105250000Y-75375000D01*
X105250000Y-75375000D02*
X100750000Y-75375000D01*
X100750000Y-75375000D02*
X100750000Y-72500000D01*
G36*
X100750000Y-72500000D02*
G01*
X105250000Y-72500000D01*
X105250000Y-75375000D01*
X100750000Y-75375000D01*
X100750000Y-72500000D01*
G37*
X101650000Y-70855000D02*
X104350000Y-70855000D01*
X104350000Y-70855000D02*
X104350000Y-72500000D01*
X104350000Y-72500000D02*
X101650000Y-72500000D01*
X101650000Y-72500000D02*
X101650000Y-70855000D01*
X101900000Y-70855000D02*
G75*
G03*
X101650000Y-71105000I-1J-249999D01*
G01*
X101400000Y-72500000D02*
G75*
G03*
X101650000Y-72250000I1J249999D01*
G01*
X101650000Y-72250000D02*
G75*
G03*
X101900000Y-72500000I249999J-1D01*
G01*
X104350000Y-71105000D02*
G75*
G03*
X104100000Y-70855000I-250000J0D01*
G01*
X104100000Y-72500000D02*
G75*
G03*
X104350000Y-72250000I0J250000D01*
G01*
X104350000Y-72250000D02*
G75*
G03*
X104600000Y-72500000I250000J0D01*
G01*
D13*
%TO.C,TVS2*%
X112090000Y-73320000D02*
X112090000Y-74730000D01*
X114410000Y-74730000D02*
X114410000Y-72700000D01*
X114410000Y-74730000D02*
X113750000Y-74730000D01*
X112750000Y-74730000D02*
X112090000Y-74730000D01*
%TO.C,D1*%
X101185000Y-81052500D02*
X101185000Y-82522500D01*
X101185000Y-82522500D02*
X103470000Y-82522500D01*
X103470000Y-81052500D02*
X101185000Y-81052500D01*
%TO.C,TVS1*%
X108840000Y-73320000D02*
X108840000Y-74730000D01*
X111160000Y-74730000D02*
X111160000Y-72700000D01*
X111160000Y-74730000D02*
X110500000Y-74730000D01*
X109500000Y-74730000D02*
X108840000Y-74730000D01*
%TO.C,D2*%
X100590000Y-95110000D02*
X102510000Y-95110000D01*
X102510000Y-95110000D02*
X102510000Y-92425000D01*
X100590000Y-92425000D02*
X100590000Y-95110000D01*
D14*
%TO.C,J1*%
X102875300Y-89728100D02*
X102875300Y-97271900D01*
X103667960Y-89728100D02*
X102875300Y-89728100D01*
X107167961Y-89728100D02*
X105832040Y-89728100D01*
X110667962Y-89728100D02*
X109332041Y-89728100D01*
X114167962Y-89728100D02*
X112832042Y-89728100D01*
X117124700Y-89728100D02*
X116332042Y-89728100D01*
X117124700Y-97271900D02*
X117124700Y-89728100D01*
D13*
%TO.C,R1*%
X102072500Y-88987742D02*
X102072500Y-89462258D01*
X101027500Y-88987742D02*
X101027500Y-89462258D01*
%TO.C,Q1*%
X104060000Y-84537500D02*
X104060000Y-82862500D01*
X104060000Y-84537500D02*
X104060000Y-85187500D01*
X100940000Y-84537500D02*
X100940000Y-83887500D01*
X100940000Y-84537500D02*
X100940000Y-85187500D01*
%TO.C,R2*%
X105522500Y-82375242D02*
X105522500Y-82849758D01*
X104477500Y-82375242D02*
X104477500Y-82849758D01*
D14*
%TO.C,J2*%
X117620000Y-68505000D02*
X117620000Y-63475000D01*
X117620000Y-68505000D02*
X115620000Y-68505000D01*
X117620000Y-50345000D02*
X117620000Y-52000000D01*
X117620000Y-50345000D02*
X112900000Y-50345000D01*
X102380000Y-68505000D02*
X104380000Y-68505000D01*
X102380000Y-68505000D02*
X102380000Y-63505000D01*
X102380000Y-50345000D02*
X107100000Y-50345000D01*
X102380000Y-50345000D02*
X102380000Y-52000000D01*
D13*
%TO.C,U1*%
X110000000Y-77940000D02*
X106550000Y-77940000D01*
X110000000Y-77940000D02*
X111950000Y-77940000D01*
X110000000Y-83060000D02*
X108050000Y-83060000D01*
X110000000Y-83060000D02*
X111950000Y-83060000D01*
%TD*%
M02*
