%TF.GenerationSoftware,KiCad,Pcbnew,(7.0.0)*%
%TF.CreationDate,2024-01-19T13:27:31-08:00*%
%TF.ProjectId,M.E.S.S.I Basic,4d2e452e-532e-4532-9e49-204261736963,rev?*%
%TF.SameCoordinates,Original*%
%TF.FileFunction,Soldermask,Top*%
%TF.FilePolarity,Negative*%
%FSLAX46Y46*%
G04 Gerber Fmt 4.6, Leading zero omitted, Abs format (unit mm)*
G04 Created by KiCad (PCBNEW (7.0.0)) date 2024-01-19 13:27:31*
%MOMM*%
%LPD*%
G01*
G04 APERTURE LIST*
G04 Aperture macros list*
%AMRoundRect*
0 Rectangle with rounded corners*
0 $1 Rounding radius*
0 $2 $3 $4 $5 $6 $7 $8 $9 X,Y pos of 4 corners*
0 Add a 4 corners polygon primitive as box body*
4,1,4,$2,$3,$4,$5,$6,$7,$8,$9,$2,$3,0*
0 Add four circle primitives for the rounded corners*
1,1,$1+$1,$2,$3*
1,1,$1+$1,$4,$5*
1,1,$1+$1,$6,$7*
1,1,$1+$1,$8,$9*
0 Add four rect primitives between the rounded corners*
20,1,$1+$1,$2,$3,$4,$5,0*
20,1,$1+$1,$4,$5,$6,$7,0*
20,1,$1+$1,$6,$7,$8,$9,0*
20,1,$1+$1,$8,$9,$2,$3,0*%
G04 Aperture macros list end*
%ADD10C,0.150000*%
%ADD11RoundRect,0.225000X0.225000X0.250000X-0.225000X0.250000X-0.225000X-0.250000X0.225000X-0.250000X0*%
%ADD12C,0.800000*%
%ADD13C,5.400000*%
%ADD14RoundRect,0.200000X0.200000X0.275000X-0.200000X0.275000X-0.200000X-0.275000X0.200000X-0.275000X0*%
%ADD15R,0.450000X0.700000*%
%ADD16RoundRect,0.218750X-0.218750X-0.256250X0.218750X-0.256250X0.218750X0.256250X-0.218750X0.256250X0*%
%ADD17RoundRect,0.243750X0.456250X-0.243750X0.456250X0.243750X-0.456250X0.243750X-0.456250X-0.243750X0*%
%ADD18C,1.397000*%
%ADD19R,1.498600X3.098800*%
%ADD20RoundRect,0.200000X-0.275000X0.200000X-0.275000X-0.200000X0.275000X-0.200000X0.275000X0.200000X0*%
%ADD21RoundRect,0.150000X-0.150000X0.587500X-0.150000X-0.587500X0.150000X-0.587500X0.150000X0.587500X0*%
%ADD22C,3.250000*%
%ADD23RoundRect,0.190000X0.190000X2.985000X-0.190000X2.985000X-0.190000X-2.985000X0.190000X-2.985000X0*%
%ADD24RoundRect,0.635000X0.635000X0.835000X-0.635000X0.835000X-0.635000X-0.835000X0.635000X-0.835000X0*%
%ADD25RoundRect,0.150000X-0.825000X-0.150000X0.825000X-0.150000X0.825000X0.150000X-0.825000X0.150000X0*%
G04 APERTURE END LIST*
D10*
X118195476Y-97338797D02*
X117978809Y-97029273D01*
X117824047Y-97338797D02*
X117824047Y-96688797D01*
X117824047Y-96688797D02*
X118071666Y-96688797D01*
X118071666Y-96688797D02*
X118133571Y-96719750D01*
X118133571Y-96719750D02*
X118164524Y-96750702D01*
X118164524Y-96750702D02*
X118195476Y-96812607D01*
X118195476Y-96812607D02*
X118195476Y-96905464D01*
X118195476Y-96905464D02*
X118164524Y-96967369D01*
X118164524Y-96967369D02*
X118133571Y-96998321D01*
X118133571Y-96998321D02*
X118071666Y-97029273D01*
X118071666Y-97029273D02*
X117824047Y-97029273D01*
X118721666Y-97307845D02*
X118659762Y-97338797D01*
X118659762Y-97338797D02*
X118535952Y-97338797D01*
X118535952Y-97338797D02*
X118474047Y-97307845D01*
X118474047Y-97307845D02*
X118443095Y-97245940D01*
X118443095Y-97245940D02*
X118443095Y-96998321D01*
X118443095Y-96998321D02*
X118474047Y-96936416D01*
X118474047Y-96936416D02*
X118535952Y-96905464D01*
X118535952Y-96905464D02*
X118659762Y-96905464D01*
X118659762Y-96905464D02*
X118721666Y-96936416D01*
X118721666Y-96936416D02*
X118752619Y-96998321D01*
X118752619Y-96998321D02*
X118752619Y-97060226D01*
X118752619Y-97060226D02*
X118443095Y-97122130D01*
X118969286Y-96905464D02*
X119124048Y-97338797D01*
X119124048Y-97338797D02*
X119278809Y-96905464D01*
X119885476Y-96750702D02*
X119916428Y-96719750D01*
X119916428Y-96719750D02*
X119978333Y-96688797D01*
X119978333Y-96688797D02*
X120133095Y-96688797D01*
X120133095Y-96688797D02*
X120195000Y-96719750D01*
X120195000Y-96719750D02*
X120225952Y-96750702D01*
X120225952Y-96750702D02*
X120256905Y-96812607D01*
X120256905Y-96812607D02*
X120256905Y-96874511D01*
X120256905Y-96874511D02*
X120225952Y-96967369D01*
X120225952Y-96967369D02*
X119854524Y-97338797D01*
X119854524Y-97338797D02*
X120256905Y-97338797D01*
D11*
%TO.C,C1*%
X109075000Y-76750000D03*
X107525000Y-76750000D03*
%TD*%
D12*
%TO.C,H1*%
X123000000Y-55025000D03*
X121568109Y-54431891D03*
X124431891Y-54431891D03*
X120975000Y-53000000D03*
D13*
X123000000Y-53000000D03*
D12*
X125025000Y-53000000D03*
X121568109Y-51568109D03*
X124431891Y-51568109D03*
X123000000Y-50975000D03*
%TD*%
%TO.C,H2*%
X94975000Y-53000000D03*
X95568109Y-51568109D03*
X95568109Y-54431891D03*
X97000000Y-50975000D03*
D13*
X97000000Y-53000000D03*
D12*
X97000000Y-55025000D03*
X98431891Y-51568109D03*
X98431891Y-54431891D03*
X99025000Y-53000000D03*
%TD*%
D14*
%TO.C,R3*%
X112475000Y-76750000D03*
X110825000Y-76750000D03*
%TD*%
D12*
%TO.C,H3*%
X94975000Y-95000000D03*
X95568109Y-93568109D03*
X95568109Y-96431891D03*
X97000000Y-92975000D03*
D13*
X97000000Y-95000000D03*
D12*
X97000000Y-97025000D03*
X98431891Y-93568109D03*
X98431891Y-96431891D03*
X99025000Y-95000000D03*
%TD*%
D15*
%TO.C,TVS2*%
X113899999Y-72999999D03*
X112599999Y-72999999D03*
X113249999Y-74999999D03*
%TD*%
D16*
%TO.C,D1*%
X101882500Y-81787500D03*
X103457500Y-81787500D03*
%TD*%
D12*
%TO.C,H4*%
X120975000Y-95000000D03*
X121568109Y-93568109D03*
X121568109Y-96431891D03*
X123000000Y-92975000D03*
D13*
X123000000Y-95000000D03*
D12*
X123000000Y-97025000D03*
X124431891Y-93568109D03*
X124431891Y-96431891D03*
X125025000Y-95000000D03*
%TD*%
D15*
%TO.C,TVS1*%
X110649999Y-72999999D03*
X109349999Y-72999999D03*
X109999999Y-74999999D03*
%TD*%
D17*
%TO.C,D2*%
X101550000Y-94362500D03*
X101550000Y-92487500D03*
%TD*%
D18*
%TO.C,J1*%
X104750000Y-96804621D03*
X115250000Y-96804621D03*
D19*
X104749999Y-88554619D03*
X108250000Y-88554619D03*
X111750001Y-88554619D03*
X115250001Y-88554619D03*
%TD*%
D20*
%TO.C,R1*%
X101550000Y-88400000D03*
X101550000Y-90050000D03*
%TD*%
D21*
%TO.C,Q1*%
X103450000Y-83600000D03*
X101550000Y-83600000D03*
X102500000Y-85475000D03*
%TD*%
D20*
%TO.C,R2*%
X105000000Y-81787500D03*
X105000000Y-83437500D03*
%TD*%
D22*
%TO.C,J2*%
X115715000Y-58250000D03*
X104285000Y-58250000D03*
D23*
X114445000Y-68475000D03*
X113175000Y-68475000D03*
X111905000Y-68475000D03*
X110635000Y-68475000D03*
X109365000Y-68475000D03*
X108095000Y-68475000D03*
X106825000Y-68475000D03*
X105555000Y-68475000D03*
D24*
X118465000Y-55200000D03*
X101535000Y-55200000D03*
%TD*%
D25*
%TO.C,U1*%
X107525000Y-78595000D03*
X107525000Y-79865000D03*
X107525000Y-81135000D03*
X107525000Y-82405000D03*
X112475000Y-82405000D03*
X112475000Y-81135000D03*
X112475000Y-79865000D03*
X112475000Y-78595000D03*
%TD*%
M02*
