%TF.GenerationSoftware,KiCad,Pcbnew,(7.0.0)*%
%TF.CreationDate,2024-01-19T13:27:31-08:00*%
%TF.ProjectId,M.E.S.S.I Basic,4d2e452e-532e-4532-9e49-204261736963,rev?*%
%TF.SameCoordinates,Original*%
%TF.FileFunction,Copper,L2,Bot*%
%TF.FilePolarity,Positive*%
%FSLAX46Y46*%
G04 Gerber Fmt 4.6, Leading zero omitted, Abs format (unit mm)*
G04 Created by KiCad (PCBNEW (7.0.0)) date 2024-01-19 13:27:31*
%MOMM*%
%LPD*%
G01*
G04 APERTURE LIST*
%TA.AperFunction,ComponentPad*%
%ADD10C,0.800000*%
%TD*%
%TA.AperFunction,ComponentPad*%
%ADD11C,5.400000*%
%TD*%
%TA.AperFunction,ViaPad*%
%ADD12C,0.762000*%
%TD*%
G04 APERTURE END LIST*
D10*
%TO.P,H1,1,1*%
%TO.N,GND*%
X123000000Y-55025000D03*
X121568109Y-54431891D03*
X124431891Y-54431891D03*
X120975000Y-53000000D03*
D11*
X123000000Y-53000000D03*
D10*
X125025000Y-53000000D03*
X121568109Y-51568109D03*
X124431891Y-51568109D03*
X123000000Y-50975000D03*
%TD*%
%TO.P,H2,1,1*%
%TO.N,GND*%
X94975000Y-53000000D03*
X95568109Y-51568109D03*
X95568109Y-54431891D03*
X97000000Y-50975000D03*
D11*
X97000000Y-53000000D03*
D10*
X97000000Y-55025000D03*
X98431891Y-51568109D03*
X98431891Y-54431891D03*
X99025000Y-53000000D03*
%TD*%
%TO.P,H3,1,1*%
%TO.N,GND*%
X94975000Y-95000000D03*
X95568109Y-93568109D03*
X95568109Y-96431891D03*
X97000000Y-92975000D03*
D11*
X97000000Y-95000000D03*
D10*
X97000000Y-97025000D03*
X98431891Y-93568109D03*
X98431891Y-96431891D03*
X99025000Y-95000000D03*
%TD*%
%TO.P,H4,1,1*%
%TO.N,GND*%
X120975000Y-95000000D03*
X121568109Y-93568109D03*
X121568109Y-96431891D03*
X123000000Y-92975000D03*
D11*
X123000000Y-95000000D03*
D10*
X123000000Y-97025000D03*
X124431891Y-93568109D03*
X124431891Y-96431891D03*
X125025000Y-95000000D03*
%TD*%
D12*
%TO.N,GND*%
X111625000Y-75725000D03*
X113250000Y-75925000D03*
%TD*%
%TA.AperFunction,Conductor*%
%TO.N,GND*%
G36*
X123002777Y-50000655D02*
G01*
X123239565Y-50013953D01*
X123239764Y-50014017D01*
X123239768Y-50013965D01*
X123246176Y-50014338D01*
X123332204Y-50019348D01*
X123343000Y-50020577D01*
X123533632Y-50052967D01*
X123669976Y-50077008D01*
X123680183Y-50079371D01*
X123856879Y-50130277D01*
X123857721Y-50130524D01*
X123998963Y-50172809D01*
X124008425Y-50176175D01*
X124174638Y-50245023D01*
X124175916Y-50245564D01*
X124314822Y-50305482D01*
X124323492Y-50309735D01*
X124479131Y-50395754D01*
X124480598Y-50396583D01*
X124613465Y-50473293D01*
X124621247Y-50478285D01*
X124765081Y-50580340D01*
X124766895Y-50581659D01*
X124891006Y-50674056D01*
X124897843Y-50679637D01*
X124986846Y-50759175D01*
X125028668Y-50796549D01*
X125030638Y-50798358D01*
X125143794Y-50905116D01*
X125149674Y-50911158D01*
X125266172Y-51041519D01*
X125268192Y-51043851D01*
X125368565Y-51163471D01*
X125373468Y-51169819D01*
X125474384Y-51312047D01*
X125476356Y-51314934D01*
X125562389Y-51445741D01*
X125566323Y-51452254D01*
X125650510Y-51604578D01*
X125652333Y-51608035D01*
X125722758Y-51748263D01*
X125725752Y-51754809D01*
X125792258Y-51915370D01*
X125793823Y-51919395D01*
X125847556Y-52067024D01*
X125849658Y-52073477D01*
X125897726Y-52240323D01*
X125898927Y-52244899D01*
X125935200Y-52397949D01*
X125936469Y-52404197D01*
X125965527Y-52575219D01*
X125966257Y-52580309D01*
X125984530Y-52736652D01*
X125985043Y-52742593D01*
X125994768Y-52915737D01*
X125994924Y-52921289D01*
X125994924Y-53078711D01*
X125994768Y-53084263D01*
X125985043Y-53257405D01*
X125984530Y-53263346D01*
X125966257Y-53419689D01*
X125965527Y-53424779D01*
X125936469Y-53595801D01*
X125935200Y-53602049D01*
X125898927Y-53755099D01*
X125897726Y-53759675D01*
X125849658Y-53926521D01*
X125847556Y-53932974D01*
X125793823Y-54080603D01*
X125792258Y-54084628D01*
X125725752Y-54245189D01*
X125722758Y-54251735D01*
X125652333Y-54391963D01*
X125650510Y-54395420D01*
X125566323Y-54547744D01*
X125562389Y-54554257D01*
X125476356Y-54685064D01*
X125474384Y-54687951D01*
X125373468Y-54830179D01*
X125368565Y-54836527D01*
X125268192Y-54956147D01*
X125266172Y-54958479D01*
X125149674Y-55088840D01*
X125143794Y-55094882D01*
X125030638Y-55201640D01*
X125028668Y-55203449D01*
X124897848Y-55320357D01*
X124890999Y-55325948D01*
X124766912Y-55418327D01*
X124765081Y-55419658D01*
X124621247Y-55521713D01*
X124613459Y-55526708D01*
X124480671Y-55603374D01*
X124479059Y-55604285D01*
X124323498Y-55690260D01*
X124314822Y-55694516D01*
X124175916Y-55754434D01*
X124174590Y-55754995D01*
X124008443Y-55823816D01*
X123998950Y-55827193D01*
X123857764Y-55869461D01*
X123856777Y-55869751D01*
X123680184Y-55920626D01*
X123669970Y-55922991D01*
X123533812Y-55947000D01*
X123533203Y-55947105D01*
X123343017Y-55979419D01*
X123332190Y-55980651D01*
X123239769Y-55986034D01*
X123239565Y-55986045D01*
X123012655Y-55998789D01*
X123002776Y-55999344D01*
X122997227Y-55999500D01*
X122842750Y-55999500D01*
X122840196Y-55999768D01*
X122840185Y-55999769D01*
X122532540Y-56032104D01*
X122532534Y-56032104D01*
X122529974Y-56032374D01*
X122527459Y-56032908D01*
X122527450Y-56032910D01*
X122224871Y-56097225D01*
X122224858Y-56097228D01*
X122222348Y-56097762D01*
X122219904Y-56098555D01*
X122219893Y-56098559D01*
X121925700Y-56194147D01*
X121925682Y-56194153D01*
X121923241Y-56194947D01*
X121920885Y-56195995D01*
X121920877Y-56195999D01*
X121638294Y-56321813D01*
X121638272Y-56321823D01*
X121635932Y-56322866D01*
X121633702Y-56324153D01*
X121633695Y-56324157D01*
X121365798Y-56478827D01*
X121365790Y-56478831D01*
X121363568Y-56480115D01*
X121361498Y-56481618D01*
X121361484Y-56481628D01*
X121111226Y-56663451D01*
X121111209Y-56663464D01*
X121109133Y-56664973D01*
X121107215Y-56666699D01*
X121107205Y-56666708D01*
X120877351Y-56873669D01*
X120877341Y-56873678D01*
X120875414Y-56875414D01*
X120873678Y-56877341D01*
X120873669Y-56877351D01*
X120666708Y-57107205D01*
X120666699Y-57107215D01*
X120664973Y-57109133D01*
X120663464Y-57111209D01*
X120663451Y-57111226D01*
X120481628Y-57361484D01*
X120481618Y-57361498D01*
X120480115Y-57363568D01*
X120478831Y-57365790D01*
X120478827Y-57365798D01*
X120324157Y-57633695D01*
X120324153Y-57633702D01*
X120322866Y-57635932D01*
X120321823Y-57638272D01*
X120321813Y-57638294D01*
X120195999Y-57920877D01*
X120195995Y-57920885D01*
X120194947Y-57923241D01*
X120194153Y-57925682D01*
X120194147Y-57925700D01*
X120098559Y-58219893D01*
X120098555Y-58219904D01*
X120097762Y-58222348D01*
X120097228Y-58224858D01*
X120097225Y-58224871D01*
X120047410Y-58459234D01*
X120032374Y-58529974D01*
X120032104Y-58532534D01*
X120032104Y-58532540D01*
X119999769Y-58840185D01*
X119999768Y-58840196D01*
X119999500Y-58842750D01*
X119999500Y-58999901D01*
X119999500Y-88999500D01*
X119999500Y-89000000D01*
X119999500Y-89157250D01*
X120032374Y-89470026D01*
X120032909Y-89472543D01*
X120032910Y-89472549D01*
X120097225Y-89775128D01*
X120097227Y-89775137D01*
X120097762Y-89777652D01*
X120098557Y-89780099D01*
X120098559Y-89780106D01*
X120194147Y-90074299D01*
X120194151Y-90074310D01*
X120194947Y-90076759D01*
X120195998Y-90079120D01*
X120195999Y-90079122D01*
X120321813Y-90361705D01*
X120321820Y-90361719D01*
X120322866Y-90364068D01*
X120480115Y-90636432D01*
X120481624Y-90638509D01*
X120481628Y-90638515D01*
X120663451Y-90888773D01*
X120663457Y-90888780D01*
X120664973Y-90890867D01*
X120875414Y-91124586D01*
X121109133Y-91335027D01*
X121111221Y-91336544D01*
X121111226Y-91336548D01*
X121361484Y-91518371D01*
X121363568Y-91519885D01*
X121635932Y-91677134D01*
X121638288Y-91678183D01*
X121638294Y-91678186D01*
X121761077Y-91732852D01*
X121923241Y-91805053D01*
X122222348Y-91902238D01*
X122529974Y-91967626D01*
X122842750Y-92000500D01*
X122997227Y-92000500D01*
X123002777Y-92000655D01*
X123239565Y-92013953D01*
X123239764Y-92014017D01*
X123239768Y-92013965D01*
X123246176Y-92014338D01*
X123332204Y-92019348D01*
X123343000Y-92020577D01*
X123533632Y-92052967D01*
X123669976Y-92077008D01*
X123680183Y-92079371D01*
X123856879Y-92130277D01*
X123857721Y-92130524D01*
X123998963Y-92172809D01*
X124008425Y-92176175D01*
X124174638Y-92245023D01*
X124175916Y-92245564D01*
X124314822Y-92305482D01*
X124323492Y-92309735D01*
X124479131Y-92395754D01*
X124480598Y-92396583D01*
X124613465Y-92473293D01*
X124621247Y-92478285D01*
X124765081Y-92580340D01*
X124766895Y-92581659D01*
X124891006Y-92674056D01*
X124897843Y-92679637D01*
X124986846Y-92759175D01*
X125028668Y-92796549D01*
X125030638Y-92798358D01*
X125143794Y-92905116D01*
X125149674Y-92911158D01*
X125266172Y-93041519D01*
X125268192Y-93043851D01*
X125368565Y-93163471D01*
X125373468Y-93169819D01*
X125474384Y-93312047D01*
X125476356Y-93314934D01*
X125562389Y-93445741D01*
X125566323Y-93452254D01*
X125650510Y-93604578D01*
X125652333Y-93608035D01*
X125722758Y-93748263D01*
X125725752Y-93754809D01*
X125792258Y-93915370D01*
X125793823Y-93919395D01*
X125847556Y-94067024D01*
X125849658Y-94073477D01*
X125897726Y-94240323D01*
X125898927Y-94244899D01*
X125935200Y-94397949D01*
X125936469Y-94404197D01*
X125965527Y-94575219D01*
X125966257Y-94580309D01*
X125984530Y-94736652D01*
X125985043Y-94742593D01*
X125994768Y-94915737D01*
X125994924Y-94921289D01*
X125994924Y-95078711D01*
X125994768Y-95084263D01*
X125985043Y-95257405D01*
X125984530Y-95263346D01*
X125966257Y-95419689D01*
X125965527Y-95424779D01*
X125936469Y-95595801D01*
X125935200Y-95602049D01*
X125898927Y-95755099D01*
X125897726Y-95759675D01*
X125849658Y-95926521D01*
X125847556Y-95932974D01*
X125793823Y-96080603D01*
X125792258Y-96084628D01*
X125725752Y-96245189D01*
X125722758Y-96251735D01*
X125652333Y-96391963D01*
X125650510Y-96395420D01*
X125566323Y-96547744D01*
X125562389Y-96554257D01*
X125476356Y-96685064D01*
X125474384Y-96687951D01*
X125373468Y-96830179D01*
X125368565Y-96836527D01*
X125268192Y-96956147D01*
X125266172Y-96958479D01*
X125149674Y-97088840D01*
X125143794Y-97094882D01*
X125030638Y-97201640D01*
X125028668Y-97203449D01*
X124897848Y-97320357D01*
X124890999Y-97325948D01*
X124766912Y-97418327D01*
X124765081Y-97419658D01*
X124621247Y-97521713D01*
X124613459Y-97526708D01*
X124480671Y-97603374D01*
X124479059Y-97604285D01*
X124323498Y-97690260D01*
X124314822Y-97694516D01*
X124175916Y-97754434D01*
X124174590Y-97754995D01*
X124008443Y-97823816D01*
X123998950Y-97827193D01*
X123857764Y-97869461D01*
X123856777Y-97869751D01*
X123680184Y-97920626D01*
X123669970Y-97922991D01*
X123533812Y-97947000D01*
X123533203Y-97947105D01*
X123343017Y-97979419D01*
X123332190Y-97980651D01*
X123239769Y-97986034D01*
X123239565Y-97986045D01*
X123012655Y-97998789D01*
X123002776Y-97999344D01*
X122997227Y-97999500D01*
X97002773Y-97999500D01*
X96997223Y-97999344D01*
X96986559Y-97998745D01*
X96760433Y-97986045D01*
X96760233Y-97985968D01*
X96760230Y-97986034D01*
X96667808Y-97980651D01*
X96656981Y-97979419D01*
X96466795Y-97947105D01*
X96466186Y-97947000D01*
X96330028Y-97922991D01*
X96319814Y-97920626D01*
X96143221Y-97869751D01*
X96142234Y-97869461D01*
X96001048Y-97827193D01*
X95991555Y-97823816D01*
X95825408Y-97754995D01*
X95824082Y-97754434D01*
X95685176Y-97694516D01*
X95676500Y-97690260D01*
X95520939Y-97604285D01*
X95519327Y-97603374D01*
X95386539Y-97526708D01*
X95378751Y-97521713D01*
X95234917Y-97419658D01*
X95233086Y-97418327D01*
X95108999Y-97325948D01*
X95102150Y-97320357D01*
X94971321Y-97203440D01*
X94969360Y-97201640D01*
X94856204Y-97094882D01*
X94850324Y-97088840D01*
X94733826Y-96958479D01*
X94731806Y-96956147D01*
X94645201Y-96852935D01*
X103797330Y-96852935D01*
X103798089Y-96857892D01*
X103798090Y-96857902D01*
X103820246Y-97002523D01*
X103826557Y-97043717D01*
X103828301Y-97048427D01*
X103828303Y-97048433D01*
X103891843Y-97219995D01*
X103891846Y-97220001D01*
X103893590Y-97224710D01*
X103896248Y-97228974D01*
X103948725Y-97313167D01*
X103995684Y-97388505D01*
X104128660Y-97528396D01*
X104132774Y-97531260D01*
X104132776Y-97531261D01*
X104237692Y-97604285D01*
X104287073Y-97638655D01*
X104464439Y-97714769D01*
X104653496Y-97753621D01*
X104795616Y-97753621D01*
X104798127Y-97753621D01*
X104942017Y-97738989D01*
X105126174Y-97681209D01*
X105294929Y-97587542D01*
X105441375Y-97461822D01*
X105559517Y-97309197D01*
X105644516Y-97135913D01*
X105692894Y-96949067D01*
X105697769Y-96852935D01*
X114297330Y-96852935D01*
X114298089Y-96857892D01*
X114298090Y-96857902D01*
X114320246Y-97002523D01*
X114326557Y-97043717D01*
X114328301Y-97048427D01*
X114328303Y-97048433D01*
X114391843Y-97219995D01*
X114391846Y-97220001D01*
X114393590Y-97224710D01*
X114396248Y-97228974D01*
X114448725Y-97313167D01*
X114495684Y-97388505D01*
X114628660Y-97528396D01*
X114632774Y-97531260D01*
X114632776Y-97531261D01*
X114737692Y-97604285D01*
X114787073Y-97638655D01*
X114964439Y-97714769D01*
X115153496Y-97753621D01*
X115295616Y-97753621D01*
X115298127Y-97753621D01*
X115442017Y-97738989D01*
X115626174Y-97681209D01*
X115794929Y-97587542D01*
X115941375Y-97461822D01*
X116059517Y-97309197D01*
X116144516Y-97135913D01*
X116192894Y-96949067D01*
X116202670Y-96756307D01*
X116173443Y-96565525D01*
X116106410Y-96384532D01*
X116004316Y-96220737D01*
X115871340Y-96080846D01*
X115867225Y-96077982D01*
X115867223Y-96077980D01*
X115717048Y-95973455D01*
X115717045Y-95973453D01*
X115712927Y-95970587D01*
X115708311Y-95968606D01*
X115708309Y-95968605D01*
X115540177Y-95896454D01*
X115535561Y-95894473D01*
X115530644Y-95893462D01*
X115530636Y-95893460D01*
X115351427Y-95856632D01*
X115351420Y-95856631D01*
X115346504Y-95855621D01*
X115201873Y-95855621D01*
X115199376Y-95855874D01*
X115199374Y-95855875D01*
X115062981Y-95869744D01*
X115062973Y-95869745D01*
X115057983Y-95870253D01*
X115053197Y-95871754D01*
X115053190Y-95871756D01*
X114878615Y-95926530D01*
X114878611Y-95926531D01*
X114873826Y-95928033D01*
X114869444Y-95930464D01*
X114869435Y-95930469D01*
X114709462Y-96019262D01*
X114709456Y-96019265D01*
X114705071Y-96021700D01*
X114701265Y-96024966D01*
X114701261Y-96024970D01*
X114562433Y-96144150D01*
X114562428Y-96144155D01*
X114558625Y-96147420D01*
X114555556Y-96151384D01*
X114555551Y-96151390D01*
X114443556Y-96296074D01*
X114443552Y-96296079D01*
X114440483Y-96300045D01*
X114438274Y-96304548D01*
X114438273Y-96304550D01*
X114357692Y-96468825D01*
X114357688Y-96468835D01*
X114355484Y-96473329D01*
X114354227Y-96478181D01*
X114354227Y-96478183D01*
X114330326Y-96570496D01*
X114307106Y-96660175D01*
X114306851Y-96665183D01*
X114306851Y-96665190D01*
X114301976Y-96761323D01*
X114297330Y-96852935D01*
X105697769Y-96852935D01*
X105702670Y-96756307D01*
X105673443Y-96565525D01*
X105606410Y-96384532D01*
X105504316Y-96220737D01*
X105371340Y-96080846D01*
X105367225Y-96077982D01*
X105367223Y-96077980D01*
X105217048Y-95973455D01*
X105217045Y-95973453D01*
X105212927Y-95970587D01*
X105208311Y-95968606D01*
X105208309Y-95968605D01*
X105040177Y-95896454D01*
X105035561Y-95894473D01*
X105030644Y-95893462D01*
X105030636Y-95893460D01*
X104851427Y-95856632D01*
X104851420Y-95856631D01*
X104846504Y-95855621D01*
X104701873Y-95855621D01*
X104699376Y-95855874D01*
X104699374Y-95855875D01*
X104562981Y-95869744D01*
X104562973Y-95869745D01*
X104557983Y-95870253D01*
X104553197Y-95871754D01*
X104553190Y-95871756D01*
X104378615Y-95926530D01*
X104378611Y-95926531D01*
X104373826Y-95928033D01*
X104369444Y-95930464D01*
X104369435Y-95930469D01*
X104209462Y-96019262D01*
X104209456Y-96019265D01*
X104205071Y-96021700D01*
X104201265Y-96024966D01*
X104201261Y-96024970D01*
X104062433Y-96144150D01*
X104062428Y-96144155D01*
X104058625Y-96147420D01*
X104055556Y-96151384D01*
X104055551Y-96151390D01*
X103943556Y-96296074D01*
X103943552Y-96296079D01*
X103940483Y-96300045D01*
X103938274Y-96304548D01*
X103938273Y-96304550D01*
X103857692Y-96468825D01*
X103857688Y-96468835D01*
X103855484Y-96473329D01*
X103854227Y-96478181D01*
X103854227Y-96478183D01*
X103830326Y-96570496D01*
X103807106Y-96660175D01*
X103806851Y-96665183D01*
X103806851Y-96665190D01*
X103801976Y-96761323D01*
X103797330Y-96852935D01*
X94645201Y-96852935D01*
X94631433Y-96836527D01*
X94626530Y-96830179D01*
X94525614Y-96687951D01*
X94523642Y-96685064D01*
X94437609Y-96554257D01*
X94433675Y-96547744D01*
X94349488Y-96395420D01*
X94347683Y-96391997D01*
X94277231Y-96251716D01*
X94274251Y-96245201D01*
X94207740Y-96084628D01*
X94206175Y-96080603D01*
X94205220Y-96077980D01*
X94152438Y-95932964D01*
X94150340Y-95926521D01*
X94141678Y-95896454D01*
X94102262Y-95759637D01*
X94101081Y-95755140D01*
X94064792Y-95602024D01*
X94063534Y-95595829D01*
X94034465Y-95424743D01*
X94033746Y-95419725D01*
X94015467Y-95263338D01*
X94014955Y-95257404D01*
X94005232Y-95084262D01*
X94005076Y-95078711D01*
X94005076Y-94921289D01*
X94005232Y-94915738D01*
X94014955Y-94742594D01*
X94014956Y-94742593D01*
X94014956Y-94742578D01*
X94015468Y-94736652D01*
X94033747Y-94580263D01*
X94034464Y-94575267D01*
X94063536Y-94404158D01*
X94064790Y-94397987D01*
X94101086Y-94244839D01*
X94102256Y-94240383D01*
X94150348Y-94073450D01*
X94152432Y-94067052D01*
X94206192Y-93919350D01*
X94207728Y-93915398D01*
X94274260Y-93754777D01*
X94277221Y-93748304D01*
X94347704Y-93607960D01*
X94349459Y-93604631D01*
X94433685Y-93452236D01*
X94437591Y-93445770D01*
X94523677Y-93314881D01*
X94525577Y-93312100D01*
X94626541Y-93169803D01*
X94631421Y-93163486D01*
X94731848Y-93043801D01*
X94733826Y-93041519D01*
X94773185Y-92997477D01*
X94850327Y-92911154D01*
X94856188Y-92905131D01*
X94969449Y-92798276D01*
X94971239Y-92796632D01*
X95102177Y-92679618D01*
X95108970Y-92674073D01*
X95233187Y-92581597D01*
X95234815Y-92580413D01*
X95378775Y-92478269D01*
X95386514Y-92473305D01*
X95519493Y-92396529D01*
X95520765Y-92395811D01*
X95676523Y-92309726D01*
X95685170Y-92305484D01*
X95824115Y-92245549D01*
X95825252Y-92245068D01*
X95991586Y-92176170D01*
X96001023Y-92172813D01*
X96142384Y-92130492D01*
X96142977Y-92130318D01*
X96319824Y-92079369D01*
X96330015Y-92077009D01*
X96466447Y-92052953D01*
X96657003Y-92020576D01*
X96667791Y-92019349D01*
X96760231Y-92013965D01*
X96760234Y-92014024D01*
X96760430Y-92013953D01*
X96997222Y-92000655D01*
X97002773Y-92000500D01*
X97154669Y-92000500D01*
X97157250Y-92000500D01*
X97470026Y-91967626D01*
X97777652Y-91902238D01*
X98076759Y-91805053D01*
X98364068Y-91677134D01*
X98636432Y-91519885D01*
X98890867Y-91335027D01*
X99124586Y-91124586D01*
X99335027Y-90890867D01*
X99519885Y-90636432D01*
X99677134Y-90364068D01*
X99805053Y-90076759D01*
X99902238Y-89777652D01*
X99967626Y-89470026D01*
X100000500Y-89157250D01*
X100000500Y-89000000D01*
X100000500Y-88999500D01*
X100000500Y-58999901D01*
X100000500Y-58842750D01*
X99967626Y-58529974D01*
X99922714Y-58318680D01*
X102405738Y-58318680D01*
X102406132Y-58322265D01*
X102406133Y-58322278D01*
X102435368Y-58587979D01*
X102435369Y-58587989D01*
X102435764Y-58591571D01*
X102436675Y-58595056D01*
X102436677Y-58595066D01*
X102460573Y-58686467D01*
X102505204Y-58857182D01*
X102612577Y-59109852D01*
X102614457Y-59112933D01*
X102614461Y-59112940D01*
X102753709Y-59341106D01*
X102755595Y-59344196D01*
X102931209Y-59555218D01*
X103135677Y-59738423D01*
X103364641Y-59889904D01*
X103613221Y-60006433D01*
X103876119Y-60085527D01*
X104147731Y-60125500D01*
X104351740Y-60125500D01*
X104353547Y-60125500D01*
X104558805Y-60110477D01*
X104826775Y-60050784D01*
X105083198Y-59952711D01*
X105322609Y-59818347D01*
X105539904Y-59650557D01*
X105730454Y-59452916D01*
X105890196Y-59229637D01*
X106015727Y-58985479D01*
X106104370Y-58725646D01*
X106154236Y-58455674D01*
X106159242Y-58318680D01*
X113835738Y-58318680D01*
X113836132Y-58322265D01*
X113836133Y-58322278D01*
X113865368Y-58587979D01*
X113865369Y-58587989D01*
X113865764Y-58591571D01*
X113866675Y-58595056D01*
X113866677Y-58595066D01*
X113890573Y-58686467D01*
X113935204Y-58857182D01*
X114042577Y-59109852D01*
X114044457Y-59112933D01*
X114044461Y-59112940D01*
X114183709Y-59341106D01*
X114185595Y-59344196D01*
X114361209Y-59555218D01*
X114565677Y-59738423D01*
X114794641Y-59889904D01*
X115043221Y-60006433D01*
X115306119Y-60085527D01*
X115577731Y-60125500D01*
X115781740Y-60125500D01*
X115783547Y-60125500D01*
X115988805Y-60110477D01*
X116256775Y-60050784D01*
X116513198Y-59952711D01*
X116752609Y-59818347D01*
X116969904Y-59650557D01*
X117160454Y-59452916D01*
X117320196Y-59229637D01*
X117445727Y-58985479D01*
X117534370Y-58725646D01*
X117584236Y-58455674D01*
X117590905Y-58273155D01*
X117594130Y-58184935D01*
X117594129Y-58184933D01*
X117594262Y-58181320D01*
X117564236Y-57908429D01*
X117494796Y-57642818D01*
X117387423Y-57390148D01*
X117372562Y-57365798D01*
X117246290Y-57158893D01*
X117244405Y-57155804D01*
X117068791Y-56944782D01*
X116864323Y-56761577D01*
X116716005Y-56663451D01*
X116638378Y-56612093D01*
X116638374Y-56612091D01*
X116635359Y-56610096D01*
X116632082Y-56608559D01*
X116632077Y-56608557D01*
X116390053Y-56495102D01*
X116390055Y-56495102D01*
X116386779Y-56493567D01*
X116383316Y-56492525D01*
X116127352Y-56415517D01*
X116127348Y-56415516D01*
X116123881Y-56414473D01*
X116120304Y-56413946D01*
X116120297Y-56413945D01*
X115855848Y-56375026D01*
X115855838Y-56375025D01*
X115852269Y-56374500D01*
X115646453Y-56374500D01*
X115644674Y-56374630D01*
X115644652Y-56374631D01*
X115444794Y-56389259D01*
X115444786Y-56389260D01*
X115441195Y-56389523D01*
X115437678Y-56390306D01*
X115437674Y-56390307D01*
X115176747Y-56448431D01*
X115176741Y-56448432D01*
X115173225Y-56449216D01*
X115169864Y-56450501D01*
X115169852Y-56450505D01*
X114920176Y-56545998D01*
X114920169Y-56546001D01*
X114916802Y-56547289D01*
X114913660Y-56549052D01*
X114913648Y-56549058D01*
X114680546Y-56679881D01*
X114680532Y-56679889D01*
X114677391Y-56681653D01*
X114674528Y-56683863D01*
X114674526Y-56683865D01*
X114462961Y-56847229D01*
X114462947Y-56847241D01*
X114460096Y-56849443D01*
X114457585Y-56852047D01*
X114457581Y-56852051D01*
X114272064Y-57044471D01*
X114272056Y-57044480D01*
X114269546Y-57047084D01*
X114267441Y-57050025D01*
X114267437Y-57050031D01*
X114111904Y-57267426D01*
X114111896Y-57267437D01*
X114109804Y-57270363D01*
X114108155Y-57273568D01*
X114108152Y-57273575D01*
X113985928Y-57511300D01*
X113985923Y-57511311D01*
X113984273Y-57514521D01*
X113983106Y-57517939D01*
X113983104Y-57517946D01*
X113896796Y-57770933D01*
X113896792Y-57770946D01*
X113895630Y-57774354D01*
X113894974Y-57777901D01*
X113894972Y-57777912D01*
X113846421Y-58040765D01*
X113846419Y-58040774D01*
X113845764Y-58044326D01*
X113845632Y-58047931D01*
X113845631Y-58047943D01*
X113839348Y-58219893D01*
X113835738Y-58318680D01*
X106159242Y-58318680D01*
X106160905Y-58273155D01*
X106164130Y-58184935D01*
X106164129Y-58184933D01*
X106164262Y-58181320D01*
X106134236Y-57908429D01*
X106064796Y-57642818D01*
X105957423Y-57390148D01*
X105942562Y-57365798D01*
X105816290Y-57158893D01*
X105814405Y-57155804D01*
X105638791Y-56944782D01*
X105434323Y-56761577D01*
X105286005Y-56663451D01*
X105208378Y-56612093D01*
X105208374Y-56612091D01*
X105205359Y-56610096D01*
X105202082Y-56608559D01*
X105202077Y-56608557D01*
X104960053Y-56495102D01*
X104960055Y-56495102D01*
X104956779Y-56493567D01*
X104953316Y-56492525D01*
X104697352Y-56415517D01*
X104697348Y-56415516D01*
X104693881Y-56414473D01*
X104690304Y-56413946D01*
X104690297Y-56413945D01*
X104425848Y-56375026D01*
X104425838Y-56375025D01*
X104422269Y-56374500D01*
X104216453Y-56374500D01*
X104214674Y-56374630D01*
X104214652Y-56374631D01*
X104014794Y-56389259D01*
X104014786Y-56389260D01*
X104011195Y-56389523D01*
X104007678Y-56390306D01*
X104007674Y-56390307D01*
X103746747Y-56448431D01*
X103746741Y-56448432D01*
X103743225Y-56449216D01*
X103739864Y-56450501D01*
X103739852Y-56450505D01*
X103490176Y-56545998D01*
X103490169Y-56546001D01*
X103486802Y-56547289D01*
X103483660Y-56549052D01*
X103483648Y-56549058D01*
X103250546Y-56679881D01*
X103250532Y-56679889D01*
X103247391Y-56681653D01*
X103244528Y-56683863D01*
X103244526Y-56683865D01*
X103032961Y-56847229D01*
X103032947Y-56847241D01*
X103030096Y-56849443D01*
X103027585Y-56852047D01*
X103027581Y-56852051D01*
X102842064Y-57044471D01*
X102842056Y-57044480D01*
X102839546Y-57047084D01*
X102837441Y-57050025D01*
X102837437Y-57050031D01*
X102681904Y-57267426D01*
X102681896Y-57267437D01*
X102679804Y-57270363D01*
X102678155Y-57273568D01*
X102678152Y-57273575D01*
X102555928Y-57511300D01*
X102555923Y-57511311D01*
X102554273Y-57514521D01*
X102553106Y-57517939D01*
X102553104Y-57517946D01*
X102466796Y-57770933D01*
X102466792Y-57770946D01*
X102465630Y-57774354D01*
X102464974Y-57777901D01*
X102464972Y-57777912D01*
X102416421Y-58040765D01*
X102416419Y-58040774D01*
X102415764Y-58044326D01*
X102415632Y-58047931D01*
X102415631Y-58047943D01*
X102409348Y-58219893D01*
X102405738Y-58318680D01*
X99922714Y-58318680D01*
X99902238Y-58222348D01*
X99805053Y-57923241D01*
X99677134Y-57635932D01*
X99519885Y-57363568D01*
X99371180Y-57158893D01*
X99336548Y-57111226D01*
X99336544Y-57111221D01*
X99335027Y-57109133D01*
X99124586Y-56875414D01*
X98890867Y-56664973D01*
X98888780Y-56663457D01*
X98888773Y-56663451D01*
X98638515Y-56481628D01*
X98638509Y-56481624D01*
X98636432Y-56480115D01*
X98364068Y-56322866D01*
X98361719Y-56321820D01*
X98361705Y-56321813D01*
X98079122Y-56195999D01*
X98079120Y-56195998D01*
X98076759Y-56194947D01*
X98074310Y-56194151D01*
X98074299Y-56194147D01*
X97780106Y-56098559D01*
X97780099Y-56098557D01*
X97777652Y-56097762D01*
X97775137Y-56097227D01*
X97775128Y-56097225D01*
X97472549Y-56032910D01*
X97472543Y-56032909D01*
X97470026Y-56032374D01*
X97467462Y-56032104D01*
X97467459Y-56032104D01*
X97159814Y-55999769D01*
X97159804Y-55999768D01*
X97157250Y-55999500D01*
X97154669Y-55999500D01*
X97002773Y-55999500D01*
X96997223Y-55999344D01*
X96986559Y-55998745D01*
X96760433Y-55986045D01*
X96760233Y-55985968D01*
X96760230Y-55986034D01*
X96667808Y-55980651D01*
X96656981Y-55979419D01*
X96466795Y-55947105D01*
X96466186Y-55947000D01*
X96330028Y-55922991D01*
X96319814Y-55920626D01*
X96143221Y-55869751D01*
X96142234Y-55869461D01*
X96001048Y-55827193D01*
X95991555Y-55823816D01*
X95825408Y-55754995D01*
X95824082Y-55754434D01*
X95685176Y-55694516D01*
X95676500Y-55690260D01*
X95520939Y-55604285D01*
X95519327Y-55603374D01*
X95386539Y-55526708D01*
X95378751Y-55521713D01*
X95234917Y-55419658D01*
X95233086Y-55418327D01*
X95108999Y-55325948D01*
X95102150Y-55320357D01*
X94971330Y-55203449D01*
X94969360Y-55201640D01*
X94856204Y-55094882D01*
X94850324Y-55088840D01*
X94733826Y-54958479D01*
X94731806Y-54956147D01*
X94631433Y-54836527D01*
X94626530Y-54830179D01*
X94525614Y-54687951D01*
X94523642Y-54685064D01*
X94437609Y-54554257D01*
X94433675Y-54547744D01*
X94349488Y-54395420D01*
X94347683Y-54391997D01*
X94277231Y-54251716D01*
X94274251Y-54245201D01*
X94207740Y-54084628D01*
X94206175Y-54080603D01*
X94152442Y-53932974D01*
X94150340Y-53926521D01*
X94102262Y-53759637D01*
X94101081Y-53755140D01*
X94064792Y-53602024D01*
X94063534Y-53595829D01*
X94034465Y-53424743D01*
X94033746Y-53419725D01*
X94015467Y-53263338D01*
X94014955Y-53257404D01*
X94005232Y-53084262D01*
X94005076Y-53078711D01*
X94005076Y-52921289D01*
X94005232Y-52915738D01*
X94014955Y-52742594D01*
X94014956Y-52742593D01*
X94014956Y-52742578D01*
X94015468Y-52736652D01*
X94033747Y-52580263D01*
X94034464Y-52575267D01*
X94063536Y-52404158D01*
X94064790Y-52397987D01*
X94101086Y-52244839D01*
X94102256Y-52240383D01*
X94150348Y-52073450D01*
X94152432Y-52067052D01*
X94206192Y-51919350D01*
X94207728Y-51915398D01*
X94274260Y-51754777D01*
X94277221Y-51748304D01*
X94347704Y-51607960D01*
X94349459Y-51604631D01*
X94433685Y-51452236D01*
X94437591Y-51445770D01*
X94523677Y-51314881D01*
X94525577Y-51312100D01*
X94626541Y-51169803D01*
X94631421Y-51163486D01*
X94731848Y-51043801D01*
X94733826Y-51041519D01*
X94773185Y-50997477D01*
X94850327Y-50911154D01*
X94856188Y-50905131D01*
X94969449Y-50798276D01*
X94971239Y-50796632D01*
X95102177Y-50679618D01*
X95108970Y-50674073D01*
X95233187Y-50581597D01*
X95234815Y-50580413D01*
X95378775Y-50478269D01*
X95386514Y-50473305D01*
X95519493Y-50396529D01*
X95520765Y-50395811D01*
X95676523Y-50309726D01*
X95685170Y-50305484D01*
X95824115Y-50245549D01*
X95825252Y-50245068D01*
X95991586Y-50176170D01*
X96001023Y-50172813D01*
X96142384Y-50130492D01*
X96142977Y-50130318D01*
X96319824Y-50079369D01*
X96330015Y-50077009D01*
X96466447Y-50052953D01*
X96657003Y-50020576D01*
X96667791Y-50019349D01*
X96760231Y-50013965D01*
X96760234Y-50014024D01*
X96760430Y-50013953D01*
X96997222Y-50000655D01*
X97002773Y-50000500D01*
X122997227Y-50000500D01*
X123002777Y-50000655D01*
G37*
%TD.AperFunction*%
%TD*%
M02*
