%TF.GenerationSoftware,KiCad,Pcbnew,(7.0.0)*%
%TF.CreationDate,2024-01-19T13:27:31-08:00*%
%TF.ProjectId,M.E.S.S.I Basic,4d2e452e-532e-4532-9e49-204261736963,rev?*%
%TF.SameCoordinates,Original*%
%TF.FileFunction,Soldermask,Bot*%
%TF.FilePolarity,Negative*%
%FSLAX46Y46*%
G04 Gerber Fmt 4.6, Leading zero omitted, Abs format (unit mm)*
G04 Created by KiCad (PCBNEW (7.0.0)) date 2024-01-19 13:27:31*
%MOMM*%
%LPD*%
G01*
G04 APERTURE LIST*
%ADD10C,0.800000*%
%ADD11C,5.400000*%
%ADD12C,1.397000*%
%ADD13C,3.250000*%
G04 APERTURE END LIST*
D10*
%TO.C,H1*%
X123000000Y-55025000D03*
X121568109Y-54431891D03*
X124431891Y-54431891D03*
X120975000Y-53000000D03*
D11*
X123000000Y-53000000D03*
D10*
X125025000Y-53000000D03*
X121568109Y-51568109D03*
X124431891Y-51568109D03*
X123000000Y-50975000D03*
%TD*%
%TO.C,H2*%
X94975000Y-53000000D03*
X95568109Y-51568109D03*
X95568109Y-54431891D03*
X97000000Y-50975000D03*
D11*
X97000000Y-53000000D03*
D10*
X97000000Y-55025000D03*
X98431891Y-51568109D03*
X98431891Y-54431891D03*
X99025000Y-53000000D03*
%TD*%
%TO.C,H3*%
X94975000Y-95000000D03*
X95568109Y-93568109D03*
X95568109Y-96431891D03*
X97000000Y-92975000D03*
D11*
X97000000Y-95000000D03*
D10*
X97000000Y-97025000D03*
X98431891Y-93568109D03*
X98431891Y-96431891D03*
X99025000Y-95000000D03*
%TD*%
%TO.C,H4*%
X120975000Y-95000000D03*
X121568109Y-93568109D03*
X121568109Y-96431891D03*
X123000000Y-92975000D03*
D11*
X123000000Y-95000000D03*
D10*
X123000000Y-97025000D03*
X124431891Y-93568109D03*
X124431891Y-96431891D03*
X125025000Y-95000000D03*
%TD*%
D12*
%TO.C,J1*%
X104750000Y-96804621D03*
X115250000Y-96804621D03*
%TD*%
D13*
%TO.C,J2*%
X115715000Y-58250000D03*
X104285000Y-58250000D03*
%TD*%
M02*
